G04*
G04 #@! TF.GenerationSoftware,Altium Limited,Altium Designer,22.7.1 (60)*
G04*
G04 Layer_Color=16711935*
%FSLAX44Y44*%
%MOMM*%
G71*
G04*
G04 #@! TF.SameCoordinates,868842FB-CB56-49F4-92B6-46A9E27D1440*
G04*
G04*
G04 #@! TF.FilePolarity,Positive*
G04*
G01*
G75*
%ADD14C,0.2000*%
%ADD56C,0.1000*%
%ADD57C,0.0500*%
D14*
X255120Y92210D02*
Y156710D01*
X141120Y92210D02*
X255120D01*
X141120D02*
Y156710D01*
X255120D01*
X234899Y168497D02*
X268021D01*
Y187103D01*
X234899D02*
X268021D01*
X234899Y168497D02*
Y187103D01*
X40430Y387780D02*
X146430D01*
X40430Y293080D02*
Y387780D01*
Y293080D02*
X146430D01*
Y387780D01*
X259180Y385750D02*
X365180D01*
X259180Y291050D02*
Y385750D01*
Y291050D02*
X365180D01*
Y385750D01*
X148690Y496240D02*
X254690D01*
X148690Y401540D02*
Y496240D01*
Y401540D02*
X254690D01*
Y496240D01*
X340560Y141830D02*
Y185830D01*
Y141830D02*
X365560D01*
Y185830D01*
X340560D02*
X365560D01*
X104997Y137761D02*
Y170882D01*
Y137761D02*
X123603D01*
Y170882D01*
X104997D02*
X123603D01*
X54197Y137109D02*
Y170231D01*
Y137109D02*
X72803D01*
Y170231D01*
X54197D02*
X72803D01*
X365970Y401030D02*
Y495730D01*
X259970Y401030D02*
X365970D01*
X259970D02*
Y495730D01*
X365970D01*
X143720Y402300D02*
Y497000D01*
X37720Y402300D02*
X143720D01*
X37720D02*
Y497000D01*
X143720D01*
X365970Y511520D02*
Y606220D01*
X259970Y511520D02*
X365970D01*
X259970D02*
Y606220D01*
X365970D01*
X255480Y511520D02*
Y606220D01*
X149480Y511520D02*
X255480D01*
X149480D02*
Y606220D01*
X255480D01*
X143410Y512030D02*
Y606730D01*
X37410Y512030D02*
X143410D01*
X37410D02*
Y606730D01*
X143410D01*
X268180Y620740D02*
Y715440D01*
X162180Y620740D02*
X268180D01*
X162180D02*
Y715440D01*
X268180D01*
X156420Y620740D02*
Y715440D01*
X50420Y620740D02*
X156420D01*
X50420D02*
Y715440D01*
X156420D01*
D56*
X331470Y23030D02*
Y33030D01*
X326470Y28030D02*
X336470D01*
X367370Y12780D02*
Y22780D01*
X362370Y17780D02*
X372370D01*
X350120Y9280D02*
X384620D01*
X350120Y26280D02*
X384620D01*
X350120Y9280D02*
Y26280D01*
X384620Y9280D02*
Y26280D01*
X222360Y41990D02*
Y51990D01*
X217360Y46990D02*
X227360D01*
X319930Y153750D02*
Y163750D01*
X314930Y158750D02*
X324930D01*
X319930Y171530D02*
Y181530D01*
X314930Y176530D02*
X324930D01*
X83960Y227920D02*
X93960D01*
X88960Y222920D02*
Y232920D01*
D57*
X318470Y49530D02*
X344470D01*
X318470Y6530D02*
X344470D01*
X318470D02*
Y49530D01*
X344470Y6530D02*
Y49530D01*
X205860Y56490D02*
X238860D01*
X205860Y37490D02*
X238860D01*
Y56490D01*
X205860Y37490D02*
Y56490D01*
X303430Y149250D02*
X336430D01*
X303430Y168250D02*
X336430D01*
X303430Y149250D02*
Y168250D01*
X336430Y149250D02*
Y168250D01*
X303430Y167030D02*
X336430D01*
X303430Y186030D02*
X336430D01*
X303430Y167030D02*
Y186030D01*
X336430Y167030D02*
Y186030D01*
X53460Y172420D02*
Y283420D01*
X124460Y172420D02*
Y283420D01*
X53460D02*
X124460D01*
X53460Y172420D02*
X124460D01*
M02*
