G04*
G04 #@! TF.GenerationSoftware,Altium Limited,Altium Designer,22.7.1 (60)*
G04*
G04 Layer_Color=16711935*
%FSLAX44Y44*%
%MOMM*%
G71*
G04*
G04 #@! TF.SameCoordinates,868842FB-CB56-49F4-92B6-46A9E27D1440*
G04*
G04*
G04 #@! TF.FilePolarity,Positive*
G04*
G01*
G75*
%ADD14C,0.2000*%
%ADD56C,0.1000*%
D14*
X163160Y101000D02*
Y280000D01*
Y101000D02*
X238160D01*
Y280000D01*
X163160D02*
X238160D01*
X282040Y175718D02*
X294540D01*
X282040Y155718D02*
Y175718D01*
Y155718D02*
X294540D01*
Y175718D01*
X133510Y307440D02*
Y319940D01*
Y307440D02*
X153510D01*
Y319940D01*
X133510D02*
X153510D01*
X343060Y306170D02*
Y318670D01*
Y306170D02*
X363060D01*
Y318670D01*
X343060D02*
X363060D01*
X235110Y411580D02*
Y424080D01*
Y411580D02*
X255110D01*
Y424080D01*
X235110D02*
X255110D01*
X371360Y121690D02*
X398260D01*
Y581890D01*
X371360D02*
X398260D01*
X371360Y121690D02*
Y581890D01*
X520Y121690D02*
X27420D01*
Y581890D01*
X520D02*
X27420D01*
X520Y121690D02*
Y581890D01*
D56*
X196620Y392790D02*
X195950Y395290D01*
X194120Y397120D01*
X191620Y397790D01*
X189120Y397120D01*
X187290Y395290D01*
X186620Y392790D01*
X187290Y390290D01*
X189120Y388460D01*
X191620Y387790D01*
X194120Y388460D01*
X195950Y390290D01*
X196620Y392790D01*
X310230Y291190D02*
X309560Y293690D01*
X307730Y295520D01*
X305230Y296190D01*
X302730Y295520D01*
X300900Y293690D01*
X300230Y291190D01*
X300900Y288690D01*
X302730Y286860D01*
X305230Y286190D01*
X307730Y286860D01*
X309560Y288690D01*
X310230Y291190D01*
X82900Y296270D02*
X82230Y298770D01*
X80400Y300600D01*
X77900Y301270D01*
X75400Y300600D01*
X73570Y298770D01*
X72900Y296270D01*
X73570Y293770D01*
X75400Y291940D01*
X77900Y291270D01*
X80400Y291940D01*
X82230Y293770D01*
X82900Y296270D01*
X182620Y301790D02*
X222620D01*
X182620Y401790D02*
X222620D01*
Y301790D02*
Y401790D01*
X182620Y301790D02*
Y401790D01*
X296230Y200190D02*
Y300190D01*
X336230Y200190D02*
Y300190D01*
X296230D02*
X336230D01*
X296230Y200190D02*
X336230D01*
X384810Y33020D02*
Y83820D01*
X359410Y33020D02*
X384810D01*
X359410D02*
Y83820D01*
X384810D01*
X68900Y205270D02*
X108900D01*
X68900Y305270D02*
X108900D01*
Y205270D02*
Y305270D01*
X68900Y205270D02*
Y305270D01*
X243840Y77470D02*
X345440D01*
X243840Y52070D02*
X345440D01*
X243840D02*
Y77470D01*
X345440Y52070D02*
Y77470D01*
X120650Y83820D02*
X222250D01*
X120650Y58420D02*
X222250D01*
X120650D02*
Y83820D01*
X222250Y58420D02*
Y83820D01*
M02*
