G04*
G04 #@! TF.GenerationSoftware,Altium Limited,Altium Designer,22.7.1 (60)*
G04*
G04 Layer_Color=128*
%FSLAX44Y44*%
%MOMM*%
G71*
G04*
G04 #@! TF.SameCoordinates,868842FB-CB56-49F4-92B6-46A9E27D1440*
G04*
G04*
G04 #@! TF.FilePolarity,Positive*
G04*
G01*
G75*
%ADD18R,1.3606X1.1578*%
%ADD19R,1.1578X1.3606*%
%ADD43R,2.1000X1.4000*%
%ADD44R,1.5500X1.2500*%
%ADD45R,1.1000X1.2000*%
%ADD46R,1.0000X1.3500*%
%ADD47R,1.8000X1.0000*%
%ADD48R,5.5000X6.5000*%
%ADD49R,0.9500X2.1000*%
D18*
X114300Y162594D02*
D03*
Y146050D02*
D03*
X63500Y161942D02*
D03*
Y145398D02*
D03*
D19*
X243188Y177800D02*
D03*
X259732D02*
D03*
D43*
X152620Y146960D02*
D03*
X243620D02*
D03*
X152620Y101960D02*
D03*
X243620D02*
D03*
D44*
X331470Y38280D02*
D03*
Y17780D02*
D03*
D45*
X356870D02*
D03*
X377870D02*
D03*
D46*
X231360Y46990D02*
D03*
X213360D02*
D03*
X310930Y158750D02*
D03*
X328930D02*
D03*
X310930Y176530D02*
D03*
X328930D02*
D03*
D47*
X353060Y178830D02*
D03*
Y148830D02*
D03*
D48*
X88960Y248420D02*
D03*
D49*
X66160Y185420D02*
D03*
X111760D02*
D03*
M02*
