G04*
G04 #@! TF.GenerationSoftware,Altium Limited,Altium Designer,22.7.1 (60)*
G04*
G04 Layer_Physical_Order=2*
G04 Layer_Color=36540*
%FSLAX44Y44*%
%MOMM*%
G71*
G04*
G04 #@! TF.SameCoordinates,868842FB-CB56-49F4-92B6-46A9E27D1440*
G04*
G04*
G04 #@! TF.FilePolarity,Positive*
G04*
G01*
G75*
%ADD24C,1.5700*%
%ADD28C,1.7000*%
%ADD34C,1.6000*%
%ADD36C,1.5000*%
%ADD37R,1.5000X1.5000*%
%ADD41C,1.2700*%
%ADD42C,0.4000*%
G36*
X328759Y730250D02*
X329499Y729218D01*
X328371Y725900D01*
X325931Y717041D01*
X324194Y708019D01*
X323170Y698888D01*
X322865Y689705D01*
X323282Y680526D01*
X324417Y671408D01*
X326265Y662408D01*
X328813Y653580D01*
X332046Y644980D01*
X335943Y636659D01*
X340482Y628670D01*
X345633Y621062D01*
X351366Y613881D01*
X357644Y607172D01*
X364429Y600977D01*
X371679Y595332D01*
X379350Y590275D01*
X387393Y585834D01*
X395761Y582038D01*
X400050Y580390D01*
Y26670D01*
X400112Y24106D01*
X399235Y19051D01*
X397388Y14266D01*
X394642Y9932D01*
X391105Y6217D01*
X386910Y3264D01*
X382220Y1186D01*
X377214Y63D01*
X374650Y-0D01*
X374650Y0D01*
Y0D01*
X27940D01*
X25376Y-188D01*
X20273Y445D01*
X15391Y2061D01*
X10918Y4598D01*
X7027Y7959D01*
X3865Y12015D01*
X1556Y16609D01*
X188Y21566D01*
X-0Y24130D01*
X0Y24130D01*
X-0Y659130D01*
X-31Y662593D01*
X586Y669491D01*
X1875Y676295D01*
X3826Y682941D01*
X6419Y689363D01*
X9628Y695500D01*
X13424Y701293D01*
X17769Y706686D01*
X22622Y711627D01*
X27936Y716069D01*
X33659Y719968D01*
X39738Y723288D01*
X46112Y725996D01*
X52721Y728066D01*
X59501Y729478D01*
X66387Y730219D01*
X69850Y730250D01*
X328759Y730250D01*
D02*
G37*
%LPC*%
G36*
X261186Y695980D02*
X259174D01*
X257231Y695459D01*
X255489Y694454D01*
X254067Y693031D01*
X253061Y691289D01*
X252540Y689346D01*
Y687334D01*
X253061Y685391D01*
X254067Y683649D01*
X255489Y682226D01*
X257231Y681221D01*
X259174Y680700D01*
X261186D01*
X263129Y681221D01*
X264871Y682226D01*
X266294Y683649D01*
X267299Y685391D01*
X267820Y687334D01*
Y689346D01*
X267299Y691289D01*
X266294Y693031D01*
X264871Y694454D01*
X263129Y695459D01*
X261186Y695980D01*
D02*
G37*
G36*
X171186D02*
X169174D01*
X167231Y695459D01*
X165489Y694454D01*
X164067Y693031D01*
X163061Y691289D01*
X162540Y689346D01*
Y687334D01*
X163061Y685391D01*
X164067Y683649D01*
X165489Y682226D01*
X167231Y681221D01*
X169174Y680700D01*
X171186D01*
X173129Y681221D01*
X174871Y682226D01*
X176294Y683649D01*
X177299Y685391D01*
X177820Y687334D01*
Y689346D01*
X177299Y691289D01*
X176294Y693031D01*
X174871Y694454D01*
X173129Y695459D01*
X171186Y695980D01*
D02*
G37*
G36*
X149426D02*
X147414D01*
X145471Y695459D01*
X143729Y694454D01*
X142306Y693031D01*
X141301Y691289D01*
X140780Y689346D01*
Y687334D01*
X141301Y685391D01*
X142306Y683649D01*
X143729Y682226D01*
X145471Y681221D01*
X147414Y680700D01*
X149426D01*
X151369Y681221D01*
X153111Y682226D01*
X154534Y683649D01*
X155539Y685391D01*
X156060Y687334D01*
Y689346D01*
X155539Y691289D01*
X154534Y693031D01*
X153111Y694454D01*
X151369Y695459D01*
X149426Y695980D01*
D02*
G37*
G36*
X59426D02*
X57414D01*
X55471Y695459D01*
X53729Y694454D01*
X52306Y693031D01*
X51301Y691289D01*
X50780Y689346D01*
Y687334D01*
X51301Y685391D01*
X52306Y683649D01*
X53729Y682226D01*
X55471Y681221D01*
X57414Y680700D01*
X59426D01*
X61369Y681221D01*
X63111Y682226D01*
X64534Y683649D01*
X65539Y685391D01*
X66060Y687334D01*
Y689346D01*
X65539Y691289D01*
X64534Y693031D01*
X63111Y694454D01*
X61369Y695459D01*
X59426Y695980D01*
D02*
G37*
G36*
X119788Y689330D02*
X119690D01*
Y680210D01*
X128810D01*
Y680308D01*
X128102Y682950D01*
X126734Y685320D01*
X124800Y687254D01*
X122430Y688622D01*
X119788Y689330D01*
D02*
G37*
G36*
X231548D02*
X231450D01*
Y680210D01*
X240570D01*
Y680308D01*
X239862Y682950D01*
X238494Y685320D01*
X236560Y687254D01*
X234190Y688622D01*
X231548Y689330D01*
D02*
G37*
G36*
X228910D02*
X228812D01*
X226170Y688622D01*
X223800Y687254D01*
X221866Y685320D01*
X220498Y682950D01*
X219790Y680308D01*
Y680210D01*
X228910D01*
Y689330D01*
D02*
G37*
G36*
X117150D02*
X117052D01*
X114410Y688622D01*
X112040Y687254D01*
X110106Y685320D01*
X108738Y682950D01*
X108030Y680308D01*
Y680210D01*
X117150D01*
Y689330D01*
D02*
G37*
G36*
X240570Y677670D02*
X231450D01*
Y668550D01*
X231548D01*
X234190Y669258D01*
X236560Y670626D01*
X238494Y672560D01*
X239862Y674930D01*
X240570Y677572D01*
Y677670D01*
D02*
G37*
G36*
X228910D02*
X219790D01*
Y677572D01*
X220498Y674930D01*
X221866Y672560D01*
X223800Y670626D01*
X226170Y669258D01*
X228812Y668550D01*
X228910D01*
Y677670D01*
D02*
G37*
G36*
X201548Y689330D02*
X198812D01*
X196170Y688622D01*
X193800Y687254D01*
X191866Y685320D01*
X190498Y682950D01*
X189790Y680308D01*
Y677572D01*
X190498Y674930D01*
X191866Y672560D01*
X193800Y670626D01*
X196170Y669258D01*
X198812Y668550D01*
X201548D01*
X204190Y669258D01*
X206560Y670626D01*
X208494Y672560D01*
X209862Y674930D01*
X210570Y677572D01*
Y680308D01*
X209862Y682950D01*
X208494Y685320D01*
X206560Y687254D01*
X204190Y688622D01*
X201548Y689330D01*
D02*
G37*
G36*
X128810Y677670D02*
X119690D01*
Y668550D01*
X119788D01*
X122430Y669258D01*
X124800Y670626D01*
X126734Y672560D01*
X128102Y674930D01*
X128810Y677572D01*
Y677670D01*
D02*
G37*
G36*
X117150D02*
X108030D01*
Y677572D01*
X108738Y674930D01*
X110106Y672560D01*
X112040Y670626D01*
X114410Y669258D01*
X117052Y668550D01*
X117150D01*
Y677670D01*
D02*
G37*
G36*
X89788Y689330D02*
X87052D01*
X84410Y688622D01*
X82040Y687254D01*
X80106Y685320D01*
X78738Y682950D01*
X78030Y680308D01*
Y677572D01*
X78738Y674930D01*
X80106Y672560D01*
X82040Y670626D01*
X84410Y669258D01*
X87052Y668550D01*
X89788D01*
X92430Y669258D01*
X94800Y670626D01*
X96734Y672560D01*
X98102Y674930D01*
X98810Y677572D01*
Y680308D01*
X98102Y682950D01*
X96734Y685320D01*
X94800Y687254D01*
X92430Y688622D01*
X89788Y689330D01*
D02*
G37*
G36*
X295496Y685800D02*
X291244D01*
X287072Y684970D01*
X283143Y683343D01*
X279607Y680980D01*
X276600Y677973D01*
X274237Y674437D01*
X272610Y670508D01*
X271780Y666336D01*
Y662084D01*
X272610Y657912D01*
X274237Y653983D01*
X276600Y650447D01*
X279607Y647440D01*
X283143Y645077D01*
X287072Y643450D01*
X291244Y642620D01*
X295496D01*
X299668Y643450D01*
X303597Y645077D01*
X307133Y647440D01*
X310140Y650447D01*
X312503Y653983D01*
X314130Y657912D01*
X314960Y662084D01*
Y666336D01*
X314130Y670508D01*
X312503Y674437D01*
X310140Y677973D01*
X307133Y680980D01*
X303597Y683343D01*
X299668Y684970D01*
X295496Y685800D01*
D02*
G37*
G36*
X28161D02*
X23909D01*
X19737Y684970D01*
X15808Y683343D01*
X12272Y680980D01*
X9265Y677973D01*
X6902Y674437D01*
X5275Y670508D01*
X4445Y666336D01*
Y662084D01*
X5275Y657912D01*
X6902Y653983D01*
X9265Y650447D01*
X12272Y647440D01*
X15808Y645077D01*
X19737Y643450D01*
X23909Y642620D01*
X28161D01*
X32332Y643450D01*
X36262Y645077D01*
X39798Y647440D01*
X42805Y650447D01*
X45168Y653983D01*
X46795Y657912D01*
X47625Y662084D01*
Y666336D01*
X46795Y670508D01*
X45168Y674437D01*
X42805Y677973D01*
X39798Y680980D01*
X36262Y683343D01*
X32332Y684970D01*
X28161Y685800D01*
D02*
G37*
G36*
X210570Y659330D02*
X189790D01*
Y638550D01*
X210570D01*
Y659330D01*
D02*
G37*
G36*
X119788D02*
X117052D01*
X114410Y658622D01*
X112040Y657254D01*
X110106Y655320D01*
X108738Y652950D01*
X108030Y650308D01*
Y647572D01*
X108738Y644930D01*
X110106Y642560D01*
X112040Y640626D01*
X114410Y639258D01*
X117052Y638550D01*
X119788D01*
X122430Y639258D01*
X124800Y640626D01*
X126734Y642560D01*
X128102Y644930D01*
X128810Y647572D01*
Y650308D01*
X128102Y652950D01*
X126734Y655320D01*
X124800Y657254D01*
X122430Y658622D01*
X119788Y659330D01*
D02*
G37*
G36*
X98810D02*
X78030D01*
Y638550D01*
X98810D01*
Y659330D01*
D02*
G37*
G36*
X231548D02*
X228812D01*
X226170Y658622D01*
X223800Y657254D01*
X221866Y655320D01*
X220498Y652950D01*
X219790Y650308D01*
Y647572D01*
X220498Y644930D01*
X221866Y642560D01*
X223800Y640626D01*
X225331Y639742D01*
Y637007D01*
X166356Y578032D01*
X165120Y578592D01*
Y580126D01*
X164599Y582069D01*
X163594Y583811D01*
X162171Y585233D01*
X160429Y586239D01*
X158486Y586760D01*
X156474D01*
X154531Y586239D01*
X152789Y585233D01*
X151367Y583811D01*
X150361Y582069D01*
X149840Y580126D01*
Y578114D01*
X150361Y576171D01*
X151367Y574429D01*
X152789Y573007D01*
X154531Y572001D01*
X156474Y571480D01*
X158008D01*
X158567Y570244D01*
X143777Y555453D01*
X142773Y553951D01*
X142421Y552180D01*
X142421Y552180D01*
Y475800D01*
X141151Y475274D01*
X140411Y476013D01*
X138669Y477019D01*
X136726Y477540D01*
X134714D01*
X132771Y477019D01*
X131029Y476013D01*
X129607Y474591D01*
X128601Y472849D01*
X128080Y470906D01*
Y468894D01*
X128601Y466951D01*
X129607Y465209D01*
X131029Y463787D01*
X132771Y462781D01*
X134714Y462260D01*
X136726D01*
X138669Y462781D01*
X139414Y461744D01*
X137574Y459904D01*
X136648Y460152D01*
X134308D01*
X132047Y459546D01*
X130020Y458376D01*
X128364Y456721D01*
X127194Y454693D01*
X126588Y452432D01*
Y450092D01*
X127194Y447831D01*
X128364Y445803D01*
X130020Y444148D01*
X132047Y442978D01*
X134308Y442372D01*
X136648D01*
X138910Y442978D01*
X140937Y444148D01*
X142592Y445803D01*
X143762Y447831D01*
X144368Y450092D01*
Y452432D01*
X144120Y453358D01*
X150323Y459561D01*
X150323Y459561D01*
X151327Y461062D01*
X151485Y461857D01*
X152908Y462502D01*
X153741Y462021D01*
X155684Y461500D01*
X157696D01*
X159639Y462021D01*
X161381Y463027D01*
X162803Y464449D01*
X163809Y466191D01*
X164330Y468134D01*
Y470146D01*
X163809Y472089D01*
X162803Y473831D01*
X161381Y475253D01*
X159639Y476259D01*
X157696Y476780D01*
X155684D01*
X153741Y476259D01*
X152949Y475802D01*
X151679Y476535D01*
Y550262D01*
X177950Y576534D01*
X178966Y575754D01*
X177798Y573730D01*
X177090Y571088D01*
Y568352D01*
X177798Y565710D01*
X179166Y563340D01*
X181100Y561406D01*
X183470Y560038D01*
X186112Y559330D01*
X188848D01*
X191490Y560038D01*
X193860Y561406D01*
X195794Y563340D01*
X197162Y565710D01*
X197870Y568352D01*
Y571088D01*
X197162Y573730D01*
X195794Y576100D01*
X193860Y578034D01*
X191490Y579402D01*
X188848Y580110D01*
X186112D01*
X183470Y579402D01*
X181446Y578234D01*
X180666Y579250D01*
X233233Y631817D01*
X233233Y631817D01*
X234237Y633319D01*
X234589Y635090D01*
Y639488D01*
X236560Y640626D01*
X238494Y642560D01*
X239862Y644930D01*
X240570Y647572D01*
Y650308D01*
X239862Y652950D01*
X238494Y655320D01*
X236560Y657254D01*
X234190Y658622D01*
X231548Y659330D01*
D02*
G37*
G36*
X136416Y587270D02*
X134404D01*
X132461Y586749D01*
X130719Y585743D01*
X129297Y584321D01*
X128291Y582579D01*
X127770Y580636D01*
Y578624D01*
X128291Y576681D01*
X129297Y574939D01*
X130719Y573517D01*
X132461Y572511D01*
X134404Y571990D01*
X136416D01*
X138359Y572511D01*
X140101Y573517D01*
X141524Y574939D01*
X142529Y576681D01*
X143050Y578624D01*
Y580636D01*
X142529Y582579D01*
X141524Y584321D01*
X140101Y585743D01*
X138359Y586749D01*
X136416Y587270D01*
D02*
G37*
G36*
X46416D02*
X44404D01*
X42461Y586749D01*
X40719Y585743D01*
X39297Y584321D01*
X38291Y582579D01*
X37770Y580636D01*
Y578624D01*
X38291Y576681D01*
X39297Y574939D01*
X40719Y573517D01*
X42461Y572511D01*
X44404Y571990D01*
X46416D01*
X48359Y572511D01*
X50101Y573517D01*
X51523Y574939D01*
X52529Y576681D01*
X53050Y578624D01*
Y580636D01*
X52529Y582579D01*
X51523Y584321D01*
X50101Y585743D01*
X48359Y586749D01*
X46416Y587270D01*
D02*
G37*
G36*
X106778Y580620D02*
X106680D01*
Y571500D01*
X115800D01*
Y571598D01*
X115092Y574240D01*
X113724Y576610D01*
X111790Y578544D01*
X109420Y579912D01*
X106778Y580620D01*
D02*
G37*
G36*
X104140D02*
X104042D01*
X101400Y579912D01*
X99030Y578544D01*
X97096Y576610D01*
X95728Y574240D01*
X95020Y571598D01*
Y571500D01*
X104140D01*
Y580620D01*
D02*
G37*
G36*
X358976Y586760D02*
X356964D01*
X355021Y586239D01*
X353279Y585233D01*
X351856Y583811D01*
X350851Y582069D01*
X350330Y580126D01*
Y578114D01*
X350851Y576171D01*
X351856Y574429D01*
X353279Y573007D01*
X355021Y572001D01*
X356964Y571480D01*
X358976D01*
X360919Y572001D01*
X362661Y573007D01*
X364084Y574429D01*
X365089Y576171D01*
X365610Y578114D01*
Y580126D01*
X365089Y582069D01*
X364084Y583811D01*
X362661Y585233D01*
X360919Y586239D01*
X358976Y586760D01*
D02*
G37*
G36*
X268976D02*
X266964D01*
X265021Y586239D01*
X263279Y585233D01*
X261856Y583811D01*
X260851Y582069D01*
X260330Y580126D01*
Y578114D01*
X260851Y576171D01*
X261856Y574429D01*
X263279Y573007D01*
X265021Y572001D01*
X266964Y571480D01*
X268976D01*
X270919Y572001D01*
X272661Y573007D01*
X274083Y574429D01*
X275089Y576171D01*
X275610Y578114D01*
Y580126D01*
X275089Y582069D01*
X274083Y583811D01*
X272661Y585233D01*
X270919Y586239D01*
X268976Y586760D01*
D02*
G37*
G36*
X248486D02*
X246474D01*
X244531Y586239D01*
X242789Y585233D01*
X241367Y583811D01*
X240361Y582069D01*
X239840Y580126D01*
Y578114D01*
X240361Y576171D01*
X241367Y574429D01*
X242789Y573007D01*
X244531Y572001D01*
X246474Y571480D01*
X248486D01*
X250429Y572001D01*
X252171Y573007D01*
X253594Y574429D01*
X254599Y576171D01*
X255120Y578114D01*
Y580126D01*
X254599Y582069D01*
X253594Y583811D01*
X252171Y585233D01*
X250429Y586239D01*
X248486Y586760D01*
D02*
G37*
G36*
X218848Y580110D02*
X218750D01*
Y570990D01*
X227870D01*
Y571088D01*
X227162Y573730D01*
X225794Y576100D01*
X223860Y578034D01*
X221490Y579402D01*
X218848Y580110D01*
D02*
G37*
G36*
X329338D02*
X329240D01*
Y570990D01*
X338360D01*
Y571088D01*
X337652Y573730D01*
X336284Y576100D01*
X334350Y578034D01*
X331980Y579402D01*
X329338Y580110D01*
D02*
G37*
G36*
X326700D02*
X326602D01*
X323960Y579402D01*
X321590Y578034D01*
X319656Y576100D01*
X318288Y573730D01*
X317580Y571088D01*
Y570990D01*
X326700D01*
Y580110D01*
D02*
G37*
G36*
X216210D02*
X216112D01*
X213470Y579402D01*
X211100Y578034D01*
X209166Y576100D01*
X207798Y573730D01*
X207090Y571088D01*
Y570990D01*
X216210D01*
Y580110D01*
D02*
G37*
G36*
X115800Y568960D02*
X106680D01*
Y559840D01*
X106778D01*
X109420Y560548D01*
X111790Y561916D01*
X113724Y563850D01*
X115092Y566220D01*
X115800Y568862D01*
Y568960D01*
D02*
G37*
G36*
X104140D02*
X95020D01*
Y568862D01*
X95728Y566220D01*
X97096Y563850D01*
X99030Y561916D01*
X101400Y560548D01*
X104042Y559840D01*
X104140D01*
Y568960D01*
D02*
G37*
G36*
X76778Y580620D02*
X74042D01*
X71400Y579912D01*
X69030Y578544D01*
X67096Y576610D01*
X65728Y574240D01*
X65020Y571598D01*
Y568862D01*
X65728Y566220D01*
X67096Y563850D01*
X69030Y561916D01*
X71400Y560548D01*
X74042Y559840D01*
X76778D01*
X79420Y560548D01*
X81790Y561916D01*
X83724Y563850D01*
X85092Y566220D01*
X85800Y568862D01*
Y571598D01*
X85092Y574240D01*
X83724Y576610D01*
X81790Y578544D01*
X79420Y579912D01*
X76778Y580620D01*
D02*
G37*
G36*
X338360Y568450D02*
X329240D01*
Y559330D01*
X329338D01*
X331980Y560038D01*
X334350Y561406D01*
X336284Y563340D01*
X337652Y565710D01*
X338360Y568352D01*
Y568450D01*
D02*
G37*
G36*
X326700D02*
X317580D01*
Y568352D01*
X318288Y565710D01*
X319656Y563340D01*
X321590Y561406D01*
X323960Y560038D01*
X326602Y559330D01*
X326700D01*
Y568450D01*
D02*
G37*
G36*
X299338Y580110D02*
X296602D01*
X293960Y579402D01*
X291590Y578034D01*
X289656Y576100D01*
X288288Y573730D01*
X287580Y571088D01*
Y568352D01*
X288288Y565710D01*
X289656Y563340D01*
X291590Y561406D01*
X293960Y560038D01*
X296602Y559330D01*
X299338D01*
X301980Y560038D01*
X304350Y561406D01*
X306284Y563340D01*
X307652Y565710D01*
X308360Y568352D01*
Y571088D01*
X307652Y573730D01*
X306284Y576100D01*
X304350Y578034D01*
X301980Y579402D01*
X299338Y580110D01*
D02*
G37*
G36*
X227870Y568450D02*
X218750D01*
Y559330D01*
X218848D01*
X221490Y560038D01*
X223860Y561406D01*
X225794Y563340D01*
X227162Y565710D01*
X227870Y568352D01*
Y568450D01*
D02*
G37*
G36*
X216210D02*
X207090D01*
Y568352D01*
X207798Y565710D01*
X209166Y563340D01*
X211100Y561406D01*
X213470Y560038D01*
X216112Y559330D01*
X216210D01*
Y568450D01*
D02*
G37*
G36*
X386263Y578730D02*
X383357D01*
X380549Y577978D01*
X378031Y576524D01*
X375976Y574469D01*
X374522Y571951D01*
X373770Y569143D01*
Y566237D01*
X374522Y563429D01*
X375976Y560911D01*
X378031Y558856D01*
X380549Y557402D01*
X383357Y556650D01*
X386263D01*
X389071Y557402D01*
X391589Y558856D01*
X393644Y560911D01*
X395098Y563429D01*
X395850Y566237D01*
Y569143D01*
X395098Y571951D01*
X393644Y574469D01*
X391589Y576524D01*
X389071Y577978D01*
X386263Y578730D01*
D02*
G37*
G36*
X15423D02*
X12517D01*
X9709Y577978D01*
X7191Y576524D01*
X5136Y574469D01*
X3682Y571951D01*
X2930Y569143D01*
Y566237D01*
X3682Y563429D01*
X5136Y560911D01*
X7191Y558856D01*
X9709Y557402D01*
X12517Y556650D01*
X15423D01*
X18231Y557402D01*
X20749Y558856D01*
X22804Y560911D01*
X24258Y563429D01*
X25010Y566237D01*
Y569143D01*
X24258Y571951D01*
X22804Y574469D01*
X20749Y576524D01*
X18231Y577978D01*
X15423Y578730D01*
D02*
G37*
G36*
X386263Y553330D02*
X383357D01*
X380549Y552578D01*
X378031Y551124D01*
X375976Y549069D01*
X374522Y546551D01*
X373770Y543743D01*
Y540837D01*
X374522Y538029D01*
X375976Y535511D01*
X378031Y533456D01*
X380549Y532002D01*
X383357Y531250D01*
X386263D01*
X389071Y532002D01*
X391589Y533456D01*
X393644Y535511D01*
X395098Y538029D01*
X395850Y540837D01*
Y543743D01*
X395098Y546551D01*
X393644Y549069D01*
X391589Y551124D01*
X389071Y552578D01*
X386263Y553330D01*
D02*
G37*
G36*
X15423D02*
X12517D01*
X9709Y552578D01*
X7191Y551124D01*
X5136Y549069D01*
X3682Y546551D01*
X2930Y543743D01*
Y540837D01*
X3682Y538029D01*
X5136Y535511D01*
X7191Y533456D01*
X9709Y532002D01*
X12517Y531250D01*
X15423D01*
X18231Y532002D01*
X20749Y533456D01*
X22804Y535511D01*
X24258Y538029D01*
X25010Y540837D01*
Y543743D01*
X24258Y546551D01*
X22804Y549069D01*
X20749Y551124D01*
X18231Y552578D01*
X15423Y553330D01*
D02*
G37*
G36*
X106778Y550620D02*
X104042D01*
X101400Y549912D01*
X99030Y548544D01*
X97096Y546610D01*
X95728Y544240D01*
X95020Y541598D01*
Y538862D01*
X95728Y536220D01*
X97096Y533850D01*
X99030Y531916D01*
X101400Y530548D01*
X104042Y529840D01*
X106778D01*
X109420Y530548D01*
X111790Y531916D01*
X113724Y533850D01*
X115092Y536220D01*
X115800Y538862D01*
Y541598D01*
X115092Y544240D01*
X113724Y546610D01*
X111790Y548544D01*
X109420Y549912D01*
X106778Y550620D01*
D02*
G37*
G36*
X85800D02*
X65020D01*
Y529840D01*
X85800D01*
Y550620D01*
D02*
G37*
G36*
X329338Y550110D02*
X326602D01*
X323960Y549402D01*
X321590Y548034D01*
X319656Y546100D01*
X318288Y543730D01*
X317580Y541088D01*
Y538352D01*
X318288Y535710D01*
X319656Y533340D01*
X321590Y531406D01*
X323960Y530038D01*
X326602Y529330D01*
X329338D01*
X331980Y530038D01*
X334350Y531406D01*
X336284Y533340D01*
X337652Y535710D01*
X338360Y538352D01*
Y541088D01*
X337652Y543730D01*
X336284Y546100D01*
X334350Y548034D01*
X331980Y549402D01*
X329338Y550110D01*
D02*
G37*
G36*
X308360D02*
X287580D01*
Y529330D01*
X308360D01*
Y550110D01*
D02*
G37*
G36*
X218848D02*
X216112D01*
X213470Y549402D01*
X211100Y548034D01*
X209166Y546100D01*
X207798Y543730D01*
X207090Y541088D01*
Y538352D01*
X207798Y535710D01*
X209166Y533340D01*
X211100Y531406D01*
X213470Y530038D01*
X216112Y529330D01*
X218848D01*
X221490Y530038D01*
X223860Y531406D01*
X225794Y533340D01*
X227162Y535710D01*
X227870Y538352D01*
Y541088D01*
X227162Y543730D01*
X225794Y546100D01*
X223860Y548034D01*
X221490Y549402D01*
X218848Y550110D01*
D02*
G37*
G36*
X197870D02*
X177090D01*
Y529330D01*
X197870D01*
Y550110D01*
D02*
G37*
G36*
X386263Y527930D02*
X383357D01*
X380549Y527178D01*
X378031Y525724D01*
X375976Y523669D01*
X374522Y521151D01*
X373770Y518343D01*
Y515437D01*
X374522Y512629D01*
X375976Y510111D01*
X378031Y508056D01*
X380549Y506602D01*
X383357Y505850D01*
X386263D01*
X389071Y506602D01*
X391589Y508056D01*
X393644Y510111D01*
X395098Y512629D01*
X395850Y515437D01*
Y518343D01*
X395098Y521151D01*
X393644Y523669D01*
X391589Y525724D01*
X389071Y527178D01*
X386263Y527930D01*
D02*
G37*
G36*
X15423D02*
X12517D01*
X9709Y527178D01*
X7191Y525724D01*
X5136Y523669D01*
X3682Y521151D01*
X2930Y518343D01*
Y515437D01*
X3682Y512629D01*
X5136Y510111D01*
X7191Y508056D01*
X9709Y506602D01*
X12517Y505850D01*
X15423D01*
X18231Y506602D01*
X20749Y508056D01*
X22804Y510111D01*
X24258Y512629D01*
X25010Y515437D01*
Y518343D01*
X24258Y521151D01*
X22804Y523669D01*
X20749Y525724D01*
X18231Y527178D01*
X15423Y527930D01*
D02*
G37*
G36*
X386263Y502530D02*
X383357D01*
X380549Y501778D01*
X378031Y500324D01*
X375976Y498269D01*
X374522Y495751D01*
X373770Y492943D01*
Y490037D01*
X374522Y487229D01*
X375976Y484711D01*
X378031Y482656D01*
X380549Y481202D01*
X383357Y480450D01*
X386263D01*
X389071Y481202D01*
X391589Y482656D01*
X393644Y484711D01*
X395098Y487229D01*
X395850Y490037D01*
Y492943D01*
X395098Y495751D01*
X393644Y498269D01*
X391589Y500324D01*
X389071Y501778D01*
X386263Y502530D01*
D02*
G37*
G36*
X15423D02*
X12517D01*
X9709Y501778D01*
X7191Y500324D01*
X5136Y498269D01*
X3682Y495751D01*
X2930Y492943D01*
Y490037D01*
X3682Y487229D01*
X5136Y484711D01*
X7191Y482656D01*
X9709Y481202D01*
X12517Y480450D01*
X15423D01*
X18231Y481202D01*
X20749Y482656D01*
X22804Y484711D01*
X24258Y487229D01*
X25010Y490037D01*
Y492943D01*
X24258Y495751D01*
X22804Y498269D01*
X20749Y500324D01*
X18231Y501778D01*
X15423Y502530D01*
D02*
G37*
G36*
X46726Y477540D02*
X44714D01*
X42771Y477019D01*
X41029Y476013D01*
X39606Y474591D01*
X38601Y472849D01*
X38080Y470906D01*
Y468894D01*
X38601Y466951D01*
X39606Y465209D01*
X41029Y463787D01*
X42771Y462781D01*
X44714Y462260D01*
X46726D01*
X48669Y462781D01*
X50411Y463787D01*
X51834Y465209D01*
X52839Y466951D01*
X53360Y468894D01*
Y470906D01*
X52839Y472849D01*
X51834Y474591D01*
X50411Y476013D01*
X48669Y477019D01*
X46726Y477540D01*
D02*
G37*
G36*
X107088Y470890D02*
X106990D01*
Y461770D01*
X116110D01*
Y461868D01*
X115402Y464510D01*
X114034Y466880D01*
X112100Y468814D01*
X109730Y470182D01*
X107088Y470890D01*
D02*
G37*
G36*
X104450D02*
X104352D01*
X101710Y470182D01*
X99340Y468814D01*
X97406Y466880D01*
X96038Y464510D01*
X95330Y461868D01*
Y461770D01*
X104450D01*
Y470890D01*
D02*
G37*
G36*
X247696Y476780D02*
X245684D01*
X243741Y476259D01*
X241999Y475253D01*
X240576Y473831D01*
X239571Y472089D01*
X239050Y470146D01*
Y468134D01*
X239571Y466191D01*
X240576Y464449D01*
X241999Y463027D01*
X243741Y462021D01*
X245684Y461500D01*
X247696D01*
X249639Y462021D01*
X251381Y463027D01*
X252803Y464449D01*
X253809Y466191D01*
X254330Y468134D01*
Y470146D01*
X253809Y472089D01*
X252803Y473831D01*
X251381Y475253D01*
X249639Y476259D01*
X247696Y476780D01*
D02*
G37*
G36*
X218058Y470130D02*
X217960D01*
Y461010D01*
X227080D01*
Y461108D01*
X226372Y463750D01*
X225004Y466120D01*
X223070Y468054D01*
X220700Y469422D01*
X218058Y470130D01*
D02*
G37*
G36*
X215420D02*
X215322D01*
X212680Y469422D01*
X210310Y468054D01*
X208376Y466120D01*
X207008Y463750D01*
X206300Y461108D01*
Y461010D01*
X215420D01*
Y470130D01*
D02*
G37*
G36*
X358976Y476270D02*
X356964D01*
X355021Y475749D01*
X353279Y474743D01*
X351856Y473321D01*
X350851Y471579D01*
X350330Y469636D01*
Y467624D01*
X350851Y465681D01*
X351856Y463939D01*
X353279Y462517D01*
X355021Y461511D01*
X356964Y460990D01*
X358976D01*
X360919Y461511D01*
X362661Y462517D01*
X364084Y463939D01*
X365089Y465681D01*
X365610Y467624D01*
Y469636D01*
X365089Y471579D01*
X364084Y473321D01*
X362661Y474743D01*
X360919Y475749D01*
X358976Y476270D01*
D02*
G37*
G36*
X268976D02*
X266964D01*
X265021Y475749D01*
X263279Y474743D01*
X261856Y473321D01*
X260851Y471579D01*
X260330Y469636D01*
Y467624D01*
X260851Y465681D01*
X261856Y463939D01*
X263279Y462517D01*
X265021Y461511D01*
X266964Y460990D01*
X268976D01*
X270919Y461511D01*
X272661Y462517D01*
X274083Y463939D01*
X275089Y465681D01*
X275610Y467624D01*
Y469636D01*
X275089Y471579D01*
X274083Y473321D01*
X272661Y474743D01*
X270919Y475749D01*
X268976Y476270D01*
D02*
G37*
G36*
X329338Y469620D02*
X329240D01*
Y460500D01*
X338360D01*
Y460598D01*
X337652Y463240D01*
X336284Y465610D01*
X334350Y467544D01*
X331980Y468912D01*
X329338Y469620D01*
D02*
G37*
G36*
X326700D02*
X326602D01*
X323960Y468912D01*
X321590Y467544D01*
X319656Y465610D01*
X318288Y463240D01*
X317580Y460598D01*
Y460500D01*
X326700D01*
Y469620D01*
D02*
G37*
G36*
X386263Y477130D02*
X383357D01*
X380549Y476378D01*
X378031Y474924D01*
X375976Y472869D01*
X374522Y470351D01*
X373770Y467543D01*
Y464637D01*
X374522Y461829D01*
X375976Y459311D01*
X378031Y457256D01*
X380549Y455802D01*
X383357Y455050D01*
X386263D01*
X389071Y455802D01*
X391589Y457256D01*
X393644Y459311D01*
X395098Y461829D01*
X395850Y464637D01*
Y467543D01*
X395098Y470351D01*
X393644Y472869D01*
X391589Y474924D01*
X389071Y476378D01*
X386263Y477130D01*
D02*
G37*
G36*
X116110Y459230D02*
X106990D01*
Y450110D01*
X107088D01*
X109730Y450818D01*
X112100Y452186D01*
X114034Y454120D01*
X115402Y456490D01*
X116110Y459132D01*
Y459230D01*
D02*
G37*
G36*
X104450D02*
X95330D01*
Y459132D01*
X96038Y456490D01*
X97406Y454120D01*
X99340Y452186D01*
X101710Y450818D01*
X104352Y450110D01*
X104450D01*
Y459230D01*
D02*
G37*
G36*
X77088Y470890D02*
X74352D01*
X71710Y470182D01*
X69340Y468814D01*
X67406Y466880D01*
X66038Y464510D01*
X65330Y461868D01*
Y459132D01*
X66038Y456490D01*
X67406Y454120D01*
X69340Y452186D01*
X71710Y450818D01*
X74352Y450110D01*
X77088D01*
X79730Y450818D01*
X82100Y452186D01*
X84034Y454120D01*
X85402Y456490D01*
X86110Y459132D01*
Y461868D01*
X85402Y464510D01*
X84034Y466880D01*
X82100Y468814D01*
X79730Y470182D01*
X77088Y470890D01*
D02*
G37*
G36*
X227080Y458470D02*
X217960D01*
Y449350D01*
X218058D01*
X220700Y450058D01*
X223070Y451426D01*
X225004Y453360D01*
X226372Y455730D01*
X227080Y458372D01*
Y458470D01*
D02*
G37*
G36*
X215420D02*
X206300D01*
Y458372D01*
X207008Y455730D01*
X208376Y453360D01*
X210310Y451426D01*
X212680Y450058D01*
X215322Y449350D01*
X215420D01*
Y458470D01*
D02*
G37*
G36*
X188058Y470130D02*
X185322D01*
X182680Y469422D01*
X180310Y468054D01*
X178376Y466120D01*
X177008Y463750D01*
X176300Y461108D01*
Y458372D01*
X177008Y455730D01*
X178376Y453360D01*
X180310Y451426D01*
X182680Y450058D01*
X185322Y449350D01*
X188058D01*
X190700Y450058D01*
X193070Y451426D01*
X195004Y453360D01*
X196372Y455730D01*
X197080Y458372D01*
Y461108D01*
X196372Y463750D01*
X195004Y466120D01*
X193070Y468054D01*
X190700Y469422D01*
X188058Y470130D01*
D02*
G37*
G36*
X338360Y457960D02*
X329240D01*
Y448840D01*
X329338D01*
X331980Y449548D01*
X334350Y450916D01*
X336284Y452850D01*
X337652Y455220D01*
X338360Y457862D01*
Y457960D01*
D02*
G37*
G36*
X326700D02*
X317580D01*
Y457862D01*
X318288Y455220D01*
X319656Y452850D01*
X321590Y450916D01*
X323960Y449548D01*
X326602Y448840D01*
X326700D01*
Y457960D01*
D02*
G37*
G36*
X299338Y469620D02*
X296602D01*
X293960Y468912D01*
X291590Y467544D01*
X289656Y465610D01*
X288288Y463240D01*
X287580Y460598D01*
Y457862D01*
X288288Y455220D01*
X289656Y452850D01*
X291590Y450916D01*
X293960Y449548D01*
X296602Y448840D01*
X299338D01*
X301980Y449548D01*
X304350Y450916D01*
X306284Y452850D01*
X307652Y455220D01*
X308360Y457862D01*
Y460598D01*
X307652Y463240D01*
X306284Y465610D01*
X304350Y467544D01*
X301980Y468912D01*
X299338Y469620D01*
D02*
G37*
G36*
X15423Y477130D02*
X12517D01*
X9709Y476378D01*
X7191Y474924D01*
X5136Y472869D01*
X3682Y470351D01*
X2930Y467543D01*
Y464637D01*
X3682Y461829D01*
X5136Y459311D01*
X7191Y457256D01*
X9709Y455802D01*
X12517Y455050D01*
X15423D01*
X18231Y455802D01*
X20749Y457256D01*
X22804Y459311D01*
X23510Y460534D01*
X25121D01*
Y445996D01*
X23851Y445656D01*
X22804Y447469D01*
X20749Y449524D01*
X18231Y450978D01*
X15423Y451730D01*
X12517D01*
X9709Y450978D01*
X7191Y449524D01*
X5136Y447469D01*
X3682Y444951D01*
X2930Y442143D01*
Y439237D01*
X3682Y436429D01*
X5136Y433911D01*
X7191Y431856D01*
X9709Y430402D01*
X12517Y429650D01*
X15423D01*
X18231Y430402D01*
X20749Y431856D01*
X22804Y433911D01*
X23851Y435724D01*
X25121Y435384D01*
Y420596D01*
X23851Y420256D01*
X22804Y422069D01*
X20749Y424124D01*
X18231Y425578D01*
X15423Y426330D01*
X12517D01*
X9709Y425578D01*
X7191Y424124D01*
X5136Y422069D01*
X3682Y419551D01*
X2930Y416743D01*
Y413837D01*
X3682Y411029D01*
X5136Y408511D01*
X7191Y406456D01*
X9709Y405002D01*
X12517Y404250D01*
X15423D01*
X18231Y405002D01*
X20749Y406456D01*
X22804Y408511D01*
X23851Y410325D01*
X25121Y409984D01*
Y395196D01*
X23851Y394855D01*
X22804Y396669D01*
X20749Y398724D01*
X18231Y400178D01*
X15423Y400930D01*
X12517D01*
X9709Y400178D01*
X7191Y398724D01*
X5136Y396669D01*
X3682Y394151D01*
X2930Y391343D01*
Y388437D01*
X3682Y385629D01*
X5136Y383111D01*
X7191Y381056D01*
X9709Y379602D01*
X12517Y378850D01*
X15423D01*
X18231Y379602D01*
X20749Y381056D01*
X22804Y383111D01*
X23851Y384925D01*
X25121Y384584D01*
Y369796D01*
X23851Y369455D01*
X22804Y371269D01*
X20749Y373324D01*
X18231Y374778D01*
X15423Y375530D01*
X12517D01*
X9709Y374778D01*
X7191Y373324D01*
X5136Y371269D01*
X3682Y368751D01*
X2930Y365943D01*
Y363037D01*
X3682Y360229D01*
X5136Y357711D01*
X7191Y355656D01*
X9709Y354202D01*
X12517Y353450D01*
X15423D01*
X18231Y354202D01*
X20749Y355656D01*
X22804Y357711D01*
X23851Y359524D01*
X25121Y359184D01*
Y344396D01*
X23851Y344055D01*
X22804Y345869D01*
X20749Y347924D01*
X18231Y349378D01*
X15423Y350130D01*
X12517D01*
X9709Y349378D01*
X7191Y347924D01*
X5136Y345869D01*
X3682Y343351D01*
X2930Y340543D01*
Y337637D01*
X3682Y334829D01*
X5136Y332311D01*
X7191Y330256D01*
X9709Y328802D01*
X12517Y328050D01*
X15423D01*
X18231Y328802D01*
X20749Y330256D01*
X22804Y332311D01*
X23851Y334124D01*
X25121Y333784D01*
Y318996D01*
X23851Y318655D01*
X22804Y320469D01*
X20749Y322524D01*
X18231Y323978D01*
X15423Y324730D01*
X12517D01*
X9709Y323978D01*
X7191Y322524D01*
X5136Y320469D01*
X3682Y317951D01*
X2930Y315143D01*
Y312237D01*
X3682Y309429D01*
X5136Y306911D01*
X7191Y304856D01*
X9709Y303402D01*
X12517Y302650D01*
X15423D01*
X18231Y303402D01*
X20749Y304856D01*
X22804Y306911D01*
X23851Y308724D01*
X25121Y308384D01*
Y293596D01*
X23851Y293256D01*
X22804Y295069D01*
X20749Y297124D01*
X18231Y298578D01*
X15423Y299330D01*
X12517D01*
X9709Y298578D01*
X7191Y297124D01*
X5136Y295069D01*
X3682Y292551D01*
X2930Y289743D01*
Y286837D01*
X3682Y284029D01*
X5136Y281511D01*
X7191Y279456D01*
X9709Y278002D01*
X12517Y277250D01*
X15423D01*
X18231Y278002D01*
X20749Y279456D01*
X22804Y281511D01*
X23851Y283325D01*
X25121Y282984D01*
Y268196D01*
X23851Y267855D01*
X22804Y269669D01*
X20749Y271724D01*
X18231Y273178D01*
X15423Y273930D01*
X12517D01*
X9709Y273178D01*
X7191Y271724D01*
X5136Y269669D01*
X3682Y267151D01*
X2930Y264343D01*
Y261437D01*
X3682Y258629D01*
X5136Y256111D01*
X7191Y254056D01*
X9709Y252602D01*
X12517Y251850D01*
X15423D01*
X18231Y252602D01*
X20749Y254056D01*
X22804Y256111D01*
X23851Y257924D01*
X25121Y257584D01*
Y242796D01*
X23851Y242456D01*
X22804Y244269D01*
X20749Y246324D01*
X18231Y247778D01*
X15423Y248530D01*
X12517D01*
X9709Y247778D01*
X7191Y246324D01*
X5136Y244269D01*
X3682Y241751D01*
X2930Y238943D01*
Y236037D01*
X3682Y233229D01*
X5136Y230711D01*
X7191Y228656D01*
X9709Y227202D01*
X12517Y226450D01*
X15423D01*
X18231Y227202D01*
X20749Y228656D01*
X22804Y230711D01*
X23851Y232525D01*
X25121Y232184D01*
Y217396D01*
X23851Y217055D01*
X22804Y218869D01*
X20749Y220924D01*
X18231Y222378D01*
X15423Y223130D01*
X12517D01*
X9709Y222378D01*
X7191Y220924D01*
X5136Y218869D01*
X3682Y216351D01*
X2930Y213543D01*
Y210637D01*
X3682Y207829D01*
X5136Y205311D01*
X7191Y203256D01*
X9709Y201802D01*
X12517Y201050D01*
X15423D01*
X18231Y201802D01*
X20749Y203256D01*
X22804Y205311D01*
X23851Y207125D01*
X25121Y206784D01*
Y191996D01*
X23851Y191656D01*
X22804Y193469D01*
X20749Y195524D01*
X18231Y196978D01*
X15423Y197730D01*
X12517D01*
X9709Y196978D01*
X7191Y195524D01*
X5136Y193469D01*
X3682Y190951D01*
X2930Y188143D01*
Y185237D01*
X3682Y182429D01*
X5136Y179911D01*
X7191Y177856D01*
X9709Y176402D01*
X12517Y175650D01*
X15423D01*
X18231Y176402D01*
X20749Y177856D01*
X22804Y179911D01*
X23851Y181724D01*
X25121Y181384D01*
Y166596D01*
X23851Y166255D01*
X22804Y168069D01*
X20749Y170124D01*
X18231Y171578D01*
X15423Y172330D01*
X12517D01*
X9709Y171578D01*
X7191Y170124D01*
X5136Y168069D01*
X3682Y165551D01*
X2930Y162743D01*
Y159837D01*
X3682Y157029D01*
X5136Y154511D01*
X7191Y152456D01*
X9709Y151002D01*
X12517Y150250D01*
X15423D01*
X18231Y151002D01*
X20749Y152456D01*
X22804Y154511D01*
X23851Y156325D01*
X25121Y155984D01*
Y148154D01*
X25010Y146930D01*
X23851Y146930D01*
X2930D01*
Y124850D01*
X24245D01*
X25138Y124733D01*
X25930Y124005D01*
X26477Y123187D01*
X75467Y74197D01*
X75467Y74197D01*
X76969Y73193D01*
X78740Y72841D01*
X112810D01*
X112810Y72841D01*
X114581Y73193D01*
X116083Y74197D01*
X121637Y79750D01*
X122810Y79264D01*
Y60580D01*
X143890D01*
Y81660D01*
X126410D01*
X125737Y82930D01*
X125934Y83221D01*
X145027D01*
X145506Y82391D01*
X147161Y80736D01*
X149189Y79566D01*
X150218Y79290D01*
X150598Y77874D01*
X150316Y77592D01*
X148928Y75188D01*
X148210Y72508D01*
Y69732D01*
X148928Y67052D01*
X150316Y64648D01*
X152278Y62686D01*
X154682Y61298D01*
X157362Y60580D01*
X160138D01*
X162818Y61298D01*
X165222Y62686D01*
X167184Y64648D01*
X168572Y67052D01*
X169290Y69732D01*
Y72508D01*
X168572Y75188D01*
X167184Y77592D01*
X165222Y79554D01*
X162818Y80942D01*
X160645Y81524D01*
X160515Y81648D01*
X160066Y82640D01*
X160045Y82930D01*
X160904Y84419D01*
X161510Y86680D01*
Y89020D01*
X160904Y91281D01*
X159734Y93309D01*
X158079Y94964D01*
X156051Y96134D01*
X153790Y96740D01*
X151450D01*
X149189Y96134D01*
X147161Y94964D01*
X145506Y93309D01*
X145027Y92479D01*
X124648D01*
X124027Y93587D01*
X125508Y96003D01*
X127227Y100153D01*
X128276Y104522D01*
X128628Y109000D01*
Y111000D01*
X128276Y115478D01*
X127227Y119847D01*
X125508Y123997D01*
X123161Y127827D01*
X120243Y131243D01*
X116827Y134161D01*
X112997Y136508D01*
X108847Y138227D01*
X104479Y139276D01*
X100000Y139628D01*
X95522Y139276D01*
X91153Y138227D01*
X87003Y136508D01*
X83173Y134161D01*
X79757Y131243D01*
X76839Y127827D01*
X74492Y123997D01*
X73597Y121837D01*
X73050Y121920D01*
X64770D01*
Y114327D01*
X66931Y114906D01*
X68959Y116076D01*
X70614Y117731D01*
X71205Y118755D01*
X72397Y118279D01*
X71724Y115478D01*
X71372Y111000D01*
Y109000D01*
X71724Y104522D01*
X72773Y100153D01*
X74492Y96003D01*
X76839Y92173D01*
X79757Y88757D01*
X83173Y85839D01*
X87003Y83492D01*
X87359Y83345D01*
X87111Y82099D01*
X80657D01*
X34379Y128377D01*
Y215500D01*
X35649Y215668D01*
X36166Y213739D01*
X37336Y211711D01*
X38991Y210056D01*
X39821Y209577D01*
Y198575D01*
X39821Y198575D01*
X40173Y196803D01*
X41177Y195301D01*
X50521Y185957D01*
X50521Y185957D01*
X52023Y184953D01*
X53795Y184601D01*
X53795Y184601D01*
X110722D01*
X110722Y184601D01*
X112494Y184953D01*
X113995Y185957D01*
X116339Y188300D01*
X116339Y188300D01*
X117342Y189802D01*
X117694Y191573D01*
Y193357D01*
X118964Y193906D01*
X120611Y192956D01*
X122872Y192350D01*
X125212D01*
X126138Y192598D01*
X161449Y157287D01*
X161449Y157287D01*
X162951Y156283D01*
X164722Y155931D01*
X164722Y155931D01*
X183825D01*
X184165Y154661D01*
X183771Y154434D01*
X182116Y152779D01*
X180946Y150751D01*
X180340Y148490D01*
Y146150D01*
X180946Y143889D01*
X181215Y143422D01*
X180602Y141943D01*
X179449Y141634D01*
X177421Y140464D01*
X175766Y138809D01*
X174596Y136781D01*
X173990Y134520D01*
Y132180D01*
X174596Y129919D01*
X175766Y127891D01*
X177421Y126236D01*
X179449Y125066D01*
X181710Y124460D01*
X184050D01*
X185420Y124827D01*
X186690Y123877D01*
Y123290D01*
X187296Y121029D01*
X188466Y119001D01*
X190121Y117346D01*
X192149Y116176D01*
X194310Y115597D01*
Y124460D01*
Y133323D01*
X193040Y132983D01*
X191770Y133933D01*
Y134520D01*
X191164Y136781D01*
X190895Y137248D01*
X191508Y138727D01*
X192661Y139036D01*
X194689Y140206D01*
X196344Y141861D01*
X197514Y143889D01*
X197980Y145628D01*
X199311Y146094D01*
X202176Y143228D01*
Y136095D01*
X202176Y136095D01*
X202529Y134323D01*
X203532Y132822D01*
X214630Y121724D01*
Y120195D01*
X215236Y117934D01*
X216406Y115907D01*
X218061Y114252D01*
X220089Y113081D01*
X222350Y112475D01*
X224690D01*
X226951Y113081D01*
X228979Y114252D01*
X230634Y115907D01*
X231804Y117934D01*
X232256Y119621D01*
X233526Y119454D01*
Y115612D01*
X206203Y88289D01*
X204356D01*
X204356Y88289D01*
X202584Y87937D01*
X201083Y86933D01*
X193577Y79427D01*
X193163Y78809D01*
X191528Y78647D01*
X190622Y79554D01*
X188218Y80942D01*
X185538Y81660D01*
X182762D01*
X180082Y80942D01*
X177678Y79554D01*
X175716Y77592D01*
X174328Y75188D01*
X173610Y72508D01*
Y69732D01*
X174328Y67052D01*
X175716Y64648D01*
X177678Y62686D01*
X180082Y61298D01*
X182762Y60580D01*
X183139D01*
X183625Y59407D01*
X179647Y55429D01*
X166370D01*
X166370Y55429D01*
X164599Y55077D01*
X163097Y54073D01*
X163097Y54073D01*
X145275Y36251D01*
X143562Y36710D01*
X140918D01*
X138365Y36026D01*
X136075Y34704D01*
X134206Y32835D01*
X132884Y30545D01*
X132200Y27992D01*
Y25348D01*
X132884Y22795D01*
X134206Y20505D01*
X136075Y18636D01*
X138365Y17314D01*
X140918Y16630D01*
X143562D01*
X146115Y17314D01*
X148405Y18636D01*
X150274Y20505D01*
X151596Y22795D01*
X152280Y25348D01*
Y27992D01*
X151821Y29705D01*
X168287Y46171D01*
X181564D01*
X181564Y46171D01*
X183336Y46523D01*
X184837Y47527D01*
X200123Y62813D01*
X200537Y63431D01*
X202172Y63593D01*
X203078Y62686D01*
X205482Y61298D01*
X208162Y60580D01*
X208280D01*
Y71120D01*
X209550D01*
Y72390D01*
X220090D01*
Y72508D01*
X219488Y74753D01*
X220542Y75400D01*
X220623Y75423D01*
X222629Y74266D01*
X224890Y73660D01*
X227230D01*
X229491Y74266D01*
X231519Y75436D01*
X233174Y77091D01*
X234344Y79119D01*
X234345Y79123D01*
X235762Y79503D01*
X236795Y78470D01*
X238822Y77299D01*
X239211Y77195D01*
Y36710D01*
X233800D01*
Y16630D01*
X253880D01*
Y36710D01*
X248469D01*
Y54230D01*
X267080D01*
Y75310D01*
X248469D01*
Y79226D01*
X249368Y80125D01*
X250538Y82152D01*
X251144Y84413D01*
Y86754D01*
X250538Y89015D01*
X249368Y91042D01*
X247712Y92697D01*
X245685Y93868D01*
X243424Y94473D01*
X241083D01*
X238822Y93868D01*
X236795Y92697D01*
X235140Y91042D01*
X233970Y89015D01*
X233968Y89010D01*
X232552Y88631D01*
X231519Y89664D01*
X229491Y90834D01*
X227230Y91440D01*
X224890D01*
X224006Y91203D01*
X223348Y92342D01*
X241428Y110422D01*
X241428Y110422D01*
X242432Y111924D01*
X242784Y113695D01*
X242784Y113695D01*
Y219045D01*
X242432Y220816D01*
X241428Y222318D01*
X241428Y222318D01*
X229622Y234124D01*
X229870Y235050D01*
Y237390D01*
X229264Y239651D01*
X228094Y241679D01*
X226439Y243334D01*
X224411Y244504D01*
X222543Y245005D01*
X222131Y246004D01*
X222122Y246380D01*
X223014Y247271D01*
X224184Y249299D01*
X224790Y251560D01*
Y253900D01*
X224184Y256161D01*
X223014Y258189D01*
X221359Y259844D01*
X219331Y261014D01*
X217070Y261620D01*
X214730D01*
X213804Y261372D01*
X210369Y264807D01*
Y278157D01*
X211199Y278636D01*
X212854Y280291D01*
X214024Y282319D01*
X214630Y284580D01*
Y286920D01*
X214024Y289181D01*
X212854Y291209D01*
X211199Y292864D01*
X209171Y294034D01*
X206910Y294640D01*
X204570D01*
X202309Y294034D01*
X200281Y292864D01*
X198626Y291209D01*
X197456Y289181D01*
X196850Y286920D01*
Y284580D01*
X197456Y282319D01*
X198626Y280291D01*
X200281Y278636D01*
X201111Y278157D01*
Y266214D01*
X199938Y265728D01*
X192589Y273077D01*
Y342900D01*
X192237Y344671D01*
X191233Y346173D01*
X191233Y346173D01*
X164989Y372417D01*
X165764Y373759D01*
X166370Y376020D01*
Y378360D01*
X165764Y380621D01*
X164594Y382649D01*
X162939Y384304D01*
X160911Y385474D01*
X158650Y386080D01*
X156310D01*
X154049Y385474D01*
X152021Y384304D01*
X150366Y382649D01*
X149196Y380621D01*
X148590Y378360D01*
Y376020D01*
X149196Y373759D01*
X150366Y371731D01*
X152021Y370076D01*
X154049Y368906D01*
X156310Y368300D01*
X156352D01*
X157035Y367279D01*
X183331Y340983D01*
Y273750D01*
X182158Y273264D01*
X141374Y314048D01*
X139873Y315051D01*
X138101Y315403D01*
X138101Y315403D01*
X120853D01*
X118297Y317959D01*
X118820Y319912D01*
Y322648D01*
X118112Y325290D01*
X116744Y327660D01*
X114810Y329594D01*
X112440Y330962D01*
X109798Y331670D01*
X107062D01*
X104420Y330962D01*
X102050Y329594D01*
X100116Y327660D01*
X98748Y325290D01*
X98609Y324771D01*
X97339Y324939D01*
Y347621D01*
X98609Y347789D01*
X98748Y347270D01*
X100116Y344900D01*
X102050Y342966D01*
X104420Y341598D01*
X107062Y340890D01*
X107160D01*
Y351280D01*
X108430D01*
Y352550D01*
X118820D01*
Y352648D01*
X118112Y355290D01*
X116744Y357660D01*
X114810Y359594D01*
X112440Y360962D01*
X109798Y361670D01*
X109504D01*
X109018Y362843D01*
X145405Y399231D01*
X213360D01*
X213360Y399231D01*
X215131Y399583D01*
X216633Y400587D01*
X241744Y425698D01*
X242670Y425450D01*
X245010D01*
X247271Y426056D01*
X249299Y427226D01*
X250954Y428881D01*
X252124Y430909D01*
X252730Y433170D01*
Y435510D01*
X252124Y437771D01*
X250954Y439799D01*
X249299Y441454D01*
X247271Y442624D01*
X245010Y443230D01*
X242670D01*
X240409Y442624D01*
X238381Y441454D01*
X236726Y439799D01*
X235556Y437771D01*
X234950Y435510D01*
Y433170D01*
X235198Y432244D01*
X226684Y423731D01*
X225668Y424510D01*
X226372Y425730D01*
X227080Y428372D01*
Y431108D01*
X226372Y433750D01*
X225004Y436120D01*
X223070Y438054D01*
X220700Y439422D01*
X218058Y440130D01*
X215322D01*
X212680Y439422D01*
X210310Y438054D01*
X208376Y436120D01*
X207008Y433750D01*
X206300Y431108D01*
Y428372D01*
X207008Y425730D01*
X208376Y423360D01*
X210310Y421426D01*
X212680Y420058D01*
X215322Y419350D01*
X218058D01*
X220700Y420058D01*
X221920Y420762D01*
X222700Y419746D01*
X211443Y408489D01*
X143488D01*
X143488Y408489D01*
X141716Y408137D01*
X140215Y407133D01*
X140215Y407133D01*
X89437Y356355D01*
X89183Y355975D01*
X87688Y356024D01*
X86744Y357660D01*
X84810Y359594D01*
X82440Y360962D01*
X79798Y361670D01*
X77062D01*
X74420Y360962D01*
X72050Y359594D01*
X70116Y357660D01*
X68748Y355290D01*
X68040Y352648D01*
Y349912D01*
X68748Y347270D01*
X70116Y344900D01*
X72050Y342966D01*
X74420Y341598D01*
X77062Y340890D01*
X79798D01*
X82440Y341598D01*
X84810Y342966D01*
X86744Y344900D01*
X86854Y345091D01*
X88081Y344763D01*
Y331670D01*
X68040D01*
Y310890D01*
X88081D01*
Y292100D01*
X88081Y292100D01*
X88433Y290329D01*
X89437Y288827D01*
X119917Y258347D01*
X119917Y258347D01*
X121419Y257343D01*
X123190Y256991D01*
X128459D01*
X128944Y255821D01*
X128935Y255807D01*
X128776Y255649D01*
X128387Y254974D01*
X128285Y254819D01*
X79387D01*
X49282Y284924D01*
X49530Y285850D01*
Y288190D01*
X48924Y290451D01*
X47754Y292479D01*
X46099Y294134D01*
X44071Y295304D01*
X41810Y295910D01*
X39470D01*
X37209Y295304D01*
X35649Y294404D01*
X34379Y295015D01*
Y462820D01*
X34027Y464591D01*
X33023Y466093D01*
X33023Y466093D01*
X30680Y468436D01*
X29178Y469440D01*
X27407Y469792D01*
X27407Y469792D01*
X24407D01*
X24258Y470351D01*
X22804Y472869D01*
X20749Y474924D01*
X18231Y476378D01*
X15423Y477130D01*
D02*
G37*
G36*
X153570Y448310D02*
X151230D01*
X148969Y447704D01*
X146941Y446534D01*
X145286Y444879D01*
X144116Y442851D01*
X143510Y440590D01*
Y438250D01*
X144116Y435989D01*
X145286Y433961D01*
X146941Y432306D01*
X148969Y431136D01*
X151230Y430530D01*
X153570D01*
X155831Y431136D01*
X157859Y432306D01*
X159514Y433961D01*
X160684Y435989D01*
X161290Y438250D01*
Y440590D01*
X160684Y442851D01*
X159514Y444879D01*
X157859Y446534D01*
X155831Y447704D01*
X153570Y448310D01*
D02*
G37*
G36*
X386263Y451730D02*
X383357D01*
X380549Y450978D01*
X378031Y449524D01*
X375976Y447469D01*
X374522Y444951D01*
X373770Y442143D01*
Y439237D01*
X374522Y436429D01*
X375976Y433911D01*
X378031Y431856D01*
X380549Y430402D01*
X383357Y429650D01*
X386263D01*
X389071Y430402D01*
X391589Y431856D01*
X393644Y433911D01*
X395098Y436429D01*
X395850Y439237D01*
Y442143D01*
X395098Y444951D01*
X393644Y447469D01*
X391589Y449524D01*
X389071Y450978D01*
X386263Y451730D01*
D02*
G37*
G36*
X107088Y440890D02*
X104352D01*
X101710Y440182D01*
X99340Y438814D01*
X97406Y436880D01*
X96038Y434510D01*
X95330Y431868D01*
Y429132D01*
X96038Y426490D01*
X97406Y424120D01*
X99340Y422186D01*
X101710Y420818D01*
X104352Y420110D01*
X107088D01*
X109730Y420818D01*
X112100Y422186D01*
X114034Y424120D01*
X115402Y426490D01*
X116110Y429132D01*
Y431868D01*
X115402Y434510D01*
X114034Y436880D01*
X112100Y438814D01*
X109730Y440182D01*
X107088Y440890D01*
D02*
G37*
G36*
X86110D02*
X65330D01*
Y420110D01*
X86110D01*
Y440890D01*
D02*
G37*
G36*
X197080Y440130D02*
X176300D01*
Y419350D01*
X197080D01*
Y440130D01*
D02*
G37*
G36*
X329338Y439620D02*
X326602D01*
X323960Y438912D01*
X321590Y437544D01*
X319656Y435610D01*
X318288Y433240D01*
X317580Y430598D01*
Y427862D01*
X318288Y425220D01*
X319656Y422850D01*
X321590Y420916D01*
X323960Y419548D01*
X326602Y418840D01*
X329338D01*
X331980Y419548D01*
X334350Y420916D01*
X336284Y422850D01*
X337652Y425220D01*
X338360Y427862D01*
Y430598D01*
X337652Y433240D01*
X336284Y435610D01*
X334350Y437544D01*
X331980Y438912D01*
X329338Y439620D01*
D02*
G37*
G36*
X308360D02*
X287580D01*
Y418840D01*
X308360D01*
Y439620D01*
D02*
G37*
G36*
X386263Y426330D02*
X383357D01*
X380549Y425578D01*
X378031Y424124D01*
X375976Y422069D01*
X374522Y419551D01*
X373770Y416743D01*
Y413837D01*
X374522Y411029D01*
X375976Y408511D01*
X378031Y406456D01*
X380549Y405002D01*
X383357Y404250D01*
X386263D01*
X389071Y405002D01*
X391589Y406456D01*
X393644Y408511D01*
X395098Y411029D01*
X395850Y413837D01*
Y416743D01*
X395098Y419551D01*
X393644Y422069D01*
X391589Y424124D01*
X389071Y425578D01*
X386263Y426330D01*
D02*
G37*
G36*
Y400930D02*
X383357D01*
X380549Y400178D01*
X378031Y398724D01*
X375976Y396669D01*
X374522Y394151D01*
X373770Y391343D01*
Y388437D01*
X374522Y385629D01*
X375976Y383111D01*
X378031Y381056D01*
X380549Y379602D01*
X383357Y378850D01*
X386263D01*
X389071Y379602D01*
X391589Y381056D01*
X393644Y383111D01*
X395098Y385629D01*
X395850Y388437D01*
Y391343D01*
X395098Y394151D01*
X393644Y396669D01*
X391589Y398724D01*
X389071Y400178D01*
X386263Y400930D01*
D02*
G37*
G36*
Y375530D02*
X383357D01*
X380549Y374778D01*
X378031Y373324D01*
X375976Y371269D01*
X374522Y368751D01*
X373770Y365943D01*
Y363037D01*
X374522Y360229D01*
X375976Y357711D01*
X378031Y355656D01*
X380549Y354202D01*
X383357Y353450D01*
X386263D01*
X389071Y354202D01*
X391589Y355656D01*
X393644Y357711D01*
X395098Y360229D01*
X395850Y363037D01*
Y365943D01*
X395098Y368751D01*
X393644Y371269D01*
X391589Y373324D01*
X389071Y374778D01*
X386263Y375530D01*
D02*
G37*
G36*
X139436Y368320D02*
X137424D01*
X135481Y367799D01*
X133739Y366794D01*
X132317Y365371D01*
X131311Y363629D01*
X130790Y361686D01*
Y359674D01*
X131311Y357731D01*
X132317Y355989D01*
X133739Y354566D01*
X135481Y353561D01*
X137424Y353040D01*
X139436D01*
X141379Y353561D01*
X143121Y354566D01*
X144544Y355989D01*
X145549Y357731D01*
X146070Y359674D01*
Y361686D01*
X145549Y363629D01*
X144544Y365371D01*
X143121Y366794D01*
X141379Y367799D01*
X139436Y368320D01*
D02*
G37*
G36*
X49436D02*
X47424D01*
X45481Y367799D01*
X43739Y366794D01*
X42316Y365371D01*
X41311Y363629D01*
X40790Y361686D01*
Y359674D01*
X41311Y357731D01*
X42316Y355989D01*
X43739Y354566D01*
X45481Y353561D01*
X47424Y353040D01*
X49436D01*
X51379Y353561D01*
X53121Y354566D01*
X54543Y355989D01*
X55549Y357731D01*
X56070Y359674D01*
Y361686D01*
X55549Y363629D01*
X54543Y365371D01*
X53121Y366794D01*
X51379Y367799D01*
X49436Y368320D01*
D02*
G37*
G36*
X358186Y366290D02*
X356174D01*
X354231Y365769D01*
X352489Y364763D01*
X351067Y363341D01*
X350061Y361599D01*
X349540Y359656D01*
Y357644D01*
X350061Y355701D01*
X351067Y353959D01*
X352489Y352537D01*
X354231Y351531D01*
X356174Y351010D01*
X358186D01*
X360129Y351531D01*
X361871Y352537D01*
X363293Y353959D01*
X364299Y355701D01*
X364820Y357644D01*
Y359656D01*
X364299Y361599D01*
X363293Y363341D01*
X361871Y364763D01*
X360129Y365769D01*
X358186Y366290D01*
D02*
G37*
G36*
X328548Y359640D02*
X328450D01*
Y350520D01*
X337570D01*
Y350618D01*
X336862Y353260D01*
X335494Y355630D01*
X333560Y357564D01*
X331190Y358932D01*
X328548Y359640D01*
D02*
G37*
G36*
X325910D02*
X325812D01*
X323170Y358932D01*
X320800Y357564D01*
X318866Y355630D01*
X317498Y353260D01*
X316790Y350618D01*
Y350520D01*
X325910D01*
Y359640D01*
D02*
G37*
G36*
X118820Y350010D02*
X109700D01*
Y340890D01*
X109798D01*
X112440Y341598D01*
X114810Y342966D01*
X116744Y344900D01*
X118112Y347270D01*
X118820Y349912D01*
Y350010D01*
D02*
G37*
G36*
X337570Y347980D02*
X328450D01*
Y338860D01*
X328548D01*
X331190Y339568D01*
X333560Y340936D01*
X335494Y342870D01*
X336862Y345240D01*
X337570Y347882D01*
Y347980D01*
D02*
G37*
G36*
X325910D02*
X316790D01*
Y347882D01*
X317498Y345240D01*
X318866Y342870D01*
X320800Y340936D01*
X323170Y339568D01*
X325812Y338860D01*
X325910D01*
Y347980D01*
D02*
G37*
G36*
X298548Y359640D02*
X295812D01*
X293170Y358932D01*
X290800Y357564D01*
X288866Y355630D01*
X287498Y353260D01*
X286790Y350618D01*
Y347882D01*
X287498Y345240D01*
X288866Y342870D01*
X290800Y340936D01*
X293170Y339568D01*
X295812Y338860D01*
X298548D01*
X301190Y339568D01*
X303560Y340936D01*
X305494Y342870D01*
X306862Y345240D01*
X307570Y347882D01*
Y350618D01*
X306862Y353260D01*
X305494Y355630D01*
X303560Y357564D01*
X301190Y358932D01*
X298548Y359640D01*
D02*
G37*
G36*
X256440Y379730D02*
X254100D01*
X251839Y379124D01*
X249811Y377954D01*
X248156Y376299D01*
X246986Y374271D01*
X246380Y372010D01*
Y369670D01*
X246986Y367409D01*
X248156Y365381D01*
X249811Y363726D01*
X251839Y362556D01*
X254100Y361950D01*
X256440D01*
X258701Y362556D01*
X259369Y362941D01*
X260299Y362012D01*
X260061Y361599D01*
X259540Y359656D01*
Y357644D01*
X260061Y355701D01*
X260217Y355430D01*
X259582Y354330D01*
X259180D01*
X256919Y353724D01*
X254891Y352554D01*
X253236Y350899D01*
X252066Y348871D01*
X251460Y346610D01*
Y344270D01*
X252066Y342009D01*
X253236Y339981D01*
X254891Y338326D01*
X256919Y337156D01*
X259180Y336550D01*
X261520D01*
X263781Y337156D01*
X265809Y338326D01*
X267464Y339981D01*
X268634Y342009D01*
X269240Y344270D01*
Y346610D01*
X268634Y348871D01*
X268133Y349740D01*
X268142Y349970D01*
X268775Y351168D01*
X270129Y351531D01*
X271871Y352537D01*
X273293Y353959D01*
X274299Y355701D01*
X274820Y357644D01*
Y359656D01*
X274299Y361599D01*
X273293Y363341D01*
X271871Y364763D01*
X270129Y365769D01*
X268186Y366290D01*
X266174D01*
X264231Y365769D01*
X263996Y365634D01*
X263066Y366563D01*
X263554Y367409D01*
X264160Y369670D01*
Y372010D01*
X263554Y374271D01*
X262384Y376299D01*
X260729Y377954D01*
X258701Y379124D01*
X256440Y379730D01*
D02*
G37*
G36*
X386263Y350130D02*
X383357D01*
X380549Y349378D01*
X378031Y347924D01*
X375976Y345869D01*
X374522Y343351D01*
X373770Y340543D01*
Y337637D01*
X374522Y334829D01*
X375976Y332311D01*
X378031Y330256D01*
X380549Y328802D01*
X383357Y328050D01*
X386263D01*
X389071Y328802D01*
X391589Y330256D01*
X393644Y332311D01*
X395098Y334829D01*
X395850Y337637D01*
Y340543D01*
X395098Y343351D01*
X393644Y345869D01*
X391589Y347924D01*
X389071Y349378D01*
X386263Y350130D01*
D02*
G37*
G36*
X205640Y345440D02*
X203300D01*
X201039Y344834D01*
X199011Y343664D01*
X197356Y342009D01*
X196186Y339981D01*
X195580Y337720D01*
Y335380D01*
X196186Y333119D01*
X197356Y331091D01*
X199011Y329436D01*
X201039Y328266D01*
X203300Y327660D01*
X205640D01*
X207901Y328266D01*
X209929Y329436D01*
X211584Y331091D01*
X212754Y333119D01*
X213360Y335380D01*
Y337720D01*
X212754Y339981D01*
X211584Y342009D01*
X209929Y343664D01*
X207901Y344834D01*
X205640Y345440D01*
D02*
G37*
G36*
X328548Y329640D02*
X325812D01*
X323170Y328932D01*
X320800Y327564D01*
X318866Y325630D01*
X317498Y323260D01*
X316790Y320618D01*
Y317882D01*
X317313Y315930D01*
X291763Y290379D01*
X246353D01*
X245874Y291209D01*
X244219Y292864D01*
X242191Y294034D01*
X239930Y294640D01*
X237590D01*
X235329Y294034D01*
X233301Y292864D01*
X231646Y291209D01*
X230476Y289181D01*
X229870Y286920D01*
Y284580D01*
X230476Y282319D01*
X231646Y280291D01*
X233301Y278636D01*
X235329Y277466D01*
X237590Y276860D01*
X239930D01*
X242191Y277466D01*
X244219Y278636D01*
X245874Y280291D01*
X246353Y281121D01*
X293680D01*
X293680Y281121D01*
X295451Y281473D01*
X296953Y282477D01*
X323859Y309383D01*
X325812Y308860D01*
X328548D01*
X331190Y309568D01*
X333560Y310936D01*
X335494Y312870D01*
X336862Y315240D01*
X337570Y317882D01*
Y320618D01*
X336862Y323260D01*
X335494Y325630D01*
X333560Y327564D01*
X331190Y328932D01*
X328548Y329640D01*
D02*
G37*
G36*
X307570D02*
X286790D01*
Y308860D01*
X307570D01*
Y329640D01*
D02*
G37*
G36*
X276530Y321310D02*
X274190D01*
X271929Y320704D01*
X269901Y319534D01*
X268246Y317879D01*
X267076Y315851D01*
X266470Y313590D01*
Y311250D01*
X267076Y308989D01*
X268246Y306961D01*
X269901Y305306D01*
X271929Y304136D01*
X274190Y303530D01*
X276530D01*
X278791Y304136D01*
X280819Y305306D01*
X282474Y306961D01*
X283644Y308989D01*
X284250Y311250D01*
Y313590D01*
X283644Y315851D01*
X282474Y317879D01*
X280819Y319534D01*
X278791Y320704D01*
X276530Y321310D01*
D02*
G37*
G36*
X386263Y324730D02*
X383357D01*
X380549Y323978D01*
X378031Y322524D01*
X375976Y320469D01*
X374522Y317951D01*
X373770Y315143D01*
Y312237D01*
X374522Y309429D01*
X375976Y306911D01*
X378031Y304856D01*
X380549Y303402D01*
X383357Y302650D01*
X386263D01*
X389071Y303402D01*
X391589Y304856D01*
X393644Y306911D01*
X395098Y309429D01*
X395850Y312237D01*
Y315143D01*
X395098Y317951D01*
X393644Y320469D01*
X391589Y322524D01*
X389071Y323978D01*
X386263Y324730D01*
D02*
G37*
G36*
Y299330D02*
X383357D01*
X380549Y298578D01*
X378031Y297124D01*
X375976Y295069D01*
X374522Y292551D01*
X373770Y289743D01*
Y288573D01*
X372500Y287819D01*
X370740Y288290D01*
X368400D01*
X366139Y287684D01*
X364111Y286514D01*
X362456Y284859D01*
X361286Y282831D01*
X360680Y280570D01*
Y278230D01*
X361286Y275969D01*
X362456Y273941D01*
X364111Y272286D01*
X366139Y271116D01*
X368400Y270510D01*
X370740D01*
X373001Y271116D01*
X375029Y272286D01*
X376684Y273941D01*
X377854Y275969D01*
X378347Y277807D01*
X379601Y278549D01*
X380549Y278002D01*
X383357Y277250D01*
X386263D01*
X389071Y278002D01*
X391589Y279456D01*
X393644Y281511D01*
X395098Y284029D01*
X395850Y286837D01*
Y289743D01*
X395098Y292551D01*
X393644Y295069D01*
X391589Y297124D01*
X389071Y298578D01*
X386263Y299330D01*
D02*
G37*
G36*
X360790Y304800D02*
X358450D01*
X356189Y304194D01*
X354161Y303024D01*
X352506Y301369D01*
X351336Y299341D01*
X350730Y297080D01*
Y294740D01*
X351336Y292479D01*
X352506Y290451D01*
X354161Y288796D01*
X356189Y287626D01*
X358450Y287020D01*
X360790D01*
X363051Y287626D01*
X365079Y288796D01*
X366734Y290451D01*
X367904Y292479D01*
X368510Y294740D01*
Y297080D01*
X367904Y299341D01*
X366734Y301369D01*
X365079Y303024D01*
X363051Y304194D01*
X360790Y304800D01*
D02*
G37*
G36*
X321210Y299720D02*
X318870D01*
X316609Y299114D01*
X314581Y297944D01*
X312926Y296289D01*
X311756Y294261D01*
X311150Y292000D01*
Y289660D01*
X311756Y287399D01*
X312926Y285371D01*
X314581Y283716D01*
X316609Y282546D01*
X318870Y281940D01*
X321210D01*
X323471Y282546D01*
X325499Y283716D01*
X327154Y285371D01*
X328324Y287399D01*
X328930Y289660D01*
Y292000D01*
X328324Y294261D01*
X327154Y296289D01*
X325499Y297944D01*
X323471Y299114D01*
X321210Y299720D01*
D02*
G37*
G36*
X308510Y275590D02*
X306170D01*
X303909Y274984D01*
X301881Y273814D01*
X300226Y272159D01*
X299056Y270131D01*
X298450Y267870D01*
Y265530D01*
X299056Y263269D01*
X300226Y261241D01*
X301881Y259586D01*
X303909Y258416D01*
X306170Y257810D01*
X308510D01*
X310771Y258416D01*
X312799Y259586D01*
X314454Y261241D01*
X315624Y263269D01*
X316230Y265530D01*
Y267870D01*
X315624Y270131D01*
X314454Y272159D01*
X312799Y273814D01*
X310771Y274984D01*
X308510Y275590D01*
D02*
G37*
G36*
X386263Y273930D02*
X383357D01*
X380549Y273178D01*
X378031Y271724D01*
X375976Y269669D01*
X374522Y267151D01*
X373770Y264343D01*
Y261437D01*
X374522Y258629D01*
X375976Y256111D01*
X378031Y254056D01*
X380549Y252602D01*
X383357Y251850D01*
X386263D01*
X389071Y252602D01*
X391589Y254056D01*
X393644Y256111D01*
X395098Y258629D01*
X395850Y261437D01*
Y264343D01*
X395098Y267151D01*
X393644Y269669D01*
X391589Y271724D01*
X389071Y273178D01*
X386263Y273930D01*
D02*
G37*
G36*
X363120Y269240D02*
X360780D01*
X358519Y268634D01*
X356491Y267464D01*
X354836Y265809D01*
X353666Y263781D01*
X353060Y261520D01*
Y259180D01*
X353666Y256919D01*
X354836Y254891D01*
X356491Y253236D01*
X358519Y252066D01*
X360780Y251460D01*
X363120D01*
X365381Y252066D01*
X367409Y253236D01*
X369064Y254891D01*
X370234Y256919D01*
X370840Y259180D01*
Y261520D01*
X370234Y263781D01*
X369064Y265809D01*
X367409Y267464D01*
X365381Y268634D01*
X363120Y269240D01*
D02*
G37*
G36*
X325020Y252730D02*
X322680D01*
X320419Y252124D01*
X318391Y250954D01*
X316736Y249299D01*
X316230Y248422D01*
X314960D01*
X314454Y249299D01*
X312799Y250954D01*
X310771Y252124D01*
X308510Y252730D01*
X306170D01*
X303909Y252124D01*
X301881Y250954D01*
X300226Y249299D01*
X299056Y247271D01*
X298450Y245010D01*
Y242670D01*
X299056Y240409D01*
X300226Y238381D01*
X301881Y236726D01*
X303909Y235556D01*
X306170Y234950D01*
X308510D01*
X310771Y235556D01*
X312799Y236726D01*
X314454Y238381D01*
X314960Y239258D01*
X316230D01*
X316736Y238381D01*
X318391Y236726D01*
X320419Y235556D01*
X322680Y234950D01*
X325020D01*
X327281Y235556D01*
X329309Y236726D01*
X330964Y238381D01*
X332134Y240409D01*
X332740Y242670D01*
Y245010D01*
X332134Y247271D01*
X330964Y249299D01*
X329309Y250954D01*
X327281Y252124D01*
X325020Y252730D01*
D02*
G37*
G36*
X386263Y248530D02*
X383357D01*
X380549Y247778D01*
X378031Y246324D01*
X375976Y244269D01*
X374522Y241751D01*
X373770Y238943D01*
Y236037D01*
X374412Y233639D01*
X338469Y197695D01*
X311176D01*
X309405Y197343D01*
X307903Y196339D01*
X307903Y196339D01*
X284492Y172928D01*
X283161Y173393D01*
X282695Y175133D01*
X281524Y177160D01*
X279869Y178815D01*
X277842Y179986D01*
X275581Y180591D01*
X273240D01*
X270979Y179986D01*
X268952Y178815D01*
X267297Y177160D01*
X266126Y175133D01*
X265521Y172872D01*
Y170531D01*
X266126Y168270D01*
X267297Y166243D01*
X268952Y164588D01*
X270979Y163417D01*
X272719Y162951D01*
X273184Y161621D01*
X268796Y157232D01*
X267870Y157480D01*
X265530D01*
X263269Y156874D01*
X261241Y155704D01*
X259586Y154049D01*
X258416Y152021D01*
X257810Y149760D01*
Y147420D01*
X258416Y145159D01*
X259586Y143131D01*
X261241Y141476D01*
X263269Y140306D01*
X265530Y139700D01*
X267870D01*
X270131Y140306D01*
X272159Y141476D01*
X273814Y143131D01*
X274984Y145159D01*
X275590Y147420D01*
Y149760D01*
X275342Y150686D01*
X313094Y188437D01*
X340386D01*
X340386Y188437D01*
X342158Y188790D01*
X343660Y189793D01*
X380959Y227092D01*
X383357Y226450D01*
X386263D01*
X389071Y227202D01*
X391589Y228656D01*
X393644Y230711D01*
X395098Y233229D01*
X395850Y236037D01*
Y238943D01*
X395098Y241751D01*
X393644Y244269D01*
X391589Y246324D01*
X389071Y247778D01*
X386263Y248530D01*
D02*
G37*
G36*
Y223130D02*
X386080D01*
Y213360D01*
X395850D01*
Y213543D01*
X395098Y216351D01*
X393644Y218869D01*
X391589Y220924D01*
X389071Y222378D01*
X386263Y223130D01*
D02*
G37*
G36*
X383540D02*
X383357D01*
X380549Y222378D01*
X378031Y220924D01*
X375976Y218869D01*
X374522Y216351D01*
X373770Y213543D01*
Y213360D01*
X383540D01*
Y223130D01*
D02*
G37*
G36*
X395850Y210820D02*
X386080D01*
Y201050D01*
X386263D01*
X389071Y201802D01*
X391589Y203256D01*
X393644Y205311D01*
X395098Y207829D01*
X395850Y210637D01*
Y210820D01*
D02*
G37*
G36*
X383540D02*
X373770D01*
Y210637D01*
X374522Y207829D01*
X375976Y205311D01*
X378031Y203256D01*
X380549Y201802D01*
X383357Y201050D01*
X383540D01*
Y210820D01*
D02*
G37*
G36*
X125312Y186292D02*
Y178699D01*
X132905D01*
X132326Y180860D01*
X131156Y182887D01*
X129501Y184542D01*
X127474Y185713D01*
X125312Y186292D01*
D02*
G37*
G36*
X122772D02*
X120611Y185713D01*
X118584Y184542D01*
X116928Y182887D01*
X115758Y180860D01*
X115179Y178699D01*
X122772D01*
Y186292D01*
D02*
G37*
G36*
X386263Y197730D02*
X383357D01*
X380549Y196978D01*
X378031Y195524D01*
X375976Y193469D01*
X374522Y190951D01*
X373770Y188143D01*
Y185237D01*
X374522Y182429D01*
X375976Y179911D01*
X378031Y177856D01*
X380549Y176402D01*
X383357Y175650D01*
X386263D01*
X389071Y176402D01*
X391589Y177856D01*
X393644Y179911D01*
X395098Y182429D01*
X395850Y185237D01*
Y188143D01*
X395098Y190951D01*
X393644Y193469D01*
X391589Y195524D01*
X389071Y196978D01*
X386263Y197730D01*
D02*
G37*
G36*
X132905Y176159D02*
X125312D01*
Y168565D01*
X127474Y169144D01*
X129501Y170315D01*
X131156Y171970D01*
X132326Y173997D01*
X132905Y176159D01*
D02*
G37*
G36*
X122772D02*
X115179D01*
X115758Y173997D01*
X116928Y171970D01*
X118584Y170315D01*
X120611Y169144D01*
X122772Y168565D01*
Y176159D01*
D02*
G37*
G36*
X386263Y172330D02*
X386080D01*
Y162560D01*
X395850D01*
Y162743D01*
X395098Y165551D01*
X393644Y168069D01*
X391589Y170124D01*
X389071Y171578D01*
X386263Y172330D01*
D02*
G37*
G36*
X383540D02*
X383357D01*
X380549Y171578D01*
X378031Y170124D01*
X375976Y168069D01*
X374522Y165551D01*
X373770Y162743D01*
Y162560D01*
X383540D01*
Y172330D01*
D02*
G37*
G36*
X86878Y170832D02*
X84538D01*
X82277Y170226D01*
X80250Y169056D01*
X78594Y167400D01*
X77424Y165373D01*
X76818Y163112D01*
Y160772D01*
X77424Y158510D01*
X78594Y156483D01*
X80250Y154828D01*
X82277Y153658D01*
X84538Y153052D01*
X86878D01*
X89140Y153658D01*
X91167Y154828D01*
X92822Y156483D01*
X93992Y158510D01*
X94598Y160772D01*
Y163112D01*
X93992Y165373D01*
X92822Y167400D01*
X91167Y169056D01*
X89140Y170226D01*
X86878Y170832D01*
D02*
G37*
G36*
X395850Y160020D02*
X386080D01*
Y150250D01*
X386263D01*
X389071Y151002D01*
X391589Y152456D01*
X393644Y154511D01*
X395098Y157029D01*
X395850Y159837D01*
Y160020D01*
D02*
G37*
G36*
X383540D02*
X373770D01*
Y159837D01*
X374522Y157029D01*
X375976Y154511D01*
X378031Y152456D01*
X380549Y151002D01*
X383357Y150250D01*
X383540D01*
Y160020D01*
D02*
G37*
G36*
X338990Y146050D02*
X336650D01*
X334389Y145444D01*
X332361Y144274D01*
X330706Y142619D01*
X329536Y140591D01*
X328930Y138330D01*
Y135990D01*
X329536Y133729D01*
X330706Y131701D01*
X332361Y130046D01*
X334389Y128876D01*
X336650Y128270D01*
X338990D01*
X341251Y128876D01*
X343279Y130046D01*
X344934Y131701D01*
X346104Y133729D01*
X346710Y135990D01*
Y138330D01*
X346104Y140591D01*
X344934Y142619D01*
X343279Y144274D01*
X341251Y145444D01*
X338990Y146050D01*
D02*
G37*
G36*
X196850Y133323D02*
Y125730D01*
X204443D01*
X203864Y127891D01*
X202694Y129919D01*
X201039Y131574D01*
X199011Y132744D01*
X196850Y133323D01*
D02*
G37*
G36*
X395850Y146930D02*
X373770D01*
Y124850D01*
X395850D01*
Y146930D01*
D02*
G37*
G36*
X64770Y132053D02*
Y124460D01*
X72363D01*
X71784Y126621D01*
X70614Y128649D01*
X68959Y130304D01*
X66931Y131474D01*
X64770Y132053D01*
D02*
G37*
G36*
X62230D02*
X60069Y131474D01*
X58041Y130304D01*
X56386Y128649D01*
X55216Y126621D01*
X54637Y124460D01*
X62230D01*
Y132053D01*
D02*
G37*
G36*
X354330Y129513D02*
Y121920D01*
X361923D01*
X361344Y124081D01*
X360174Y126109D01*
X358519Y127764D01*
X356491Y128934D01*
X354330Y129513D01*
D02*
G37*
G36*
X351790D02*
X349629Y128934D01*
X347601Y127764D01*
X345946Y126109D01*
X344776Y124081D01*
X344197Y121920D01*
X351790D01*
Y129513D01*
D02*
G37*
G36*
X204443Y123190D02*
X196850D01*
Y115597D01*
X199011Y116176D01*
X201039Y117346D01*
X202694Y119001D01*
X203864Y121029D01*
X204443Y123190D01*
D02*
G37*
G36*
X62230Y121920D02*
X54637D01*
X55216Y119759D01*
X56386Y117731D01*
X58041Y116076D01*
X60069Y114906D01*
X62230Y114327D01*
Y121920D01*
D02*
G37*
G36*
X361923Y119380D02*
X354330D01*
Y111787D01*
X356491Y112366D01*
X358519Y113536D01*
X360174Y115191D01*
X361344Y117219D01*
X361923Y119380D01*
D02*
G37*
G36*
X351790D02*
X344197D01*
X344776Y117219D01*
X345946Y115191D01*
X347601Y113536D01*
X349629Y112366D01*
X351790Y111787D01*
Y119380D01*
D02*
G37*
G36*
X182780Y116840D02*
X180440D01*
X178179Y116234D01*
X176151Y115064D01*
X174496Y113409D01*
X173326Y111381D01*
X172720Y109120D01*
Y106780D01*
X173326Y104519D01*
X174496Y102491D01*
X176151Y100836D01*
X178179Y99666D01*
X180440Y99060D01*
X182780D01*
X185041Y99666D01*
X187069Y100836D01*
X188724Y102491D01*
X189894Y104519D01*
X190500Y106780D01*
Y109120D01*
X189894Y111381D01*
X188724Y113409D01*
X187069Y115064D01*
X185041Y116234D01*
X182780Y116840D01*
D02*
G37*
G36*
X300000Y139628D02*
X295522Y139276D01*
X291153Y138227D01*
X287003Y136508D01*
X283173Y134161D01*
X279757Y131243D01*
X276839Y127827D01*
X274492Y123997D01*
X272773Y119847D01*
X271724Y115478D01*
X271372Y111000D01*
Y109000D01*
X271724Y104522D01*
X272773Y100153D01*
X274492Y96003D01*
X276839Y92173D01*
X279757Y88757D01*
X283173Y85839D01*
X287003Y83492D01*
X291153Y81773D01*
X295522Y80724D01*
X300000Y80372D01*
X304478Y80724D01*
X308847Y81773D01*
X312997Y83492D01*
X316827Y85839D01*
X320243Y88757D01*
X323161Y92173D01*
X325508Y96003D01*
X327227Y100153D01*
X328276Y104522D01*
X328628Y109000D01*
Y111000D01*
X328276Y115478D01*
X327227Y119847D01*
X325508Y123997D01*
X323161Y127827D01*
X320243Y131243D01*
X316827Y134161D01*
X312997Y136508D01*
X308847Y138227D01*
X304478Y139276D01*
X300000Y139628D01*
D02*
G37*
G36*
X350420Y93980D02*
X348080D01*
X345819Y93374D01*
X343791Y92204D01*
X342136Y90549D01*
X340966Y88521D01*
X340360Y86260D01*
Y83920D01*
X340966Y81659D01*
X342136Y79631D01*
X343791Y77976D01*
X345819Y76806D01*
X348080Y76200D01*
X350420D01*
X352681Y76806D01*
X354709Y77976D01*
X356364Y79631D01*
X357534Y81659D01*
X358140Y83920D01*
Y86260D01*
X357534Y88521D01*
X356364Y90549D01*
X354709Y92204D01*
X352681Y93374D01*
X350420Y93980D01*
D02*
G37*
G36*
X334128Y75310D02*
X334010D01*
Y66040D01*
X343280D01*
Y66158D01*
X342562Y68838D01*
X341174Y71242D01*
X339212Y73204D01*
X336808Y74592D01*
X334128Y75310D01*
D02*
G37*
G36*
X331470D02*
X331352D01*
X328672Y74592D01*
X326268Y73204D01*
X324306Y71242D01*
X322918Y68838D01*
X322200Y66158D01*
Y66040D01*
X331470D01*
Y75310D01*
D02*
G37*
G36*
X382650Y81660D02*
X361570D01*
Y60580D01*
X382650D01*
Y81660D01*
D02*
G37*
G36*
X220090Y69850D02*
X210820D01*
Y60580D01*
X210938D01*
X213618Y61298D01*
X216022Y62686D01*
X217984Y64648D01*
X219372Y67052D01*
X220090Y69732D01*
Y69850D01*
D02*
G37*
G36*
X343280Y63500D02*
X334010D01*
Y54230D01*
X334128D01*
X336808Y54948D01*
X339212Y56336D01*
X341174Y58298D01*
X342562Y60702D01*
X343280Y63382D01*
Y63500D01*
D02*
G37*
G36*
X331470D02*
X322200D01*
Y63382D01*
X322918Y60702D01*
X324306Y58298D01*
X326268Y56336D01*
X328672Y54948D01*
X331352Y54230D01*
X331470D01*
Y63500D01*
D02*
G37*
G36*
X308728Y75310D02*
X305952D01*
X303272Y74592D01*
X300868Y73204D01*
X298906Y71242D01*
X297518Y68838D01*
X296800Y66158D01*
Y63382D01*
X297518Y60702D01*
X298906Y58298D01*
X300868Y56336D01*
X303272Y54948D01*
X305952Y54230D01*
X308728D01*
X311408Y54948D01*
X313812Y56336D01*
X315774Y58298D01*
X317162Y60702D01*
X317880Y63382D01*
Y66158D01*
X317162Y68838D01*
X315774Y71242D01*
X313812Y73204D01*
X311408Y74592D01*
X308728Y75310D01*
D02*
G37*
G36*
X283328D02*
X280552D01*
X277872Y74592D01*
X275468Y73204D01*
X273506Y71242D01*
X272118Y68838D01*
X271400Y66158D01*
Y63382D01*
X272118Y60702D01*
X273506Y58298D01*
X275468Y56336D01*
X277872Y54948D01*
X280552Y54230D01*
X283328D01*
X286008Y54948D01*
X288412Y56336D01*
X290374Y58298D01*
X291762Y60702D01*
X292480Y63382D01*
Y66158D01*
X291762Y68838D01*
X290374Y71242D01*
X288412Y73204D01*
X286008Y74592D01*
X283328Y75310D01*
D02*
G37*
G36*
X373498Y56260D02*
X373380D01*
Y46990D01*
X382650D01*
Y47108D01*
X381932Y49788D01*
X380544Y52192D01*
X378582Y54154D01*
X376178Y55542D01*
X373498Y56260D01*
D02*
G37*
G36*
X370840D02*
X370722D01*
X368042Y55542D01*
X365638Y54154D01*
X363676Y52192D01*
X362288Y49788D01*
X361570Y47108D01*
Y46990D01*
X370840D01*
Y56260D01*
D02*
G37*
G36*
X382650Y44450D02*
X373380D01*
Y35180D01*
X373498D01*
X376178Y35898D01*
X378582Y37286D01*
X380544Y39248D01*
X381932Y41652D01*
X382650Y44332D01*
Y44450D01*
D02*
G37*
G36*
X370840D02*
X361570D01*
Y44332D01*
X362288Y41652D01*
X363676Y39248D01*
X365638Y37286D01*
X368042Y35898D01*
X370722Y35180D01*
X370840D01*
Y44450D01*
D02*
G37*
G36*
X194362Y36710D02*
X194310D01*
Y27940D01*
X203080D01*
Y27992D01*
X202396Y30545D01*
X201074Y32835D01*
X199205Y34704D01*
X196915Y36026D01*
X194362Y36710D01*
D02*
G37*
G36*
X191770D02*
X191718D01*
X189165Y36026D01*
X186875Y34704D01*
X185006Y32835D01*
X183684Y30545D01*
X183000Y27992D01*
Y27940D01*
X191770D01*
Y36710D01*
D02*
G37*
G36*
X219762D02*
X217118D01*
X214565Y36026D01*
X212275Y34704D01*
X210406Y32835D01*
X209084Y30545D01*
X208400Y27992D01*
Y25348D01*
X209084Y22795D01*
X210406Y20505D01*
X212275Y18636D01*
X214565Y17314D01*
X217118Y16630D01*
X219762D01*
X222315Y17314D01*
X224605Y18636D01*
X226474Y20505D01*
X227796Y22795D01*
X228480Y25348D01*
Y27992D01*
X227796Y30545D01*
X226474Y32835D01*
X224605Y34704D01*
X222315Y36026D01*
X219762Y36710D01*
D02*
G37*
G36*
X203080Y25400D02*
X194310D01*
Y16630D01*
X194362D01*
X196915Y17314D01*
X199205Y18636D01*
X201074Y20505D01*
X202396Y22795D01*
X203080Y25348D01*
Y25400D01*
D02*
G37*
G36*
X191770D02*
X183000D01*
Y25348D01*
X183684Y22795D01*
X185006Y20505D01*
X186875Y18636D01*
X189165Y17314D01*
X191718Y16630D01*
X191770D01*
Y25400D01*
D02*
G37*
G36*
X168962Y36710D02*
X166318D01*
X163765Y36026D01*
X161475Y34704D01*
X159606Y32835D01*
X158284Y30545D01*
X157600Y27992D01*
Y25348D01*
X158284Y22795D01*
X159606Y20505D01*
X161475Y18636D01*
X163765Y17314D01*
X166318Y16630D01*
X168962D01*
X171515Y17314D01*
X173805Y18636D01*
X175674Y20505D01*
X176996Y22795D01*
X177680Y25348D01*
Y27992D01*
X176996Y30545D01*
X175674Y32835D01*
X173805Y34704D01*
X171515Y36026D01*
X168962Y36710D01*
D02*
G37*
G36*
X118162D02*
X115518D01*
X112965Y36026D01*
X110675Y34704D01*
X108806Y32835D01*
X107484Y30545D01*
X106800Y27992D01*
Y25348D01*
X107484Y22795D01*
X108806Y20505D01*
X110675Y18636D01*
X112965Y17314D01*
X115518Y16630D01*
X118162D01*
X120715Y17314D01*
X123005Y18636D01*
X124874Y20505D01*
X126196Y22795D01*
X126880Y25348D01*
Y27992D01*
X126196Y30545D01*
X124874Y32835D01*
X123005Y34704D01*
X120715Y36026D01*
X118162Y36710D01*
D02*
G37*
G36*
X92762D02*
X90118D01*
X87565Y36026D01*
X85275Y34704D01*
X83406Y32835D01*
X82084Y30545D01*
X81400Y27992D01*
Y25348D01*
X82084Y22795D01*
X83406Y20505D01*
X85275Y18636D01*
X87565Y17314D01*
X90118Y16630D01*
X92762D01*
X95315Y17314D01*
X97605Y18636D01*
X99474Y20505D01*
X100796Y22795D01*
X101480Y25348D01*
Y27992D01*
X100796Y30545D01*
X99474Y32835D01*
X97605Y34704D01*
X95315Y36026D01*
X92762Y36710D01*
D02*
G37*
G36*
X67362D02*
X64718D01*
X62165Y36026D01*
X59875Y34704D01*
X58006Y32835D01*
X56684Y30545D01*
X56000Y27992D01*
Y25348D01*
X56684Y22795D01*
X58006Y20505D01*
X59875Y18636D01*
X62165Y17314D01*
X64718Y16630D01*
X67362D01*
X69915Y17314D01*
X72205Y18636D01*
X74074Y20505D01*
X75396Y22795D01*
X76080Y25348D01*
Y27992D01*
X75396Y30545D01*
X74074Y32835D01*
X72205Y34704D01*
X69915Y36026D01*
X67362Y36710D01*
D02*
G37*
G36*
X295496Y47625D02*
X291244D01*
X287072Y46795D01*
X283143Y45168D01*
X279607Y42805D01*
X276600Y39798D01*
X274237Y36262D01*
X272610Y32333D01*
X271780Y28161D01*
Y23909D01*
X272610Y19737D01*
X274237Y15808D01*
X276600Y12272D01*
X279607Y9265D01*
X283143Y6902D01*
X287072Y5275D01*
X291244Y4445D01*
X295496D01*
X299668Y5275D01*
X303597Y6902D01*
X307133Y9265D01*
X310140Y12272D01*
X312503Y15808D01*
X314130Y19737D01*
X314960Y23909D01*
Y28161D01*
X314130Y32333D01*
X312503Y36262D01*
X310140Y39798D01*
X307133Y42805D01*
X303597Y45168D01*
X299668Y46795D01*
X295496Y47625D01*
D02*
G37*
G36*
X28161D02*
X23909D01*
X19737Y46795D01*
X15808Y45168D01*
X12272Y42805D01*
X9265Y39798D01*
X6902Y36262D01*
X5275Y32333D01*
X4445Y28161D01*
Y23909D01*
X5275Y19737D01*
X6902Y15808D01*
X9265Y12272D01*
X12272Y9265D01*
X15808Y6902D01*
X19737Y5275D01*
X23909Y4445D01*
X28161D01*
X32332Y5275D01*
X36262Y6902D01*
X39798Y9265D01*
X42805Y12272D01*
X45168Y15808D01*
X46795Y19737D01*
X47625Y23909D01*
Y28161D01*
X46795Y32333D01*
X45168Y36262D01*
X42805Y39798D01*
X39798Y42805D01*
X36262Y45168D01*
X32332Y46795D01*
X28161Y47625D01*
D02*
G37*
%LPD*%
G36*
X98748Y317270D02*
X100116Y314900D01*
X102050Y312966D01*
X104420Y311598D01*
X107062Y310890D01*
X109798D01*
X111750Y311413D01*
X115662Y307501D01*
X115662Y307501D01*
X117164Y306498D01*
X118935Y306145D01*
X129452D01*
X129784Y304876D01*
X128364Y303456D01*
X127194Y301428D01*
X126588Y299167D01*
Y296826D01*
X127194Y294566D01*
X128364Y292538D01*
X130020Y290883D01*
X132047Y289713D01*
X134308Y289107D01*
X136091D01*
X136979Y288345D01*
X137160Y287929D01*
Y285850D01*
X137766Y283589D01*
X137976Y283224D01*
X137046Y282295D01*
X136560Y282575D01*
X134299Y283181D01*
X131959D01*
X129698Y282575D01*
X127670Y281405D01*
X126015Y279750D01*
X124845Y277722D01*
X124239Y275462D01*
Y273121D01*
X124845Y270860D01*
X126015Y268832D01*
X127329Y267519D01*
X126846Y266249D01*
X125107D01*
X97339Y294017D01*
Y317621D01*
X98609Y317789D01*
X98748Y317270D01*
D02*
G37*
G36*
X176981Y265348D02*
Y260323D01*
X176151Y259844D01*
X174496Y258189D01*
X173326Y256161D01*
X172720Y253900D01*
Y251560D01*
X173326Y249299D01*
X174496Y247271D01*
X176151Y245616D01*
X178179Y244446D01*
X180440Y243840D01*
X182780D01*
X185041Y244446D01*
X187069Y245616D01*
X188724Y247271D01*
X189894Y249299D01*
X190500Y251560D01*
Y253900D01*
X189894Y256161D01*
X188724Y258189D01*
X187069Y259844D01*
X186239Y260323D01*
Y264675D01*
X187412Y265161D01*
X199301Y253272D01*
Y217545D01*
X198031Y216934D01*
X196471Y217834D01*
X194210Y218440D01*
X191870D01*
X189609Y217834D01*
X187581Y216664D01*
X187570Y216652D01*
X186554Y217432D01*
X187354Y218819D01*
X187960Y221080D01*
Y223420D01*
X187354Y225681D01*
X186184Y227709D01*
X184529Y229364D01*
X182501Y230534D01*
X180240Y231140D01*
X177900D01*
X175639Y230534D01*
X173611Y229364D01*
X171956Y227709D01*
X170786Y225681D01*
X170180Y223420D01*
Y221080D01*
X170786Y218819D01*
X171956Y216791D01*
X173611Y215136D01*
X175639Y213966D01*
X177900Y213360D01*
X180240D01*
X182501Y213966D01*
X184529Y215136D01*
X184540Y215148D01*
X185556Y214368D01*
X184756Y212981D01*
X184150Y210720D01*
Y208380D01*
X184714Y206275D01*
X184412Y205878D01*
X183712Y205387D01*
X182501Y206085D01*
X180240Y206691D01*
X177900D01*
X175639Y206085D01*
X173611Y204915D01*
X171956Y203260D01*
X170786Y201233D01*
X170180Y198972D01*
Y196631D01*
X170786Y194370D01*
X171956Y192343D01*
X173611Y190688D01*
X175639Y189517D01*
X177900Y188911D01*
X180240D01*
X182501Y189517D01*
X184529Y190688D01*
X185510Y189873D01*
X184756Y188566D01*
X184150Y186305D01*
Y184676D01*
X182892Y183936D01*
X182446Y184194D01*
X180185Y184800D01*
X177844D01*
X175583Y184194D01*
X173556Y183023D01*
X171901Y181368D01*
X170730Y179341D01*
X170124Y177080D01*
Y174739D01*
X170730Y172478D01*
X171901Y170451D01*
X173556Y168796D01*
X175583Y167625D01*
X177844Y167020D01*
X180185D01*
X182446Y167625D01*
X184473Y168796D01*
X185293Y169616D01*
X198536D01*
X198536Y169616D01*
X200307Y169968D01*
X201809Y170972D01*
X207203Y176366D01*
X207203Y176366D01*
X208207Y177868D01*
X208559Y179639D01*
Y245703D01*
X209829Y246229D01*
X210441Y245616D01*
X212469Y244446D01*
X214337Y243945D01*
X214749Y242946D01*
X214758Y242570D01*
X213866Y241679D01*
X212696Y239651D01*
X212090Y237390D01*
Y235050D01*
X212696Y232789D01*
X213866Y230761D01*
X215521Y229106D01*
X217549Y227936D01*
X219810Y227330D01*
X222150D01*
X223076Y227578D01*
X233526Y217127D01*
Y185795D01*
X232256Y185184D01*
X230697Y186084D01*
X228436Y186690D01*
X226095D01*
X223834Y186084D01*
X221807Y184914D01*
X220151Y183259D01*
X218981Y181231D01*
X218375Y178970D01*
Y176630D01*
X218981Y174369D01*
X220151Y172341D01*
X221807Y170686D01*
X223834Y169516D01*
X226095Y168910D01*
X228436D01*
X230697Y169516D01*
X232256Y170416D01*
X233526Y169805D01*
Y123277D01*
X232256Y123110D01*
X231804Y124797D01*
X230634Y126824D01*
X228979Y128479D01*
X226951Y129649D01*
X224690Y130255D01*
X222350D01*
X220089Y129649D01*
X219904Y129543D01*
X211434Y138012D01*
Y145145D01*
X211434Y145145D01*
X211082Y146917D01*
X210079Y148419D01*
X194664Y163833D01*
X193162Y164837D01*
X191391Y165189D01*
X191391Y165189D01*
X166639D01*
X132684Y199144D01*
X132932Y200070D01*
Y202410D01*
X132326Y204671D01*
X131156Y206699D01*
X129501Y208354D01*
X127473Y209524D01*
X125212Y210130D01*
X122872D01*
X120611Y209524D01*
X118964Y208574D01*
X117694Y209123D01*
Y216558D01*
X119482Y218345D01*
X145504D01*
X145504Y218345D01*
X147276Y218698D01*
X148777Y219701D01*
X155673Y226597D01*
X155673Y226597D01*
X156677Y228099D01*
X157029Y229870D01*
X157029Y229870D01*
Y259080D01*
X156677Y260851D01*
X155673Y262353D01*
X155673Y262353D01*
X153133Y264893D01*
X151631Y265897D01*
X149860Y266249D01*
X149860Y266249D01*
X139412D01*
X138929Y267519D01*
X140243Y268832D01*
X141413Y270860D01*
X142019Y273121D01*
Y275462D01*
X141413Y277722D01*
X141203Y278087D01*
X142132Y279016D01*
X142619Y278736D01*
X144880Y278130D01*
X147220D01*
X149481Y278736D01*
X151509Y279906D01*
X153164Y281561D01*
X154334Y283589D01*
X154886Y285647D01*
X156069Y286260D01*
X176981Y265348D01*
D02*
G37*
G36*
X37209Y278736D02*
X39470Y278130D01*
X41810D01*
X42736Y278378D01*
X74197Y246917D01*
X74197Y246917D01*
X75699Y245913D01*
X77470Y245561D01*
X77470Y245561D01*
X128297D01*
X128776Y244731D01*
X129620Y243888D01*
X129411Y242301D01*
X129001Y242064D01*
X127346Y240409D01*
X126867Y239579D01*
X55257D01*
X49282Y245554D01*
X49530Y246480D01*
Y248820D01*
X48924Y251081D01*
X47754Y253109D01*
X46099Y254764D01*
X44071Y255934D01*
X41810Y256540D01*
X39470D01*
X37209Y255934D01*
X35649Y255034D01*
X34379Y255645D01*
Y279025D01*
X35649Y279636D01*
X37209Y278736D01*
D02*
G37*
G36*
Y239366D02*
X39470Y238760D01*
X41810D01*
X42736Y239008D01*
X50067Y231677D01*
X50067Y231677D01*
X51569Y230673D01*
X53340Y230321D01*
X53340Y230321D01*
X126867D01*
X127346Y229491D01*
X127964Y228873D01*
X127438Y227603D01*
X117564D01*
X117564Y227603D01*
X115793Y227251D01*
X114291Y226247D01*
X114291Y226247D01*
X109792Y221749D01*
X108789Y220247D01*
X108436Y218475D01*
X108436Y218475D01*
Y207279D01*
X107167Y206939D01*
X106174Y208659D01*
X104519Y210314D01*
X102491Y211484D01*
X100230Y212090D01*
X97890D01*
X95629Y211484D01*
X93601Y210314D01*
X91946Y208659D01*
X90776Y206631D01*
X90170Y204370D01*
Y202030D01*
X90776Y199769D01*
X91946Y197741D01*
X93601Y196086D01*
X95259Y195129D01*
X94919Y193859D01*
X82881D01*
X82541Y195129D01*
X84199Y196086D01*
X85854Y197741D01*
X87024Y199769D01*
X87630Y202030D01*
Y204370D01*
X87024Y206631D01*
X85854Y208659D01*
X84199Y210314D01*
X82171Y211484D01*
X79910Y212090D01*
X77570D01*
X75309Y211484D01*
X73281Y210314D01*
X71626Y208659D01*
X70456Y206631D01*
X69850Y204370D01*
Y202030D01*
X70456Y199769D01*
X71626Y197741D01*
X73281Y196086D01*
X74939Y195129D01*
X74599Y193859D01*
X55712D01*
X49079Y200492D01*
Y209577D01*
X49909Y210056D01*
X51564Y211711D01*
X52734Y213739D01*
X53340Y216000D01*
Y218340D01*
X52734Y220601D01*
X51564Y222629D01*
X49909Y224284D01*
X47881Y225454D01*
X45620Y226060D01*
X43280D01*
X41019Y225454D01*
X38991Y224284D01*
X37336Y222629D01*
X36166Y220601D01*
X35649Y218672D01*
X34379Y218840D01*
Y239655D01*
X35649Y240266D01*
X37209Y239366D01*
D02*
G37*
%LPC*%
G36*
X223520Y156183D02*
Y148590D01*
X231113D01*
X230534Y150751D01*
X229364Y152779D01*
X227709Y154434D01*
X225681Y155604D01*
X223520Y156183D01*
D02*
G37*
G36*
X220980D02*
X218819Y155604D01*
X216791Y154434D01*
X215136Y152779D01*
X213966Y150751D01*
X213387Y148590D01*
X220980D01*
Y156183D01*
D02*
G37*
G36*
X231113Y146050D02*
X223520D01*
Y138457D01*
X225681Y139036D01*
X227709Y140206D01*
X229364Y141861D01*
X230534Y143889D01*
X231113Y146050D01*
D02*
G37*
G36*
X220980D02*
X213387D01*
X213966Y143889D01*
X215136Y141861D01*
X216791Y140206D01*
X218819Y139036D01*
X220980Y138457D01*
Y146050D01*
D02*
G37*
%LPD*%
D24*
X108430Y321280D02*
D03*
Y351280D02*
D03*
X327180Y319250D02*
D03*
Y349250D02*
D03*
X216690Y459740D02*
D03*
X327970Y459230D02*
D03*
X105720Y460500D02*
D03*
X327970Y569720D02*
D03*
X217480D02*
D03*
X105410Y570230D02*
D03*
X230180Y678940D02*
D03*
Y648940D02*
D03*
X118420Y678940D02*
D03*
D28*
X384810Y237490D02*
D03*
Y212090D02*
D03*
Y161290D02*
D03*
X13970Y466090D02*
D03*
D34*
X372110Y45720D02*
D03*
X332740Y64770D02*
D03*
X209550Y71120D02*
D03*
D36*
X142240Y26670D02*
D03*
X193040D02*
D03*
D37*
X243840D02*
D03*
D41*
X179014Y175910D02*
D03*
X181610Y252730D02*
D03*
X134459Y234950D02*
D03*
X44450Y217170D02*
D03*
X124042Y201240D02*
D03*
X78740Y203200D02*
D03*
X124042Y177428D02*
D03*
X222250Y147320D02*
D03*
X223520Y121365D02*
D03*
X99060Y203200D02*
D03*
X353060Y120650D02*
D03*
X195580Y124460D02*
D03*
X63500Y123190D02*
D03*
X242254Y85583D02*
D03*
X152620Y87850D02*
D03*
X220980Y236220D02*
D03*
X215900Y252730D02*
D03*
X205740Y285750D02*
D03*
X243840Y434340D02*
D03*
X135478Y451262D02*
D03*
X238760Y285750D02*
D03*
X135890Y250190D02*
D03*
X266700Y148590D02*
D03*
X157480Y377190D02*
D03*
X40640Y287020D02*
D03*
Y247650D02*
D03*
D42*
X180679Y174245D02*
X198536D01*
X179014Y175910D02*
X180679Y174245D01*
X198536D02*
X203930Y179639D01*
X164722Y160560D02*
X191391D01*
X181610Y252730D02*
Y267266D01*
X191391Y160560D02*
X206805Y145145D01*
Y136095D02*
Y145145D01*
X203930Y179639D02*
Y255190D01*
X205740Y262890D02*
Y285750D01*
X187960Y271160D02*
Y342900D01*
X205740Y262890D02*
X215900Y252730D01*
X187960Y271160D02*
X203930Y255190D01*
X160308Y370552D02*
X187960Y342900D01*
X157480Y374836D02*
X160308Y372008D01*
Y370552D02*
Y372008D01*
X157480Y374836D02*
Y377190D01*
X152400Y229870D02*
Y259080D01*
X149860Y261620D02*
X152400Y259080D01*
X145504Y222974D02*
X152400Y229870D01*
X117564Y222974D02*
X145504D01*
X123190Y261620D02*
X149860D01*
X92710Y292100D02*
X123190Y261620D01*
X44450Y198575D02*
X53795Y189230D01*
X110722D01*
X113065Y191573D02*
Y218475D01*
X110722Y189230D02*
X113065Y191573D01*
X78740Y198935D02*
Y203200D01*
X44450Y198575D02*
Y217170D01*
X99060Y199512D02*
Y203200D01*
X113065Y218475D02*
X117564Y222974D01*
X53340Y234950D02*
X134459D01*
X124042Y201240D02*
X164722Y160560D01*
X92710Y292100D02*
Y353082D01*
X77470Y250190D02*
X135890D01*
X40640Y287020D02*
X77470Y250190D01*
X40640Y247650D02*
X53340Y234950D01*
X92710Y353082D02*
X143488Y403860D01*
X213360D01*
X243840Y434340D01*
X221535Y121365D02*
X223520D01*
X206805Y136095D02*
X221535Y121365D01*
X340386Y193066D02*
X384810Y237490D01*
X242254Y85583D02*
X243840Y83997D01*
Y26670D02*
Y83997D01*
X14897Y465163D02*
X27407D01*
X13970Y466090D02*
X14897Y465163D01*
X27407D02*
X29750Y462820D01*
Y126460D02*
Y462820D01*
Y126460D02*
X78740Y77470D01*
X112810D01*
X123190Y87850D01*
X152620D01*
X220980Y236220D02*
X238155Y219045D01*
Y113695D02*
Y219045D01*
X208120Y83660D02*
X238155Y113695D01*
X181564Y50800D02*
X196850Y66086D01*
X166370Y50800D02*
X181564D01*
X142240Y26670D02*
X166370Y50800D01*
X196850Y76154D02*
X204356Y83660D01*
X196850Y66086D02*
Y76154D01*
X204356Y83660D02*
X208120D01*
X138101Y310774D02*
X181610Y267266D01*
X118935Y310774D02*
X138101D01*
X229960Y635090D02*
Y648720D01*
X230180Y648940D01*
X147050Y552180D02*
X229960Y635090D01*
X147050Y462834D02*
Y552180D01*
X135478Y451262D02*
X147050Y462834D01*
X108430Y321280D02*
X118935Y310774D01*
X238760Y285750D02*
X293680D01*
X311176Y193066D02*
X340386D01*
X293680Y285750D02*
X327180Y319250D01*
X266700Y148590D02*
X311176Y193066D01*
M02*
