G04*
G04 #@! TF.GenerationSoftware,Altium Limited,Altium Designer,22.7.1 (60)*
G04*
G04 Layer_Color=8388736*
%FSLAX44Y44*%
%MOMM*%
G71*
G04*
G04 #@! TF.SameCoordinates,868842FB-CB56-49F4-92B6-46A9E27D1440*
G04*
G04*
G04 #@! TF.FilePolarity,Negative*
G04*
G01*
G75*
G04:AMPARAMS|DCode=16|XSize=2.3028mm|YSize=0.5821mm|CornerRadius=0.2911mm|HoleSize=0mm|Usage=FLASHONLY|Rotation=0.000|XOffset=0mm|YOffset=0mm|HoleType=Round|Shape=RoundedRectangle|*
%AMROUNDEDRECTD16*
21,1,2.3028,0.0000,0,0,0.0*
21,1,1.7207,0.5821,0,0,0.0*
1,1,0.5821,0.8603,0.0000*
1,1,0.5821,-0.8603,0.0000*
1,1,0.5821,-0.8603,0.0000*
1,1,0.5821,0.8603,0.0000*
%
%ADD16ROUNDEDRECTD16*%
%ADD17R,2.3028X0.5821*%
%ADD18R,1.3606X1.1578*%
%ADD19R,1.1578X1.3606*%
G04:AMPARAMS|DCode=20|XSize=0.8032mm|YSize=1.6532mm|CornerRadius=0.1526mm|HoleSize=0mm|Usage=FLASHONLY|Rotation=90.000|XOffset=0mm|YOffset=0mm|HoleType=Round|Shape=RoundedRectangle|*
%AMROUNDEDRECTD20*
21,1,0.8032,1.3480,0,0,90.0*
21,1,0.4980,1.6532,0,0,90.0*
1,1,0.3052,0.6740,0.2490*
1,1,0.3052,0.6740,-0.2490*
1,1,0.3052,-0.6740,-0.2490*
1,1,0.3052,-0.6740,0.2490*
%
%ADD20ROUNDEDRECTD20*%
%ADD21C,1.8032*%
%ADD22R,1.8032X1.8032*%
%ADD23R,1.5700X1.5700*%
%ADD24C,1.5700*%
%ADD25C,1.0200*%
%ADD26C,1.7032*%
%ADD27R,1.7032X1.7032*%
%ADD28C,1.7000*%
%ADD29R,1.7000X1.7000*%
%ADD30O,5.4032X5.6032*%
%ADD31C,4.0132*%
%ADD32R,1.8032X1.8032*%
%ADD33C,1.4732*%
D16*
X245815Y273050D02*
D03*
Y260350D02*
D03*
Y247650D02*
D03*
Y234950D02*
D03*
Y222250D02*
D03*
Y209550D02*
D03*
Y196850D02*
D03*
Y184150D02*
D03*
Y171450D02*
D03*
Y158750D02*
D03*
Y146050D02*
D03*
Y133350D02*
D03*
Y120650D02*
D03*
Y107950D02*
D03*
X155505D02*
D03*
Y120650D02*
D03*
Y133350D02*
D03*
Y146050D02*
D03*
Y158750D02*
D03*
Y171450D02*
D03*
Y184150D02*
D03*
Y196850D02*
D03*
Y209550D02*
D03*
Y222250D02*
D03*
Y234950D02*
D03*
Y247650D02*
D03*
Y260350D02*
D03*
D17*
Y273050D02*
D03*
D18*
X288290Y157446D02*
D03*
Y173990D02*
D03*
D19*
X151782Y313690D02*
D03*
X135238D02*
D03*
X361332Y312420D02*
D03*
X344788D02*
D03*
X253382Y417830D02*
D03*
X236838D02*
D03*
D20*
X229870Y307340D02*
D03*
Y320040D02*
D03*
Y332740D02*
D03*
Y345440D02*
D03*
Y358140D02*
D03*
Y370840D02*
D03*
Y383540D02*
D03*
Y396240D02*
D03*
X175370Y307340D02*
D03*
Y320040D02*
D03*
Y332740D02*
D03*
Y345440D02*
D03*
Y358140D02*
D03*
Y370840D02*
D03*
Y383540D02*
D03*
Y396240D02*
D03*
X288980Y294640D02*
D03*
Y281940D02*
D03*
Y269240D02*
D03*
Y256540D02*
D03*
Y243840D02*
D03*
Y231140D02*
D03*
Y218440D02*
D03*
Y205740D02*
D03*
X343480Y294640D02*
D03*
Y281940D02*
D03*
Y269240D02*
D03*
Y256540D02*
D03*
Y243840D02*
D03*
Y231140D02*
D03*
Y218440D02*
D03*
Y205740D02*
D03*
X116150Y210820D02*
D03*
Y223520D02*
D03*
Y236220D02*
D03*
Y248920D02*
D03*
Y261620D02*
D03*
Y274320D02*
D03*
Y287020D02*
D03*
Y299720D02*
D03*
X61650Y210820D02*
D03*
Y223520D02*
D03*
Y236220D02*
D03*
Y248920D02*
D03*
Y261620D02*
D03*
Y274320D02*
D03*
Y287020D02*
D03*
Y299720D02*
D03*
D21*
X372110Y45720D02*
D03*
X332740Y64770D02*
D03*
X307340D02*
D03*
X281940D02*
D03*
X209550Y71120D02*
D03*
X184150D02*
D03*
X158750D02*
D03*
D22*
X372110D02*
D03*
D23*
X78430Y321280D02*
D03*
X297180Y319250D02*
D03*
X186690Y429740D02*
D03*
X297970Y429230D02*
D03*
X75720Y430500D02*
D03*
X297970Y539720D02*
D03*
X187480D02*
D03*
X75410Y540230D02*
D03*
X200180Y648940D02*
D03*
X88420D02*
D03*
D24*
X108430Y321280D02*
D03*
X78430Y351280D02*
D03*
X108430D02*
D03*
X327180Y319250D02*
D03*
X297180Y349250D02*
D03*
X327180D02*
D03*
X216690Y429740D02*
D03*
X186690Y459740D02*
D03*
X216690D02*
D03*
X327970Y459230D02*
D03*
X297970D02*
D03*
X327970Y429230D02*
D03*
X105720Y460500D02*
D03*
X75720D02*
D03*
X105720Y430500D02*
D03*
X327970Y569720D02*
D03*
X297970D02*
D03*
X327970Y539720D02*
D03*
X217480Y569720D02*
D03*
X187480D02*
D03*
X217480Y539720D02*
D03*
X105410Y570230D02*
D03*
X75410D02*
D03*
X105410Y540230D02*
D03*
X230180Y678940D02*
D03*
X200180D02*
D03*
X230180Y648940D02*
D03*
X118420Y678940D02*
D03*
X88420D02*
D03*
X118420Y648940D02*
D03*
D25*
X138430Y360680D02*
D03*
X48430D02*
D03*
X357180Y358650D02*
D03*
X267180D02*
D03*
X246690Y469140D02*
D03*
X156690D02*
D03*
X267970Y468630D02*
D03*
X357970D02*
D03*
X45720Y469900D02*
D03*
X135720D02*
D03*
X267970Y579120D02*
D03*
X357970D02*
D03*
X157480D02*
D03*
X247480D02*
D03*
X45410Y579630D02*
D03*
X135410D02*
D03*
X170180Y688340D02*
D03*
X260180D02*
D03*
X58420D02*
D03*
X148420D02*
D03*
D26*
X66040Y26670D02*
D03*
X91440D02*
D03*
X116840D02*
D03*
X142240D02*
D03*
X167640D02*
D03*
X193040D02*
D03*
X218440D02*
D03*
D27*
X243840D02*
D03*
D28*
X384810Y567690D02*
D03*
Y542290D02*
D03*
Y516890D02*
D03*
Y491490D02*
D03*
Y466090D02*
D03*
Y440690D02*
D03*
Y415290D02*
D03*
Y389890D02*
D03*
Y364490D02*
D03*
Y339090D02*
D03*
Y313690D02*
D03*
Y288290D02*
D03*
Y262890D02*
D03*
Y237490D02*
D03*
Y212090D02*
D03*
Y186690D02*
D03*
Y161290D02*
D03*
X13970Y567690D02*
D03*
Y542290D02*
D03*
Y516890D02*
D03*
Y491490D02*
D03*
Y466090D02*
D03*
Y440690D02*
D03*
Y415290D02*
D03*
Y389890D02*
D03*
Y364490D02*
D03*
Y339090D02*
D03*
Y313690D02*
D03*
Y288290D02*
D03*
Y262890D02*
D03*
Y237490D02*
D03*
Y212090D02*
D03*
Y186690D02*
D03*
Y161290D02*
D03*
D29*
X384810Y135890D02*
D03*
X13970D02*
D03*
D30*
X300000Y110000D02*
D03*
X100000D02*
D03*
D31*
X26035Y26035D02*
D03*
X293370D02*
D03*
Y664210D02*
D03*
X26035D02*
D03*
D32*
X256540Y64770D02*
D03*
X133350Y71120D02*
D03*
D33*
X179014Y175910D02*
D03*
X179070Y197801D02*
D03*
X193040Y185135D02*
D03*
X179070Y222250D02*
D03*
X133129Y274291D02*
D03*
X181610Y252730D02*
D03*
X189230Y147320D02*
D03*
X204470Y336550D02*
D03*
X134459Y234950D02*
D03*
X44450Y217170D02*
D03*
X124042Y201240D02*
D03*
X78740Y203200D02*
D03*
X320040Y290830D02*
D03*
X124042Y177428D02*
D03*
X182880Y133350D02*
D03*
X222250Y147320D02*
D03*
X223520Y121365D02*
D03*
X99060Y203200D02*
D03*
X274411Y171701D02*
D03*
X337820Y137160D02*
D03*
X353060Y120650D02*
D03*
X349250Y85090D02*
D03*
X195580Y124460D02*
D03*
X63500Y123190D02*
D03*
X242254Y85583D02*
D03*
X152620Y87850D02*
D03*
X193040Y209550D02*
D03*
X220980Y236220D02*
D03*
X215900Y252730D02*
D03*
X227265Y177800D02*
D03*
X226060Y82550D02*
D03*
X181610Y107950D02*
D03*
X205740Y285750D02*
D03*
X369570Y279400D02*
D03*
X359620Y295910D02*
D03*
X361950Y260350D02*
D03*
X243840Y434340D02*
D03*
X152400Y439420D02*
D03*
X135478Y451262D02*
D03*
X85708Y161942D02*
D03*
X238760Y285750D02*
D03*
X135890Y250190D02*
D03*
X146050Y287020D02*
D03*
X135478Y297997D02*
D03*
X255270Y370840D02*
D03*
X307340Y266700D02*
D03*
X266700Y148590D02*
D03*
X260350Y345440D02*
D03*
X275360Y312420D02*
D03*
X157480Y377190D02*
D03*
X307340Y243840D02*
D03*
X323850D02*
D03*
X40640Y287020D02*
D03*
Y247650D02*
D03*
M02*
