M48
;Layer_Color=9474304
;FILE_FORMAT=4:4
METRIC,TZ
;TYPE=PLATED
T1F00S00C0.7112
T2F00S00C0.9000
T3F00S00C1.0200
T4F00S00C1.1000
T5F00S00C3.1750
T6F00S00C5.0000
;TYPE=NON_PLATED
T7F00S00C1.0200
%
T01
X63500Y123190
X152620Y87850
X181610Y107950
X182880Y133350
X195580Y124460
X223520Y121365
X226060Y82550
X242254Y85583
X349250Y85090
X353060Y120650
X337820Y137160
X266700Y148590
X274411Y171701
X227265Y177800
X222250Y147320
X189230
X179014Y175910
X179070Y197801
Y222250
X193040Y209550
Y185135
X181610Y252730
X215900
X220980Y236220
X205740Y285750
X238760
X275360Y312420
X260350Y345440
X255270Y370840
X243840Y434340
X152400Y439420
X157480Y377190
X204470Y336550
X146050Y287020
X320040Y290830
X307340Y266700
Y243840
X323850
X361950Y260350
X369570Y279400
X359620Y295910
X135478Y297997
X133129Y274291
X135890Y250190
X134459Y234950
X124042Y201240
X124042Y177428
X99060Y203200
X78740
X85708Y161942
X44450Y217170
X40640Y247650
Y287020
X135478Y451262
T02
X66040Y26670
X91440
X116840
X142240
X167640
X193040
X218440
X243840
T03
X186690Y429740
X216690
Y459740
X186690
X187480Y539720
X217480
X297970
X327970
Y459230
X297970
Y429230
X327970
X327180Y349250
Y319250
X297180
Y349250
X108430Y351280
Y321280
X78430
Y351280
X75720Y430500
Y460500
X105720
Y430500
X105410Y540230
Y570230
X75410
Y540230
X88420Y648940
Y678940
X118420
Y648940
X200180
Y678940
X230180
Y648940
X217480Y569720
X187480
X297970
X327970
T04
X13970Y135890
X133350Y71120
X158750
X184150
X209550
X256540Y64770
X281940
X307340
X332740
X372110Y71120
Y45720
X384810Y135890
Y161290
Y186690
Y212090
Y237490
Y262890
Y288290
Y313690
Y339090
Y364490
Y389890
Y415290
Y440690
Y466090
Y491490
Y516890
X13970
Y491490
Y466090
Y440690
Y415290
Y389890
Y364490
Y339090
Y313690
Y288290
Y262890
Y237490
Y212090
Y186690
Y161290
Y542290
Y567690
X384810
Y542290
T05
X26035Y26035
X293370
X26035Y664210
X293370
T06
X100000Y110000
X300000
T07
X156690Y469140
X246690
X267970Y468630
X357970
X357180Y358650
X267180
X138430Y360680
X48430
X45720Y469900
X135720
X135410Y579630
X45410
X58420Y688340
X148420
X170180
X260180
X267970Y579120
X247480
X157480
X357970
M30
