G04*
G04 #@! TF.GenerationSoftware,Altium Limited,Altium Designer,22.7.1 (60)*
G04*
G04 Layer_Physical_Order=4*
G04 Layer_Color=16711680*
%FSLAX44Y44*%
%MOMM*%
G71*
G04*
G04 #@! TF.SameCoordinates,868842FB-CB56-49F4-92B6-46A9E27D1440*
G04*
G04*
G04 #@! TF.FilePolarity,Positive*
G04*
G01*
G75*
%ADD13C,0.2540*%
%ADD18R,1.3606X1.1578*%
%ADD19R,1.1578X1.3606*%
%ADD23R,1.5700X1.5700*%
%ADD24C,1.5700*%
%ADD25C,1.0200*%
%ADD28C,1.7000*%
%ADD29R,1.7000X1.7000*%
%ADD34C,1.6000*%
%ADD35R,1.6000X1.6000*%
%ADD36C,1.5000*%
%ADD37R,1.5000X1.5000*%
%ADD38O,5.2000X5.4000*%
%ADD39C,3.8100*%
%ADD40R,1.6000X1.6000*%
%ADD41C,1.2700*%
%ADD42C,0.4000*%
%ADD43R,2.1000X1.4000*%
%ADD44R,1.5500X1.2500*%
%ADD45R,1.1000X1.2000*%
%ADD46R,1.0000X1.3500*%
%ADD47R,1.8000X1.0000*%
%ADD48R,5.5000X6.5000*%
%ADD49R,0.9500X2.1000*%
%ADD50C,0.3500*%
G36*
X328759Y730250D02*
X329499Y729218D01*
X328371Y725900D01*
X325931Y717041D01*
X324194Y708019D01*
X323170Y698888D01*
X322865Y689705D01*
X323282Y680526D01*
X324417Y671408D01*
X326265Y662408D01*
X328813Y653580D01*
X332046Y644980D01*
X335943Y636659D01*
X340482Y628670D01*
X345633Y621062D01*
X351366Y613881D01*
X357644Y607172D01*
X364429Y600977D01*
X371679Y595332D01*
X379350Y590275D01*
X387393Y585834D01*
X395761Y582038D01*
X400050Y580390D01*
Y26670D01*
X400112Y24106D01*
X399235Y19051D01*
X397388Y14266D01*
X394642Y9932D01*
X391105Y6217D01*
X386910Y3264D01*
X382220Y1186D01*
X377214Y63D01*
X374650Y-0D01*
X374650Y0D01*
Y0D01*
X27940D01*
X25376Y-188D01*
X20273Y445D01*
X15391Y2061D01*
X10918Y4598D01*
X7027Y7959D01*
X3865Y12015D01*
X1556Y16609D01*
X188Y21566D01*
X-0Y24130D01*
X0Y24130D01*
X-0Y659130D01*
X-31Y662593D01*
X586Y669491D01*
X1875Y676295D01*
X3826Y682941D01*
X6419Y689363D01*
X9628Y695500D01*
X13424Y701293D01*
X17769Y706686D01*
X22622Y711627D01*
X27936Y716069D01*
X33659Y719968D01*
X39738Y723288D01*
X46112Y725996D01*
X52721Y728066D01*
X59501Y729478D01*
X66387Y730219D01*
X69850Y730250D01*
X328759Y730250D01*
D02*
G37*
%LPC*%
G36*
X261186Y695980D02*
X259174D01*
X257231Y695459D01*
X255489Y694454D01*
X254067Y693031D01*
X253061Y691289D01*
X252540Y689346D01*
Y687334D01*
X253061Y685391D01*
X254067Y683649D01*
X255489Y682226D01*
X257231Y681221D01*
X259174Y680700D01*
X261186D01*
X263129Y681221D01*
X264871Y682226D01*
X266294Y683649D01*
X267299Y685391D01*
X267820Y687334D01*
Y689346D01*
X267299Y691289D01*
X266294Y693031D01*
X264871Y694454D01*
X263129Y695459D01*
X261186Y695980D01*
D02*
G37*
G36*
X171186D02*
X169174D01*
X167231Y695459D01*
X165489Y694454D01*
X164067Y693031D01*
X163061Y691289D01*
X162540Y689346D01*
Y687334D01*
X163061Y685391D01*
X164067Y683649D01*
X165489Y682226D01*
X167231Y681221D01*
X169174Y680700D01*
X171186D01*
X173129Y681221D01*
X174871Y682226D01*
X176294Y683649D01*
X177299Y685391D01*
X177820Y687334D01*
Y689346D01*
X177299Y691289D01*
X176294Y693031D01*
X174871Y694454D01*
X173129Y695459D01*
X171186Y695980D01*
D02*
G37*
G36*
X149426D02*
X147414D01*
X145471Y695459D01*
X143729Y694454D01*
X142306Y693031D01*
X141301Y691289D01*
X140780Y689346D01*
Y687334D01*
X141301Y685391D01*
X142306Y683649D01*
X143729Y682226D01*
X145471Y681221D01*
X147414Y680700D01*
X149426D01*
X151369Y681221D01*
X153111Y682226D01*
X154534Y683649D01*
X155539Y685391D01*
X156060Y687334D01*
Y689346D01*
X155539Y691289D01*
X154534Y693031D01*
X153111Y694454D01*
X151369Y695459D01*
X149426Y695980D01*
D02*
G37*
G36*
X59426D02*
X57414D01*
X55471Y695459D01*
X53729Y694454D01*
X52306Y693031D01*
X51301Y691289D01*
X50780Y689346D01*
Y687334D01*
X51301Y685391D01*
X52306Y683649D01*
X53729Y682226D01*
X55471Y681221D01*
X57414Y680700D01*
X59426D01*
X61369Y681221D01*
X63111Y682226D01*
X64534Y683649D01*
X65539Y685391D01*
X66060Y687334D01*
Y689346D01*
X65539Y691289D01*
X64534Y693031D01*
X63111Y694454D01*
X61369Y695459D01*
X59426Y695980D01*
D02*
G37*
G36*
X119788Y689330D02*
X119690D01*
Y680210D01*
X128810D01*
Y680308D01*
X128102Y682950D01*
X126734Y685320D01*
X124800Y687254D01*
X122430Y688622D01*
X119788Y689330D01*
D02*
G37*
G36*
X231548D02*
X231450D01*
Y680210D01*
X240570D01*
Y680308D01*
X239862Y682950D01*
X238494Y685320D01*
X236560Y687254D01*
X234190Y688622D01*
X231548Y689330D01*
D02*
G37*
G36*
X228910D02*
X228812D01*
X226170Y688622D01*
X223800Y687254D01*
X221866Y685320D01*
X220498Y682950D01*
X219790Y680308D01*
Y680210D01*
X228910D01*
Y689330D01*
D02*
G37*
G36*
X117150D02*
X117052D01*
X114410Y688622D01*
X112040Y687254D01*
X110106Y685320D01*
X108738Y682950D01*
X108030Y680308D01*
Y680210D01*
X117150D01*
Y689330D01*
D02*
G37*
G36*
X240570Y677670D02*
X231450D01*
Y668550D01*
X231548D01*
X234190Y669258D01*
X236560Y670626D01*
X238494Y672560D01*
X239862Y674930D01*
X240570Y677572D01*
Y677670D01*
D02*
G37*
G36*
X228910D02*
X219790D01*
Y677572D01*
X220498Y674930D01*
X221866Y672560D01*
X223800Y670626D01*
X226170Y669258D01*
X228812Y668550D01*
X228910D01*
Y677670D01*
D02*
G37*
G36*
X201548Y689330D02*
X198812D01*
X196170Y688622D01*
X193800Y687254D01*
X191866Y685320D01*
X190498Y682950D01*
X189790Y680308D01*
Y677572D01*
X190498Y674930D01*
X191866Y672560D01*
X193800Y670626D01*
X196170Y669258D01*
X198812Y668550D01*
X201548D01*
X204190Y669258D01*
X206560Y670626D01*
X208494Y672560D01*
X209862Y674930D01*
X210570Y677572D01*
Y680308D01*
X209862Y682950D01*
X208494Y685320D01*
X206560Y687254D01*
X204190Y688622D01*
X201548Y689330D01*
D02*
G37*
G36*
X128810Y677670D02*
X119690D01*
Y668550D01*
X119788D01*
X122430Y669258D01*
X124800Y670626D01*
X126734Y672560D01*
X128102Y674930D01*
X128810Y677572D01*
Y677670D01*
D02*
G37*
G36*
X117150D02*
X108030D01*
Y677572D01*
X108738Y674930D01*
X110106Y672560D01*
X112040Y670626D01*
X114410Y669258D01*
X117052Y668550D01*
X117150D01*
Y677670D01*
D02*
G37*
G36*
X89788Y689330D02*
X87052D01*
X84410Y688622D01*
X82040Y687254D01*
X80106Y685320D01*
X78738Y682950D01*
X78030Y680308D01*
Y677572D01*
X78738Y674930D01*
X80106Y672560D01*
X82040Y670626D01*
X84410Y669258D01*
X87052Y668550D01*
X89788D01*
X92430Y669258D01*
X94800Y670626D01*
X96734Y672560D01*
X98102Y674930D01*
X98810Y677572D01*
Y680308D01*
X98102Y682950D01*
X96734Y685320D01*
X94800Y687254D01*
X92430Y688622D01*
X89788Y689330D01*
D02*
G37*
G36*
X295496Y685800D02*
X291244D01*
X287072Y684970D01*
X283143Y683343D01*
X279607Y680980D01*
X276600Y677973D01*
X274237Y674437D01*
X272610Y670508D01*
X271780Y666336D01*
Y662084D01*
X272610Y657912D01*
X274237Y653983D01*
X276600Y650447D01*
X279607Y647440D01*
X283143Y645077D01*
X287072Y643450D01*
X291244Y642620D01*
X295496D01*
X299668Y643450D01*
X303597Y645077D01*
X307133Y647440D01*
X310140Y650447D01*
X312503Y653983D01*
X314130Y657912D01*
X314960Y662084D01*
Y666336D01*
X314130Y670508D01*
X312503Y674437D01*
X310140Y677973D01*
X307133Y680980D01*
X303597Y683343D01*
X299668Y684970D01*
X295496Y685800D01*
D02*
G37*
G36*
X28161D02*
X23909D01*
X19737Y684970D01*
X15808Y683343D01*
X12272Y680980D01*
X9265Y677973D01*
X6902Y674437D01*
X5275Y670508D01*
X4445Y666336D01*
Y662084D01*
X5275Y657912D01*
X6902Y653983D01*
X9265Y650447D01*
X12272Y647440D01*
X15808Y645077D01*
X19737Y643450D01*
X23909Y642620D01*
X28161D01*
X32332Y643450D01*
X36262Y645077D01*
X39798Y647440D01*
X42805Y650447D01*
X45168Y653983D01*
X46795Y657912D01*
X47625Y662084D01*
Y666336D01*
X46795Y670508D01*
X45168Y674437D01*
X42805Y677973D01*
X39798Y680980D01*
X36262Y683343D01*
X32332Y684970D01*
X28161Y685800D01*
D02*
G37*
G36*
X231548Y659330D02*
X228812D01*
X226170Y658622D01*
X223800Y657254D01*
X221866Y655320D01*
X220498Y652950D01*
X219790Y650308D01*
Y647572D01*
X220498Y644930D01*
X221866Y642560D01*
X223800Y640626D01*
X226170Y639258D01*
X228812Y638550D01*
X231548D01*
X234190Y639258D01*
X236560Y640626D01*
X238494Y642560D01*
X239862Y644930D01*
X240570Y647572D01*
Y650308D01*
X239862Y652950D01*
X238494Y655320D01*
X236560Y657254D01*
X234190Y658622D01*
X231548Y659330D01*
D02*
G37*
G36*
X136416Y587270D02*
X134404D01*
X132461Y586749D01*
X130719Y585743D01*
X129297Y584321D01*
X128291Y582579D01*
X127770Y580636D01*
Y578624D01*
X128291Y576681D01*
X129297Y574939D01*
X130719Y573517D01*
X132461Y572511D01*
X134404Y571990D01*
X136416D01*
X138359Y572511D01*
X140101Y573517D01*
X141524Y574939D01*
X142529Y576681D01*
X143050Y578624D01*
Y580636D01*
X142529Y582579D01*
X141524Y584321D01*
X140101Y585743D01*
X138359Y586749D01*
X136416Y587270D01*
D02*
G37*
G36*
X46416D02*
X44404D01*
X42461Y586749D01*
X40719Y585743D01*
X39297Y584321D01*
X38291Y582579D01*
X37770Y580636D01*
Y578624D01*
X38291Y576681D01*
X39297Y574939D01*
X40719Y573517D01*
X42461Y572511D01*
X44404Y571990D01*
X46416D01*
X48359Y572511D01*
X50101Y573517D01*
X51523Y574939D01*
X52529Y576681D01*
X53050Y578624D01*
Y580636D01*
X52529Y582579D01*
X51523Y584321D01*
X50101Y585743D01*
X48359Y586749D01*
X46416Y587270D01*
D02*
G37*
G36*
X106778Y580620D02*
X106680D01*
Y571500D01*
X115800D01*
Y571598D01*
X115092Y574240D01*
X113724Y576610D01*
X111790Y578544D01*
X109420Y579912D01*
X106778Y580620D01*
D02*
G37*
G36*
X358976Y586760D02*
X356964D01*
X355021Y586239D01*
X353279Y585233D01*
X351856Y583811D01*
X350851Y582069D01*
X350330Y580126D01*
Y578114D01*
X350851Y576171D01*
X351856Y574429D01*
X353279Y573007D01*
X355021Y572001D01*
X356964Y571480D01*
X358976D01*
X360919Y572001D01*
X362661Y573007D01*
X364084Y574429D01*
X365089Y576171D01*
X365610Y578114D01*
Y580126D01*
X365089Y582069D01*
X364084Y583811D01*
X362661Y585233D01*
X360919Y586239D01*
X358976Y586760D01*
D02*
G37*
G36*
X268976D02*
X266964D01*
X265021Y586239D01*
X263279Y585233D01*
X261856Y583811D01*
X260851Y582069D01*
X260330Y580126D01*
Y578114D01*
X260851Y576171D01*
X261856Y574429D01*
X263279Y573007D01*
X265021Y572001D01*
X266964Y571480D01*
X268976D01*
X270919Y572001D01*
X272661Y573007D01*
X274083Y574429D01*
X275089Y576171D01*
X275610Y578114D01*
Y580126D01*
X275089Y582069D01*
X274083Y583811D01*
X272661Y585233D01*
X270919Y586239D01*
X268976Y586760D01*
D02*
G37*
G36*
X248486D02*
X246474D01*
X244531Y586239D01*
X242789Y585233D01*
X241367Y583811D01*
X240361Y582069D01*
X239840Y580126D01*
Y578114D01*
X240361Y576171D01*
X241367Y574429D01*
X242789Y573007D01*
X244531Y572001D01*
X246474Y571480D01*
X248486D01*
X250429Y572001D01*
X252171Y573007D01*
X253594Y574429D01*
X254599Y576171D01*
X255120Y578114D01*
Y580126D01*
X254599Y582069D01*
X253594Y583811D01*
X252171Y585233D01*
X250429Y586239D01*
X248486Y586760D01*
D02*
G37*
G36*
X158486D02*
X156474D01*
X154531Y586239D01*
X152789Y585233D01*
X151367Y583811D01*
X150361Y582069D01*
X149840Y580126D01*
Y578114D01*
X150361Y576171D01*
X151367Y574429D01*
X152789Y573007D01*
X154531Y572001D01*
X156474Y571480D01*
X158486D01*
X160429Y572001D01*
X162171Y573007D01*
X163594Y574429D01*
X164599Y576171D01*
X165120Y578114D01*
Y580126D01*
X164599Y582069D01*
X163594Y583811D01*
X162171Y585233D01*
X160429Y586239D01*
X158486Y586760D01*
D02*
G37*
G36*
X218848Y580110D02*
X218750D01*
Y570990D01*
X227870D01*
Y571088D01*
X227162Y573730D01*
X225794Y576100D01*
X223860Y578034D01*
X221490Y579402D01*
X218848Y580110D01*
D02*
G37*
G36*
X329338D02*
X329240D01*
Y570990D01*
X338360D01*
Y571088D01*
X337652Y573730D01*
X336284Y576100D01*
X334350Y578034D01*
X331980Y579402D01*
X329338Y580110D01*
D02*
G37*
G36*
X326700D02*
X326602D01*
X323960Y579402D01*
X321590Y578034D01*
X319656Y576100D01*
X318288Y573730D01*
X317580Y571088D01*
Y570990D01*
X326700D01*
Y580110D01*
D02*
G37*
G36*
X216210D02*
X216112D01*
X213470Y579402D01*
X211100Y578034D01*
X209166Y576100D01*
X207798Y573730D01*
X207090Y571088D01*
Y570990D01*
X216210D01*
Y580110D01*
D02*
G37*
G36*
X115800Y568960D02*
X106680D01*
Y559840D01*
X106778D01*
X109420Y560548D01*
X111790Y561916D01*
X113724Y563850D01*
X115092Y566220D01*
X115800Y568862D01*
Y568960D01*
D02*
G37*
G36*
X76778Y580620D02*
X74042D01*
X71400Y579912D01*
X69030Y578544D01*
X67096Y576610D01*
X65728Y574240D01*
X65020Y571598D01*
Y568862D01*
X65728Y566220D01*
X67096Y563850D01*
X69030Y561916D01*
X71400Y560548D01*
X74042Y559840D01*
X76778D01*
X79420Y560548D01*
X81790Y561916D01*
X83724Y563850D01*
X85092Y566220D01*
X85800Y568862D01*
Y571598D01*
X85092Y574240D01*
X83724Y576610D01*
X81790Y578544D01*
X79420Y579912D01*
X76778Y580620D01*
D02*
G37*
G36*
X338360Y568450D02*
X329240D01*
Y559330D01*
X329338D01*
X331980Y560038D01*
X334350Y561406D01*
X336284Y563340D01*
X337652Y565710D01*
X338360Y568352D01*
Y568450D01*
D02*
G37*
G36*
X326700D02*
X317580D01*
Y568352D01*
X318288Y565710D01*
X319656Y563340D01*
X321590Y561406D01*
X323960Y560038D01*
X326602Y559330D01*
X326700D01*
Y568450D01*
D02*
G37*
G36*
X299338Y580110D02*
X296602D01*
X293960Y579402D01*
X291590Y578034D01*
X289656Y576100D01*
X288288Y573730D01*
X287580Y571088D01*
Y568352D01*
X288288Y565710D01*
X289656Y563340D01*
X291590Y561406D01*
X293960Y560038D01*
X296602Y559330D01*
X299338D01*
X301980Y560038D01*
X304350Y561406D01*
X306284Y563340D01*
X307652Y565710D01*
X308360Y568352D01*
Y571088D01*
X307652Y573730D01*
X306284Y576100D01*
X304350Y578034D01*
X301980Y579402D01*
X299338Y580110D01*
D02*
G37*
G36*
X227870Y568450D02*
X218750D01*
Y559330D01*
X218848D01*
X221490Y560038D01*
X223860Y561406D01*
X225794Y563340D01*
X227162Y565710D01*
X227870Y568352D01*
Y568450D01*
D02*
G37*
G36*
X216210D02*
X207090D01*
Y568352D01*
X207798Y565710D01*
X209166Y563340D01*
X211100Y561406D01*
X213470Y560038D01*
X216112Y559330D01*
X216210D01*
Y568450D01*
D02*
G37*
G36*
X188848Y580110D02*
X186112D01*
X183470Y579402D01*
X181100Y578034D01*
X179166Y576100D01*
X177798Y573730D01*
X177090Y571088D01*
Y568352D01*
X177798Y565710D01*
X179166Y563340D01*
X181100Y561406D01*
X183470Y560038D01*
X186112Y559330D01*
X188848D01*
X191490Y560038D01*
X193860Y561406D01*
X195794Y563340D01*
X197162Y565710D01*
X197870Y568352D01*
Y571088D01*
X197162Y573730D01*
X195794Y576100D01*
X193860Y578034D01*
X191490Y579402D01*
X188848Y580110D01*
D02*
G37*
G36*
X386263Y578730D02*
X383357D01*
X380549Y577978D01*
X378031Y576524D01*
X375976Y574469D01*
X374522Y571951D01*
X373770Y569143D01*
Y566237D01*
X374522Y563429D01*
X375976Y560911D01*
X378031Y558856D01*
X380549Y557402D01*
X383357Y556650D01*
X386263D01*
X389071Y557402D01*
X391589Y558856D01*
X393644Y560911D01*
X395098Y563429D01*
X395850Y566237D01*
Y569143D01*
X395098Y571951D01*
X393644Y574469D01*
X391589Y576524D01*
X389071Y577978D01*
X386263Y578730D01*
D02*
G37*
G36*
Y553330D02*
X383357D01*
X380549Y552578D01*
X378031Y551124D01*
X375976Y549069D01*
X374522Y546551D01*
X373770Y543743D01*
Y540837D01*
X374522Y538029D01*
X375976Y535511D01*
X378031Y533456D01*
X380549Y532002D01*
X383357Y531250D01*
X386263D01*
X389071Y532002D01*
X391589Y533456D01*
X393644Y535511D01*
X395098Y538029D01*
X395850Y540837D01*
Y543743D01*
X395098Y546551D01*
X393644Y549069D01*
X391589Y551124D01*
X389071Y552578D01*
X386263Y553330D01*
D02*
G37*
G36*
X188520Y664485D02*
X113590D01*
X112104Y664189D01*
X110843Y663347D01*
X101393Y653897D01*
X100551Y652636D01*
X100255Y651150D01*
Y636609D01*
X88693Y625047D01*
X87851Y623787D01*
X87555Y622300D01*
Y358644D01*
X86285Y358118D01*
X84810Y359594D01*
X82440Y360962D01*
X79798Y361670D01*
X77062D01*
X74420Y360962D01*
X72050Y359594D01*
X70116Y357660D01*
X68748Y355290D01*
X68040Y352648D01*
Y349912D01*
X68748Y347270D01*
X70116Y344900D01*
X72050Y342966D01*
X74420Y341598D01*
X77062Y340890D01*
X79798D01*
X82440Y341598D01*
X83805Y342386D01*
X85075Y341653D01*
Y331670D01*
X68040D01*
Y312054D01*
X68040Y311360D01*
X66810Y310794D01*
X62305Y315299D01*
Y411591D01*
X70824Y420110D01*
X86110D01*
Y440890D01*
X65330D01*
Y425604D01*
X55673Y415947D01*
X54831Y414687D01*
X54535Y413200D01*
Y367038D01*
X53362Y366553D01*
X53121Y366794D01*
X51379Y367799D01*
X49436Y368320D01*
X47424D01*
X45481Y367799D01*
X43739Y366794D01*
X42316Y365371D01*
X41965Y364762D01*
X40695Y365102D01*
Y462513D01*
X41965Y463246D01*
X42771Y462781D01*
X44714Y462260D01*
X46726D01*
X48669Y462781D01*
X50411Y463787D01*
X51834Y465209D01*
X52839Y466951D01*
X53360Y468894D01*
Y470906D01*
X52839Y472849D01*
X51834Y474591D01*
X50411Y476013D01*
X48669Y477019D01*
X46726Y477540D01*
X44714D01*
X42771Y477019D01*
X41965Y476554D01*
X40695Y477287D01*
Y526691D01*
X50349Y536345D01*
X65020D01*
Y529840D01*
X85800D01*
Y550620D01*
X65020D01*
Y544115D01*
X48740D01*
X47253Y543819D01*
X45993Y542977D01*
X34365Y531348D01*
X33174Y531748D01*
X33095Y531811D01*
Y588121D01*
X83524Y638550D01*
X98810D01*
Y659330D01*
X78030D01*
Y644044D01*
X26463Y592477D01*
X25621Y591217D01*
X25325Y589730D01*
Y572642D01*
X24055Y572302D01*
X22804Y574469D01*
X20749Y576524D01*
X18231Y577978D01*
X15423Y578730D01*
X12517D01*
X9709Y577978D01*
X7191Y576524D01*
X5136Y574469D01*
X3682Y571951D01*
X2930Y569143D01*
Y566237D01*
X3682Y563429D01*
X5136Y560911D01*
X7191Y558856D01*
X9709Y557402D01*
X12517Y556650D01*
X15423D01*
X18231Y557402D01*
X20749Y558856D01*
X22804Y560911D01*
X24055Y563078D01*
X25325Y562738D01*
Y547242D01*
X24055Y546902D01*
X22804Y549069D01*
X20749Y551124D01*
X18231Y552578D01*
X15423Y553330D01*
X12517D01*
X9709Y552578D01*
X7191Y551124D01*
X5136Y549069D01*
X3682Y546551D01*
X2930Y543743D01*
Y540837D01*
X3682Y538029D01*
X5136Y535511D01*
X7191Y533456D01*
X9709Y532002D01*
X12517Y531250D01*
X15423D01*
X18231Y532002D01*
X20749Y533456D01*
X22804Y535511D01*
X24055Y537678D01*
X25325Y537338D01*
Y521842D01*
X24055Y521502D01*
X22804Y523669D01*
X20749Y525724D01*
X18231Y527178D01*
X15423Y527930D01*
X12517D01*
X9709Y527178D01*
X7191Y525724D01*
X5136Y523669D01*
X3682Y521151D01*
X2930Y518343D01*
Y515437D01*
X3682Y512629D01*
X5136Y510111D01*
X7191Y508056D01*
X9709Y506602D01*
X12517Y505850D01*
X15423D01*
X18231Y506602D01*
X20749Y508056D01*
X22804Y510111D01*
X24055Y512278D01*
X25325Y511938D01*
Y496442D01*
X24055Y496102D01*
X22804Y498269D01*
X20749Y500324D01*
X18231Y501778D01*
X15423Y502530D01*
X12517D01*
X9709Y501778D01*
X7191Y500324D01*
X5136Y498269D01*
X3682Y495751D01*
X2930Y492943D01*
Y490037D01*
X3682Y487229D01*
X5136Y484711D01*
X7191Y482656D01*
X9709Y481202D01*
X12517Y480450D01*
X15423D01*
X18231Y481202D01*
X20749Y482656D01*
X22804Y484711D01*
X24055Y486878D01*
X25325Y486538D01*
Y471042D01*
X24055Y470702D01*
X22804Y472869D01*
X20749Y474924D01*
X18231Y476378D01*
X15423Y477130D01*
X12517D01*
X9709Y476378D01*
X7191Y474924D01*
X5136Y472869D01*
X3682Y470351D01*
X2930Y467543D01*
Y464637D01*
X3682Y461829D01*
X5136Y459311D01*
X7191Y457256D01*
X9709Y455802D01*
X12517Y455050D01*
X15423D01*
X18231Y455802D01*
X20749Y457256D01*
X22804Y459311D01*
X24055Y461478D01*
X25325Y461138D01*
Y445642D01*
X24055Y445302D01*
X22804Y447469D01*
X20749Y449524D01*
X18231Y450978D01*
X15423Y451730D01*
X12517D01*
X9709Y450978D01*
X7191Y449524D01*
X5136Y447469D01*
X3682Y444951D01*
X2930Y442143D01*
Y439237D01*
X3682Y436429D01*
X5136Y433911D01*
X7191Y431856D01*
X9709Y430402D01*
X12517Y429650D01*
X15423D01*
X18231Y430402D01*
X20749Y431856D01*
X22804Y433911D01*
X24055Y436078D01*
X25325Y435738D01*
Y420242D01*
X24055Y419902D01*
X22804Y422069D01*
X20749Y424124D01*
X18231Y425578D01*
X15423Y426330D01*
X12517D01*
X9709Y425578D01*
X7191Y424124D01*
X5136Y422069D01*
X3682Y419551D01*
X2930Y416743D01*
Y413837D01*
X3682Y411029D01*
X5136Y408511D01*
X7191Y406456D01*
X9709Y405002D01*
X12517Y404250D01*
X15423D01*
X18231Y405002D01*
X20749Y406456D01*
X22804Y408511D01*
X24055Y410678D01*
X25325Y410338D01*
Y394842D01*
X24055Y394502D01*
X22804Y396669D01*
X20749Y398724D01*
X18231Y400178D01*
X15423Y400930D01*
X12517D01*
X9709Y400178D01*
X7191Y398724D01*
X5136Y396669D01*
X3682Y394151D01*
X2930Y391343D01*
Y388437D01*
X3682Y385629D01*
X5136Y383111D01*
X7191Y381056D01*
X9709Y379602D01*
X12517Y378850D01*
X15423D01*
X18231Y379602D01*
X20749Y381056D01*
X22804Y383111D01*
X24055Y385278D01*
X25325Y384938D01*
Y369442D01*
X24055Y369102D01*
X22804Y371269D01*
X20749Y373324D01*
X18231Y374778D01*
X15423Y375530D01*
X12517D01*
X9709Y374778D01*
X7191Y373324D01*
X5136Y371269D01*
X3682Y368751D01*
X2930Y365943D01*
Y363037D01*
X3682Y360229D01*
X5136Y357711D01*
X7191Y355656D01*
X9709Y354202D01*
X12517Y353450D01*
X15423D01*
X18231Y354202D01*
X20749Y355656D01*
X22804Y357711D01*
X24055Y359878D01*
X25325Y359538D01*
Y344042D01*
X24055Y343702D01*
X22804Y345869D01*
X20749Y347924D01*
X18231Y349378D01*
X15423Y350130D01*
X12517D01*
X9709Y349378D01*
X7191Y347924D01*
X5136Y345869D01*
X3682Y343351D01*
X2930Y340543D01*
Y337637D01*
X3682Y334829D01*
X5136Y332311D01*
X7191Y330256D01*
X9709Y328802D01*
X12517Y328050D01*
X15423D01*
X18231Y328802D01*
X20749Y330256D01*
X22804Y332311D01*
X24055Y334478D01*
X25325Y334138D01*
Y325120D01*
X25621Y323633D01*
X26463Y322373D01*
X58845Y289991D01*
Y274650D01*
X58920Y274275D01*
Y221075D01*
X52461D01*
X51564Y222629D01*
X49909Y224284D01*
X47881Y225454D01*
X45620Y226060D01*
X43280D01*
X41019Y225454D01*
X38991Y224284D01*
X37336Y222629D01*
X36166Y220601D01*
X35560Y218340D01*
Y216000D01*
X36166Y213739D01*
X37336Y211711D01*
X38991Y210056D01*
X41019Y208886D01*
X43280Y208280D01*
X45620D01*
X47881Y208886D01*
X49909Y210056D01*
X51564Y211711D01*
X52484Y213305D01*
X62730D01*
X63105Y213380D01*
X74855D01*
Y211222D01*
X73281Y210314D01*
X71626Y208659D01*
X70456Y206631D01*
X69850Y204370D01*
Y202030D01*
X70456Y199769D01*
X70576Y199560D01*
X69941Y198460D01*
X58870D01*
Y172380D01*
X62275D01*
Y170271D01*
X54157D01*
Y153613D01*
Y146668D01*
X63500D01*
Y144128D01*
X54157D01*
Y137069D01*
X59615D01*
Y131213D01*
X58041Y130304D01*
X56386Y128649D01*
X55216Y126621D01*
X54637Y124460D01*
X72363D01*
X71784Y126621D01*
X70614Y128649D01*
X68959Y130304D01*
X67385Y131213D01*
Y137069D01*
X72843D01*
Y141514D01*
X104761D01*
X104824Y140244D01*
X103687Y139338D01*
X100000Y139628D01*
X95522Y139276D01*
X91153Y138227D01*
X87003Y136508D01*
X83173Y134161D01*
X79757Y131243D01*
X76839Y127827D01*
X74492Y123997D01*
X73597Y121837D01*
X73050Y121920D01*
X64770D01*
Y114327D01*
X66931Y114906D01*
X68959Y116076D01*
X70614Y117731D01*
X71205Y118755D01*
X72397Y118279D01*
X71724Y115478D01*
X71372Y111000D01*
Y109000D01*
X71724Y104522D01*
X72773Y100153D01*
X74492Y96003D01*
X76839Y92173D01*
X79757Y88757D01*
X83173Y85839D01*
X87003Y83492D01*
X91153Y81773D01*
X95522Y80724D01*
X100000Y80372D01*
X104479Y80724D01*
X108847Y81773D01*
X112997Y83492D01*
X116827Y85839D01*
X120243Y88757D01*
X123161Y92173D01*
X125508Y96003D01*
X127227Y100153D01*
X128276Y104522D01*
X128628Y109000D01*
Y111000D01*
X128276Y115478D01*
X127227Y119847D01*
X125508Y123997D01*
X123161Y127827D01*
X120243Y131243D01*
X116827Y134161D01*
X113090Y136451D01*
X113076Y136518D01*
X113775Y137721D01*
X123643D01*
Y144780D01*
X114300D01*
Y147320D01*
X123643D01*
Y154265D01*
Y156916D01*
X131516D01*
Y81660D01*
X122810D01*
Y60580D01*
X138396D01*
X154733Y44243D01*
X155993Y43401D01*
X157480Y43105D01*
X205820D01*
Y37700D01*
X214555D01*
Y36020D01*
X212275Y34704D01*
X210406Y32835D01*
X209084Y30545D01*
X208400Y27992D01*
Y25348D01*
X209084Y22795D01*
X210406Y20505D01*
X212275Y18636D01*
X214565Y17314D01*
X217118Y16630D01*
X219762D01*
X222315Y17314D01*
X224605Y18636D01*
X226474Y20505D01*
X227796Y22795D01*
X228480Y25348D01*
Y27992D01*
X227796Y30545D01*
X226474Y32835D01*
X224605Y34704D01*
X222325Y36020D01*
Y40160D01*
X222029Y41647D01*
X221187Y42907D01*
X220900Y43194D01*
Y49264D01*
X221587Y49723D01*
X222647Y50783D01*
X223820Y50297D01*
Y37700D01*
X233406D01*
X233725Y37381D01*
Y32900D01*
X233800Y32525D01*
Y16630D01*
X253880D01*
Y36710D01*
X241495D01*
Y38990D01*
X241199Y40477D01*
X240357Y41737D01*
X238900Y43194D01*
Y56280D01*
X239841Y57075D01*
X246000D01*
Y54230D01*
X261586D01*
X267913Y47903D01*
X269173Y47061D01*
X270660Y46765D01*
X283745D01*
X283993Y45520D01*
X283143Y45168D01*
X279607Y42805D01*
X276600Y39798D01*
X274237Y36262D01*
X272610Y32333D01*
X271780Y28161D01*
Y23909D01*
X272610Y19737D01*
X274237Y15808D01*
X276600Y12272D01*
X279607Y9265D01*
X283143Y6902D01*
X287072Y5275D01*
X291244Y4445D01*
X295496D01*
X299668Y5275D01*
X303597Y6902D01*
X307133Y9265D01*
X310140Y12272D01*
X312503Y15808D01*
X314130Y19737D01*
X314960Y23909D01*
Y28161D01*
X314130Y32333D01*
X312503Y36262D01*
X310140Y39798D01*
X307133Y42805D01*
X303597Y45168D01*
X302747Y45520D01*
X302995Y46765D01*
X315991D01*
X321180Y41576D01*
Y29490D01*
X341760D01*
Y42885D01*
X341808Y43124D01*
X351997Y53313D01*
X352839Y54573D01*
X353135Y56060D01*
Y77067D01*
X354709Y77976D01*
X356364Y79631D01*
X357534Y81659D01*
X358140Y83920D01*
Y86260D01*
X357534Y88521D01*
X356364Y90549D01*
X354709Y92204D01*
X352681Y93374D01*
X350420Y93980D01*
X348080D01*
X345819Y93374D01*
X343791Y92204D01*
X342136Y90549D01*
X340966Y88521D01*
X340360Y86260D01*
Y83920D01*
X340966Y81659D01*
X342136Y79631D01*
X343791Y77976D01*
X345365Y77067D01*
Y57669D01*
X335203Y47507D01*
X334911Y47070D01*
X326674D01*
X320347Y53397D01*
X319087Y54239D01*
X317600Y54535D01*
X313232D01*
X312892Y55805D01*
X313812Y56336D01*
X315774Y58298D01*
X317162Y60702D01*
X317880Y63382D01*
Y66158D01*
X317162Y68838D01*
X317067Y69003D01*
X351599Y103535D01*
X352440Y104795D01*
X352736Y106282D01*
Y106605D01*
X364272D01*
X365759Y106901D01*
X367019Y107743D01*
X374857Y115581D01*
X375699Y116841D01*
X375995Y118328D01*
Y124850D01*
X395850D01*
Y146930D01*
X375995D01*
Y152833D01*
X377168Y153319D01*
X378031Y152456D01*
X380549Y151002D01*
X383357Y150250D01*
X383540D01*
Y161290D01*
Y172330D01*
X383357D01*
X380549Y171578D01*
X378031Y170124D01*
X377168Y169261D01*
X375995Y169747D01*
Y178233D01*
X377168Y178719D01*
X378031Y177856D01*
X380549Y176402D01*
X383357Y175650D01*
X386263D01*
X389071Y176402D01*
X391589Y177856D01*
X393644Y179911D01*
X395098Y182429D01*
X395850Y185237D01*
Y188143D01*
X395098Y190951D01*
X393644Y193469D01*
X391589Y195524D01*
X389071Y196978D01*
X386263Y197730D01*
X383357D01*
X380549Y196978D01*
X378031Y195524D01*
X377168Y194661D01*
X375995Y195147D01*
Y203633D01*
X377168Y204119D01*
X378031Y203256D01*
X380549Y201802D01*
X383357Y201050D01*
X383540D01*
Y212090D01*
Y223130D01*
X383357D01*
X380549Y222378D01*
X378031Y220924D01*
X377168Y220061D01*
X375995Y220547D01*
Y229033D01*
X377168Y229519D01*
X378031Y228656D01*
X380549Y227202D01*
X383357Y226450D01*
X386263D01*
X389071Y227202D01*
X391589Y228656D01*
X393644Y230711D01*
X395098Y233229D01*
X395850Y236037D01*
Y238943D01*
X395098Y241751D01*
X393644Y244269D01*
X391589Y246324D01*
X389071Y247778D01*
X386263Y248530D01*
X383357D01*
X380549Y247778D01*
X378031Y246324D01*
X377168Y245461D01*
X375995Y245947D01*
Y250190D01*
X375699Y251677D01*
X374857Y252937D01*
X370370Y257424D01*
X370840Y259180D01*
Y261520D01*
X370234Y263781D01*
X369064Y265809D01*
X367409Y267464D01*
X365381Y268634D01*
X363120Y269240D01*
X360780D01*
X359024Y268770D01*
X348055Y279739D01*
Y348750D01*
X347759Y350236D01*
X346917Y351497D01*
X324827Y373587D01*
X323566Y374429D01*
X322080Y374725D01*
X263293D01*
X262384Y376299D01*
X260729Y377954D01*
X258701Y379124D01*
X256440Y379730D01*
X254100D01*
X251839Y379124D01*
X249811Y377954D01*
X248156Y376299D01*
X246986Y374271D01*
X246380Y372010D01*
Y369670D01*
X246986Y367409D01*
X248156Y365381D01*
X249811Y363726D01*
X251839Y362556D01*
X254100Y361950D01*
X256440D01*
X258701Y362556D01*
X259369Y362941D01*
X260299Y362012D01*
X260061Y361599D01*
X259540Y359656D01*
Y357644D01*
X260061Y355701D01*
X260217Y355430D01*
X259582Y354330D01*
X259180D01*
X256919Y353724D01*
X254891Y352554D01*
X253236Y350899D01*
X252066Y348871D01*
X251460Y346610D01*
Y344270D01*
X252066Y342009D01*
X253236Y339981D01*
X254891Y338326D01*
X256919Y337156D01*
X259180Y336550D01*
X261520D01*
X263276Y337020D01*
X278089Y322207D01*
X277432Y321068D01*
X276530Y321310D01*
X274190D01*
X271929Y320704D01*
X269901Y319534D01*
X268246Y317879D01*
X267076Y315851D01*
X266470Y313590D01*
Y311250D01*
X267076Y308989D01*
X268246Y306961D01*
X269901Y305306D01*
X271929Y304136D01*
X272975Y303855D01*
Y279341D01*
X231058Y237423D01*
X229734Y237896D01*
X229264Y239651D01*
X228094Y241679D01*
X226439Y243334D01*
X224411Y244504D01*
X222543Y245005D01*
X222131Y246004D01*
X222122Y246380D01*
X223014Y247271D01*
X224184Y249299D01*
X224790Y251560D01*
Y253900D01*
X224184Y256161D01*
X223014Y258189D01*
X221359Y259844D01*
X219331Y261014D01*
X217070Y261620D01*
X214730D01*
X212469Y261014D01*
X210441Y259844D01*
X208786Y258189D01*
X207616Y256161D01*
X207010Y253900D01*
Y251560D01*
X207616Y249299D01*
X208786Y247271D01*
X210441Y245616D01*
X212469Y244446D01*
X214337Y243945D01*
X214749Y242946D01*
X214758Y242570D01*
X213866Y241679D01*
X212696Y239651D01*
X212090Y237390D01*
Y235050D01*
X212696Y232789D01*
X213866Y230761D01*
X215521Y229106D01*
X217549Y227936D01*
X219304Y227465D01*
X219777Y226142D01*
X207069Y213435D01*
X201063D01*
X200154Y215009D01*
X198499Y216664D01*
X196471Y217834D01*
X194210Y218440D01*
X191870D01*
X189609Y217834D01*
X187581Y216664D01*
X187570Y216652D01*
X186554Y217432D01*
X187354Y218819D01*
X187960Y221080D01*
Y223420D01*
X187354Y225681D01*
X186184Y227709D01*
X184529Y229364D01*
X182501Y230534D01*
X180240Y231140D01*
X177900D01*
X175639Y230534D01*
X174009Y229593D01*
X172739Y230154D01*
Y247775D01*
X174009Y248115D01*
X174496Y247271D01*
X176151Y245616D01*
X178179Y244446D01*
X180440Y243840D01*
X182780D01*
X185041Y244446D01*
X187069Y245616D01*
X188724Y247271D01*
X189894Y249299D01*
X190500Y251560D01*
Y253900D01*
X189894Y256161D01*
X188724Y258189D01*
X187069Y259844D01*
X185041Y261014D01*
X182780Y261620D01*
X180440D01*
X178179Y261014D01*
X176151Y259844D01*
X174496Y258189D01*
X174009Y257345D01*
X172739Y257685D01*
Y299325D01*
X201544Y328130D01*
X203300Y327660D01*
X205640D01*
X207901Y328266D01*
X209929Y329436D01*
X211584Y331091D01*
X212754Y333119D01*
X213360Y335380D01*
Y337720D01*
X212754Y339981D01*
X211584Y342009D01*
X209929Y343664D01*
X207901Y344834D01*
X205640Y345440D01*
X203300D01*
X201039Y344834D01*
X199011Y343664D01*
X197356Y342009D01*
X196186Y339981D01*
X195580Y337720D01*
Y335380D01*
X196050Y333624D01*
X166108Y303681D01*
X165266Y302421D01*
X165175Y301964D01*
X163905Y302089D01*
Y348911D01*
X218779Y403785D01*
X276410D01*
X277897Y404081D01*
X279157Y404923D01*
X293074Y418840D01*
X308360D01*
Y439620D01*
X287580D01*
Y424334D01*
X274801Y411555D01*
X217170D01*
X215683Y411259D01*
X214423Y410417D01*
X157273Y353267D01*
X156431Y352007D01*
X156135Y350520D01*
Y288636D01*
X154865Y288469D01*
X154334Y290451D01*
X153164Y292479D01*
X151509Y294134D01*
X149481Y295304D01*
X147220Y295910D01*
X145437D01*
X144549Y296672D01*
X144368Y297088D01*
Y299167D01*
X143762Y301428D01*
X142592Y303456D01*
X140937Y305111D01*
X138910Y306281D01*
X136648Y306887D01*
X134308D01*
X132047Y306281D01*
X130473Y305372D01*
X129306Y305925D01*
X129203Y306042D01*
Y373899D01*
X156549Y401245D01*
X162080D01*
X163566Y401541D01*
X164827Y402383D01*
X181794Y419350D01*
X197080D01*
Y440130D01*
X176300D01*
Y424844D01*
X160471Y409015D01*
X154940D01*
X153453Y408719D01*
X152193Y407877D01*
X125148Y380832D01*
X123975Y381318D01*
Y399151D01*
X140394Y415570D01*
X154025D01*
X155512Y415866D01*
X156772Y416708D01*
X168347Y428283D01*
X169189Y429543D01*
X169485Y431030D01*
Y484031D01*
X202269Y516815D01*
X278950D01*
X280437Y517111D01*
X281697Y517953D01*
X293074Y529330D01*
X308360D01*
Y550110D01*
X287580D01*
Y534824D01*
X277341Y524585D01*
X200660D01*
X199173Y524289D01*
X197913Y523447D01*
X162853Y488387D01*
X162011Y487127D01*
X161715Y485640D01*
Y476527D01*
X160445Y475794D01*
X159639Y476259D01*
X157696Y476780D01*
X155684D01*
X153741Y476259D01*
X151999Y475253D01*
X150576Y473831D01*
X149571Y472089D01*
X149050Y470146D01*
Y468134D01*
X149571Y466191D01*
X150576Y464449D01*
X151999Y463027D01*
X153741Y462021D01*
X155684Y461500D01*
X157696D01*
X159639Y462021D01*
X160445Y462486D01*
X161715Y461753D01*
Y443605D01*
X160445Y443265D01*
X159514Y444879D01*
X157859Y446534D01*
X155831Y447704D01*
X153570Y448310D01*
X151230D01*
X148969Y447704D01*
X146941Y446534D01*
X145286Y444879D01*
X144116Y442851D01*
X143510Y440590D01*
Y438250D01*
X144116Y435989D01*
X145286Y433961D01*
X146941Y432306D01*
X148969Y431136D01*
X151230Y430530D01*
X153570D01*
X155831Y431136D01*
X157859Y432306D01*
X159514Y433961D01*
X160445Y435575D01*
X161715Y435235D01*
Y432639D01*
X152416Y423340D01*
X138785D01*
X137298Y423044D01*
X136038Y422202D01*
X117343Y403507D01*
X116501Y402247D01*
X116205Y400760D01*
Y359858D01*
X115032Y359372D01*
X114810Y359594D01*
X112440Y360962D01*
X109798Y361670D01*
X109700D01*
Y351280D01*
Y340890D01*
X109798D01*
X112440Y341598D01*
X114810Y342966D01*
X115032Y343188D01*
X116205Y342702D01*
Y329858D01*
X115032Y329372D01*
X114810Y329594D01*
X112440Y330962D01*
X109798Y331670D01*
X107062D01*
X104420Y330962D01*
X102050Y329594D01*
X101578Y329122D01*
X100405Y329608D01*
Y342952D01*
X101578Y343438D01*
X102050Y342966D01*
X104420Y341598D01*
X107062Y340890D01*
X107160D01*
Y351280D01*
Y361670D01*
X107062D01*
X104420Y360962D01*
X102050Y359594D01*
X101578Y359122D01*
X100405Y359608D01*
Y398441D01*
X128065Y426101D01*
X128907Y427361D01*
X129203Y428848D01*
Y443285D01*
X130473Y443886D01*
X132047Y442978D01*
X134308Y442372D01*
X136648D01*
X138910Y442978D01*
X140937Y444148D01*
X142592Y445803D01*
X143762Y447831D01*
X144368Y450092D01*
Y452432D01*
X143762Y454693D01*
X142592Y456721D01*
X140937Y458376D01*
X138910Y459546D01*
X136648Y460152D01*
X134308D01*
X132047Y459546D01*
X130473Y458637D01*
X129203Y459239D01*
Y463817D01*
X130473Y464343D01*
X131029Y463787D01*
X132771Y462781D01*
X134714Y462260D01*
X136726D01*
X138669Y462781D01*
X140411Y463787D01*
X141833Y465209D01*
X142839Y466951D01*
X143360Y468894D01*
Y470906D01*
X142839Y472849D01*
X141833Y474591D01*
X140411Y476013D01*
X138669Y477019D01*
X136726Y477540D01*
X134714D01*
X132771Y477019D01*
X131029Y476013D01*
X130473Y475457D01*
X129203Y475983D01*
Y532649D01*
X132389Y535835D01*
X177090D01*
Y529330D01*
X197870D01*
Y550110D01*
X177090D01*
Y543605D01*
X130780D01*
X129293Y543309D01*
X128033Y542467D01*
X122571Y537005D01*
X121729Y535745D01*
X121433Y534258D01*
Y430457D01*
X116052Y425076D01*
X115036Y425856D01*
X115402Y426490D01*
X116110Y429132D01*
Y431868D01*
X115402Y434510D01*
X114034Y436880D01*
X112100Y438814D01*
X109730Y440182D01*
X107088Y440890D01*
X104352D01*
X101710Y440182D01*
X99340Y438814D01*
X97406Y436880D01*
X96595Y435474D01*
X95325Y435815D01*
Y455185D01*
X96595Y455526D01*
X97406Y454120D01*
X99340Y452186D01*
X101710Y450818D01*
X104352Y450110D01*
X104450D01*
Y460500D01*
Y470890D01*
X104352D01*
X101710Y470182D01*
X99340Y468814D01*
X97406Y466880D01*
X96595Y465474D01*
X95325Y465815D01*
Y534378D01*
X96595Y534719D01*
X97096Y533850D01*
X99030Y531916D01*
X101400Y530548D01*
X104042Y529840D01*
X106778D01*
X109420Y530548D01*
X111790Y531916D01*
X113724Y533850D01*
X115092Y536220D01*
X115800Y538862D01*
Y541598D01*
X115092Y544240D01*
X113724Y546610D01*
X111790Y548544D01*
X109420Y549912D01*
X106778Y550620D01*
X104042D01*
X101400Y549912D01*
X99030Y548544D01*
X97096Y546610D01*
X96595Y545741D01*
X95325Y546082D01*
Y564378D01*
X96595Y564719D01*
X97096Y563850D01*
X99030Y561916D01*
X101400Y560548D01*
X104042Y559840D01*
X104140D01*
Y570230D01*
Y580620D01*
X104042D01*
X101400Y579912D01*
X99030Y578544D01*
X97096Y576610D01*
X96595Y575741D01*
X95325Y576082D01*
Y620691D01*
X106887Y632253D01*
X107729Y633513D01*
X108025Y635000D01*
Y643625D01*
X109295Y643966D01*
X110106Y642560D01*
X112040Y640626D01*
X114410Y639258D01*
X117052Y638550D01*
X119788D01*
X122430Y639258D01*
X124800Y640626D01*
X126734Y642560D01*
X128102Y644930D01*
X128810Y647572D01*
Y650308D01*
X128102Y652950D01*
X126734Y655320D01*
X126512Y655542D01*
X126998Y656715D01*
X186911D01*
X189790Y653836D01*
Y638550D01*
X210570D01*
Y659330D01*
X195284D01*
X191267Y663347D01*
X190007Y664189D01*
X188520Y664485D01*
D02*
G37*
G36*
X329338Y550110D02*
X326602D01*
X323960Y549402D01*
X321590Y548034D01*
X319656Y546100D01*
X318288Y543730D01*
X317580Y541088D01*
Y538352D01*
X318288Y535710D01*
X319656Y533340D01*
X321590Y531406D01*
X323960Y530038D01*
X326602Y529330D01*
X329338D01*
X331980Y530038D01*
X334350Y531406D01*
X336284Y533340D01*
X337652Y535710D01*
X338360Y538352D01*
Y541088D01*
X337652Y543730D01*
X336284Y546100D01*
X334350Y548034D01*
X331980Y549402D01*
X329338Y550110D01*
D02*
G37*
G36*
X218848D02*
X216112D01*
X213470Y549402D01*
X211100Y548034D01*
X209166Y546100D01*
X207798Y543730D01*
X207090Y541088D01*
Y538352D01*
X207798Y535710D01*
X209166Y533340D01*
X211100Y531406D01*
X213470Y530038D01*
X216112Y529330D01*
X218848D01*
X221490Y530038D01*
X223860Y531406D01*
X225794Y533340D01*
X227162Y535710D01*
X227870Y538352D01*
Y541088D01*
X227162Y543730D01*
X225794Y546100D01*
X223860Y548034D01*
X221490Y549402D01*
X218848Y550110D01*
D02*
G37*
G36*
X386263Y527930D02*
X383357D01*
X380549Y527178D01*
X378031Y525724D01*
X375976Y523669D01*
X374522Y521151D01*
X373770Y518343D01*
Y515437D01*
X374522Y512629D01*
X375976Y510111D01*
X378031Y508056D01*
X380549Y506602D01*
X383357Y505850D01*
X386263D01*
X389071Y506602D01*
X391589Y508056D01*
X393644Y510111D01*
X395098Y512629D01*
X395850Y515437D01*
Y518343D01*
X395098Y521151D01*
X393644Y523669D01*
X391589Y525724D01*
X389071Y527178D01*
X386263Y527930D01*
D02*
G37*
G36*
Y502530D02*
X383357D01*
X380549Y501778D01*
X378031Y500324D01*
X375976Y498269D01*
X374522Y495751D01*
X373770Y492943D01*
Y490037D01*
X374522Y487229D01*
X375976Y484711D01*
X378031Y482656D01*
X380549Y481202D01*
X383357Y480450D01*
X386263D01*
X389071Y481202D01*
X391589Y482656D01*
X393644Y484711D01*
X395098Y487229D01*
X395850Y490037D01*
Y492943D01*
X395098Y495751D01*
X393644Y498269D01*
X391589Y500324D01*
X389071Y501778D01*
X386263Y502530D01*
D02*
G37*
G36*
X107088Y470890D02*
X106990D01*
Y461770D01*
X116110D01*
Y461868D01*
X115402Y464510D01*
X114034Y466880D01*
X112100Y468814D01*
X109730Y470182D01*
X107088Y470890D01*
D02*
G37*
G36*
X247696Y476780D02*
X245684D01*
X243741Y476259D01*
X241999Y475253D01*
X240576Y473831D01*
X239571Y472089D01*
X239050Y470146D01*
Y468134D01*
X239571Y466191D01*
X240576Y464449D01*
X241999Y463027D01*
X243741Y462021D01*
X245684Y461500D01*
X247696D01*
X249639Y462021D01*
X251381Y463027D01*
X252803Y464449D01*
X253809Y466191D01*
X254330Y468134D01*
Y470146D01*
X253809Y472089D01*
X252803Y473831D01*
X251381Y475253D01*
X249639Y476259D01*
X247696Y476780D01*
D02*
G37*
G36*
X218058Y470130D02*
X217960D01*
Y461010D01*
X227080D01*
Y461108D01*
X226372Y463750D01*
X225004Y466120D01*
X223070Y468054D01*
X220700Y469422D01*
X218058Y470130D01*
D02*
G37*
G36*
X215420D02*
X215322D01*
X212680Y469422D01*
X210310Y468054D01*
X208376Y466120D01*
X207008Y463750D01*
X206300Y461108D01*
Y461010D01*
X215420D01*
Y470130D01*
D02*
G37*
G36*
X358976Y476270D02*
X356964D01*
X355021Y475749D01*
X353279Y474743D01*
X351856Y473321D01*
X350851Y471579D01*
X350330Y469636D01*
Y467624D01*
X350851Y465681D01*
X351856Y463939D01*
X353279Y462517D01*
X355021Y461511D01*
X356964Y460990D01*
X358976D01*
X360919Y461511D01*
X362661Y462517D01*
X364084Y463939D01*
X365089Y465681D01*
X365610Y467624D01*
Y469636D01*
X365089Y471579D01*
X364084Y473321D01*
X362661Y474743D01*
X360919Y475749D01*
X358976Y476270D01*
D02*
G37*
G36*
X268976D02*
X266964D01*
X265021Y475749D01*
X263279Y474743D01*
X261856Y473321D01*
X260851Y471579D01*
X260330Y469636D01*
Y467624D01*
X260851Y465681D01*
X261856Y463939D01*
X263279Y462517D01*
X265021Y461511D01*
X266964Y460990D01*
X268976D01*
X270919Y461511D01*
X272661Y462517D01*
X274083Y463939D01*
X275089Y465681D01*
X275610Y467624D01*
Y469636D01*
X275089Y471579D01*
X274083Y473321D01*
X272661Y474743D01*
X270919Y475749D01*
X268976Y476270D01*
D02*
G37*
G36*
X329338Y469620D02*
X329240D01*
Y460500D01*
X338360D01*
Y460598D01*
X337652Y463240D01*
X336284Y465610D01*
X334350Y467544D01*
X331980Y468912D01*
X329338Y469620D01*
D02*
G37*
G36*
X326700D02*
X326602D01*
X323960Y468912D01*
X321590Y467544D01*
X319656Y465610D01*
X318288Y463240D01*
X317580Y460598D01*
Y460500D01*
X326700D01*
Y469620D01*
D02*
G37*
G36*
X386263Y477130D02*
X383357D01*
X380549Y476378D01*
X378031Y474924D01*
X375976Y472869D01*
X374522Y470351D01*
X373770Y467543D01*
Y464637D01*
X374522Y461829D01*
X375976Y459311D01*
X378031Y457256D01*
X380549Y455802D01*
X383357Y455050D01*
X386263D01*
X389071Y455802D01*
X391589Y457256D01*
X393644Y459311D01*
X395098Y461829D01*
X395850Y464637D01*
Y467543D01*
X395098Y470351D01*
X393644Y472869D01*
X391589Y474924D01*
X389071Y476378D01*
X386263Y477130D01*
D02*
G37*
G36*
X116110Y459230D02*
X106990D01*
Y450110D01*
X107088D01*
X109730Y450818D01*
X112100Y452186D01*
X114034Y454120D01*
X115402Y456490D01*
X116110Y459132D01*
Y459230D01*
D02*
G37*
G36*
X77088Y470890D02*
X74352D01*
X71710Y470182D01*
X69340Y468814D01*
X67406Y466880D01*
X66038Y464510D01*
X65330Y461868D01*
Y459132D01*
X66038Y456490D01*
X67406Y454120D01*
X69340Y452186D01*
X71710Y450818D01*
X74352Y450110D01*
X77088D01*
X79730Y450818D01*
X82100Y452186D01*
X84034Y454120D01*
X85402Y456490D01*
X86110Y459132D01*
Y461868D01*
X85402Y464510D01*
X84034Y466880D01*
X82100Y468814D01*
X79730Y470182D01*
X77088Y470890D01*
D02*
G37*
G36*
X227080Y458470D02*
X217960D01*
Y449350D01*
X218058D01*
X220700Y450058D01*
X223070Y451426D01*
X225004Y453360D01*
X226372Y455730D01*
X227080Y458372D01*
Y458470D01*
D02*
G37*
G36*
X215420D02*
X206300D01*
Y458372D01*
X207008Y455730D01*
X208376Y453360D01*
X210310Y451426D01*
X212680Y450058D01*
X215322Y449350D01*
X215420D01*
Y458470D01*
D02*
G37*
G36*
X188058Y470130D02*
X185322D01*
X182680Y469422D01*
X180310Y468054D01*
X178376Y466120D01*
X177008Y463750D01*
X176300Y461108D01*
Y458372D01*
X177008Y455730D01*
X178376Y453360D01*
X180310Y451426D01*
X182680Y450058D01*
X185322Y449350D01*
X188058D01*
X190700Y450058D01*
X193070Y451426D01*
X195004Y453360D01*
X196372Y455730D01*
X197080Y458372D01*
Y461108D01*
X196372Y463750D01*
X195004Y466120D01*
X193070Y468054D01*
X190700Y469422D01*
X188058Y470130D01*
D02*
G37*
G36*
X338360Y457960D02*
X329240D01*
Y448840D01*
X329338D01*
X331980Y449548D01*
X334350Y450916D01*
X336284Y452850D01*
X337652Y455220D01*
X338360Y457862D01*
Y457960D01*
D02*
G37*
G36*
X326700D02*
X317580D01*
Y457862D01*
X318288Y455220D01*
X319656Y452850D01*
X321590Y450916D01*
X323960Y449548D01*
X326602Y448840D01*
X326700D01*
Y457960D01*
D02*
G37*
G36*
X299338Y469620D02*
X296602D01*
X293960Y468912D01*
X291590Y467544D01*
X289656Y465610D01*
X288288Y463240D01*
X287580Y460598D01*
Y457862D01*
X288288Y455220D01*
X289656Y452850D01*
X291590Y450916D01*
X293960Y449548D01*
X296602Y448840D01*
X299338D01*
X301980Y449548D01*
X304350Y450916D01*
X306284Y452850D01*
X307652Y455220D01*
X308360Y457862D01*
Y460598D01*
X307652Y463240D01*
X306284Y465610D01*
X304350Y467544D01*
X301980Y468912D01*
X299338Y469620D01*
D02*
G37*
G36*
X386263Y451730D02*
X383357D01*
X380549Y450978D01*
X378031Y449524D01*
X375976Y447469D01*
X374522Y444951D01*
X373770Y442143D01*
Y439237D01*
X374522Y436429D01*
X375976Y433911D01*
X378031Y431856D01*
X380549Y430402D01*
X383357Y429650D01*
X386263D01*
X389071Y430402D01*
X391589Y431856D01*
X393644Y433911D01*
X395098Y436429D01*
X395850Y439237D01*
Y442143D01*
X395098Y444951D01*
X393644Y447469D01*
X391589Y449524D01*
X389071Y450978D01*
X386263Y451730D01*
D02*
G37*
G36*
X245010Y443230D02*
X242670D01*
X240409Y442624D01*
X238381Y441454D01*
X236726Y439799D01*
X235556Y437771D01*
X234950Y435510D01*
Y433170D01*
X235556Y430909D01*
X236726Y428881D01*
X238381Y427226D01*
X240409Y426056D01*
X242670Y425450D01*
X245010D01*
X247271Y426056D01*
X249299Y427226D01*
X250954Y428881D01*
X252124Y430909D01*
X252730Y433170D01*
Y435510D01*
X252124Y437771D01*
X250954Y439799D01*
X249299Y441454D01*
X247271Y442624D01*
X245010Y443230D01*
D02*
G37*
G36*
X218058Y440130D02*
X215322D01*
X212680Y439422D01*
X210310Y438054D01*
X208376Y436120D01*
X207008Y433750D01*
X206300Y431108D01*
Y428372D01*
X207008Y425730D01*
X208376Y423360D01*
X210310Y421426D01*
X212680Y420058D01*
X215322Y419350D01*
X218058D01*
X220700Y420058D01*
X223070Y421426D01*
X225004Y423360D01*
X226372Y425730D01*
X227080Y428372D01*
Y431108D01*
X226372Y433750D01*
X225004Y436120D01*
X223070Y438054D01*
X220700Y439422D01*
X218058Y440130D01*
D02*
G37*
G36*
X329338Y439620D02*
X326602D01*
X323960Y438912D01*
X321590Y437544D01*
X319656Y435610D01*
X318288Y433240D01*
X317580Y430598D01*
Y427862D01*
X318288Y425220D01*
X319656Y422850D01*
X321590Y420916D01*
X323960Y419548D01*
X326602Y418840D01*
X329338D01*
X331980Y419548D01*
X334350Y420916D01*
X336284Y422850D01*
X337652Y425220D01*
X338360Y427862D01*
Y430598D01*
X337652Y433240D01*
X336284Y435610D01*
X334350Y437544D01*
X331980Y438912D01*
X329338Y439620D01*
D02*
G37*
G36*
X386263Y426330D02*
X383357D01*
X380549Y425578D01*
X378031Y424124D01*
X375976Y422069D01*
X374522Y419551D01*
X373770Y416743D01*
Y413837D01*
X374522Y411029D01*
X375976Y408511D01*
X378031Y406456D01*
X380549Y405002D01*
X383357Y404250D01*
X386263D01*
X389071Y405002D01*
X391589Y406456D01*
X393644Y408511D01*
X395098Y411029D01*
X395850Y413837D01*
Y416743D01*
X395098Y419551D01*
X393644Y422069D01*
X391589Y424124D01*
X389071Y425578D01*
X386263Y426330D01*
D02*
G37*
G36*
Y400930D02*
X383357D01*
X380549Y400178D01*
X378031Y398724D01*
X375976Y396669D01*
X374522Y394151D01*
X373770Y391343D01*
Y388437D01*
X374522Y385629D01*
X375976Y383111D01*
X378031Y381056D01*
X380549Y379602D01*
X383357Y378850D01*
X386263D01*
X389071Y379602D01*
X391589Y381056D01*
X393644Y383111D01*
X395098Y385629D01*
X395850Y388437D01*
Y391343D01*
X395098Y394151D01*
X393644Y396669D01*
X391589Y398724D01*
X389071Y400178D01*
X386263Y400930D01*
D02*
G37*
G36*
X158650Y386080D02*
X156310D01*
X154049Y385474D01*
X152021Y384304D01*
X150366Y382649D01*
X149196Y380621D01*
X148590Y378360D01*
Y376020D01*
X149196Y373759D01*
X150366Y371731D01*
X152021Y370076D01*
X154049Y368906D01*
X156310Y368300D01*
X158650D01*
X160911Y368906D01*
X162939Y370076D01*
X164594Y371731D01*
X165764Y373759D01*
X166370Y376020D01*
Y378360D01*
X165764Y380621D01*
X164594Y382649D01*
X162939Y384304D01*
X160911Y385474D01*
X158650Y386080D01*
D02*
G37*
G36*
X386263Y375530D02*
X383357D01*
X380549Y374778D01*
X378031Y373324D01*
X375976Y371269D01*
X374522Y368751D01*
X373770Y365943D01*
Y363037D01*
X374522Y360229D01*
X375976Y357711D01*
X378031Y355656D01*
X380549Y354202D01*
X383357Y353450D01*
X386263D01*
X389071Y354202D01*
X391589Y355656D01*
X393644Y357711D01*
X395098Y360229D01*
X395850Y363037D01*
Y365943D01*
X395098Y368751D01*
X393644Y371269D01*
X391589Y373324D01*
X389071Y374778D01*
X386263Y375530D01*
D02*
G37*
G36*
X139436Y368320D02*
X137424D01*
X135481Y367799D01*
X133739Y366794D01*
X132317Y365371D01*
X131311Y363629D01*
X130790Y361686D01*
Y359674D01*
X131311Y357731D01*
X132317Y355989D01*
X133739Y354566D01*
X135481Y353561D01*
X137424Y353040D01*
X139436D01*
X141379Y353561D01*
X143121Y354566D01*
X144544Y355989D01*
X145549Y357731D01*
X146070Y359674D01*
Y361686D01*
X145549Y363629D01*
X144544Y365371D01*
X143121Y366794D01*
X141379Y367799D01*
X139436Y368320D01*
D02*
G37*
G36*
X358186Y366290D02*
X356174D01*
X354231Y365769D01*
X352489Y364763D01*
X351067Y363341D01*
X350061Y361599D01*
X349540Y359656D01*
Y357644D01*
X350061Y355701D01*
X351067Y353959D01*
X352489Y352537D01*
X354231Y351531D01*
X356174Y351010D01*
X358186D01*
X360129Y351531D01*
X361871Y352537D01*
X363293Y353959D01*
X364299Y355701D01*
X364820Y357644D01*
Y359656D01*
X364299Y361599D01*
X363293Y363341D01*
X361871Y364763D01*
X360129Y365769D01*
X358186Y366290D01*
D02*
G37*
G36*
X386263Y350130D02*
X383357D01*
X380549Y349378D01*
X378031Y347924D01*
X375976Y345869D01*
X374522Y343351D01*
X373770Y340543D01*
Y337637D01*
X374522Y334829D01*
X375976Y332311D01*
X378031Y330256D01*
X380549Y328802D01*
X383357Y328050D01*
X386263D01*
X389071Y328802D01*
X391589Y330256D01*
X393644Y332311D01*
X395098Y334829D01*
X395850Y337637D01*
Y340543D01*
X395098Y343351D01*
X393644Y345869D01*
X391589Y347924D01*
X389071Y349378D01*
X386263Y350130D01*
D02*
G37*
G36*
Y324730D02*
X383357D01*
X380549Y323978D01*
X378031Y322524D01*
X375976Y320469D01*
X374522Y317951D01*
X373770Y315143D01*
Y312237D01*
X374522Y309429D01*
X375976Y306911D01*
X378031Y304856D01*
X380549Y303402D01*
X383357Y302650D01*
X386263D01*
X389071Y303402D01*
X391589Y304856D01*
X393644Y306911D01*
X395098Y309429D01*
X395850Y312237D01*
Y315143D01*
X395098Y317951D01*
X393644Y320469D01*
X391589Y322524D01*
X389071Y323978D01*
X386263Y324730D01*
D02*
G37*
G36*
X15423D02*
X12517D01*
X9709Y323978D01*
X7191Y322524D01*
X5136Y320469D01*
X3682Y317951D01*
X2930Y315143D01*
Y312237D01*
X3682Y309429D01*
X5136Y306911D01*
X7191Y304856D01*
X9709Y303402D01*
X12517Y302650D01*
X15423D01*
X18231Y303402D01*
X20749Y304856D01*
X22804Y306911D01*
X24258Y309429D01*
X25010Y312237D01*
Y315143D01*
X24258Y317951D01*
X22804Y320469D01*
X20749Y322524D01*
X18231Y323978D01*
X15423Y324730D01*
D02*
G37*
G36*
X386263Y299330D02*
X383357D01*
X380549Y298578D01*
X378031Y297124D01*
X375976Y295069D01*
X374522Y292551D01*
X373770Y289743D01*
Y288573D01*
X372500Y287819D01*
X370740Y288290D01*
X368400D01*
X366139Y287684D01*
X364111Y286514D01*
X362456Y284859D01*
X361286Y282831D01*
X360680Y280570D01*
Y278230D01*
X361286Y275969D01*
X362456Y273941D01*
X364111Y272286D01*
X366139Y271116D01*
X368400Y270510D01*
X370740D01*
X373001Y271116D01*
X375029Y272286D01*
X376684Y273941D01*
X377854Y275969D01*
X378347Y277807D01*
X379601Y278549D01*
X380549Y278002D01*
X383357Y277250D01*
X386263D01*
X389071Y278002D01*
X391589Y279456D01*
X393644Y281511D01*
X395098Y284029D01*
X395850Y286837D01*
Y289743D01*
X395098Y292551D01*
X393644Y295069D01*
X391589Y297124D01*
X389071Y298578D01*
X386263Y299330D01*
D02*
G37*
G36*
X360790Y304800D02*
X358450D01*
X356189Y304194D01*
X354161Y303024D01*
X352506Y301369D01*
X351336Y299341D01*
X350730Y297080D01*
Y294740D01*
X351336Y292479D01*
X352506Y290451D01*
X354161Y288796D01*
X356189Y287626D01*
X358450Y287020D01*
X360790D01*
X363051Y287626D01*
X365079Y288796D01*
X366734Y290451D01*
X367904Y292479D01*
X368510Y294740D01*
Y297080D01*
X367904Y299341D01*
X366734Y301369D01*
X365079Y303024D01*
X363051Y304194D01*
X360790Y304800D01*
D02*
G37*
G36*
X41810Y295910D02*
X39470D01*
X37209Y295304D01*
X35181Y294134D01*
X33526Y292479D01*
X32356Y290451D01*
X31750Y288190D01*
Y285850D01*
X32356Y283589D01*
X33526Y281561D01*
X35181Y279906D01*
X37209Y278736D01*
X39470Y278130D01*
X41810D01*
X44071Y278736D01*
X46099Y279906D01*
X47754Y281561D01*
X48924Y283589D01*
X49530Y285850D01*
Y288190D01*
X48924Y290451D01*
X47754Y292479D01*
X46099Y294134D01*
X44071Y295304D01*
X41810Y295910D01*
D02*
G37*
G36*
X15423Y299330D02*
X12517D01*
X9709Y298578D01*
X7191Y297124D01*
X5136Y295069D01*
X3682Y292551D01*
X2930Y289743D01*
Y286837D01*
X3682Y284029D01*
X5136Y281511D01*
X7191Y279456D01*
X9709Y278002D01*
X12517Y277250D01*
X15423D01*
X18231Y278002D01*
X20749Y279456D01*
X22804Y281511D01*
X24258Y284029D01*
X25010Y286837D01*
Y289743D01*
X24258Y292551D01*
X22804Y295069D01*
X20749Y297124D01*
X18231Y298578D01*
X15423Y299330D01*
D02*
G37*
G36*
X239930Y294640D02*
X237590D01*
X235329Y294034D01*
X233301Y292864D01*
X231646Y291209D01*
X230476Y289181D01*
X229870Y286920D01*
Y284580D01*
X230476Y282319D01*
X231646Y280291D01*
X233301Y278636D01*
X235329Y277466D01*
X237590Y276860D01*
X239930D01*
X242191Y277466D01*
X244219Y278636D01*
X245874Y280291D01*
X247044Y282319D01*
X247650Y284580D01*
Y286920D01*
X247044Y289181D01*
X245874Y291209D01*
X244219Y292864D01*
X242191Y294034D01*
X239930Y294640D01*
D02*
G37*
G36*
X206910D02*
X204570D01*
X202309Y294034D01*
X200281Y292864D01*
X198626Y291209D01*
X197456Y289181D01*
X196850Y286920D01*
Y284580D01*
X197456Y282319D01*
X198626Y280291D01*
X200281Y278636D01*
X202309Y277466D01*
X204570Y276860D01*
X206910D01*
X209171Y277466D01*
X211199Y278636D01*
X212854Y280291D01*
X214024Y282319D01*
X214630Y284580D01*
Y286920D01*
X214024Y289181D01*
X212854Y291209D01*
X211199Y292864D01*
X209171Y294034D01*
X206910Y294640D01*
D02*
G37*
G36*
X386263Y273930D02*
X383357D01*
X380549Y273178D01*
X378031Y271724D01*
X375976Y269669D01*
X374522Y267151D01*
X373770Y264343D01*
Y261437D01*
X374522Y258629D01*
X375976Y256111D01*
X378031Y254056D01*
X380549Y252602D01*
X383357Y251850D01*
X386263D01*
X389071Y252602D01*
X391589Y254056D01*
X393644Y256111D01*
X395098Y258629D01*
X395850Y261437D01*
Y264343D01*
X395098Y267151D01*
X393644Y269669D01*
X391589Y271724D01*
X389071Y273178D01*
X386263Y273930D01*
D02*
G37*
G36*
X15423D02*
X12517D01*
X9709Y273178D01*
X7191Y271724D01*
X5136Y269669D01*
X3682Y267151D01*
X2930Y264343D01*
Y261437D01*
X3682Y258629D01*
X5136Y256111D01*
X7191Y254056D01*
X9709Y252602D01*
X12517Y251850D01*
X15423D01*
X18231Y252602D01*
X20749Y254056D01*
X22804Y256111D01*
X24258Y258629D01*
X25010Y261437D01*
Y264343D01*
X24258Y267151D01*
X22804Y269669D01*
X20749Y271724D01*
X18231Y273178D01*
X15423Y273930D01*
D02*
G37*
G36*
X41810Y256540D02*
X39470D01*
X37209Y255934D01*
X35181Y254764D01*
X33526Y253109D01*
X32356Y251081D01*
X31750Y248820D01*
Y246480D01*
X32356Y244219D01*
X33526Y242191D01*
X35181Y240536D01*
X37209Y239366D01*
X39470Y238760D01*
X41810D01*
X44071Y239366D01*
X46099Y240536D01*
X47754Y242191D01*
X48924Y244219D01*
X49530Y246480D01*
Y248820D01*
X48924Y251081D01*
X47754Y253109D01*
X46099Y254764D01*
X44071Y255934D01*
X41810Y256540D01*
D02*
G37*
G36*
X15423Y248530D02*
X12517D01*
X9709Y247778D01*
X7191Y246324D01*
X5136Y244269D01*
X3682Y241751D01*
X2930Y238943D01*
Y236037D01*
X3682Y233229D01*
X5136Y230711D01*
X7191Y228656D01*
X9709Y227202D01*
X12517Y226450D01*
X15423D01*
X18231Y227202D01*
X20749Y228656D01*
X22804Y230711D01*
X24258Y233229D01*
X25010Y236037D01*
Y238943D01*
X24258Y241751D01*
X22804Y244269D01*
X20749Y246324D01*
X18231Y247778D01*
X15423Y248530D01*
D02*
G37*
G36*
X386263Y223130D02*
X386080D01*
Y213360D01*
X395850D01*
Y213543D01*
X395098Y216351D01*
X393644Y218869D01*
X391589Y220924D01*
X389071Y222378D01*
X386263Y223130D01*
D02*
G37*
G36*
X395850Y210820D02*
X386080D01*
Y201050D01*
X386263D01*
X389071Y201802D01*
X391589Y203256D01*
X393644Y205311D01*
X395098Y207829D01*
X395850Y210637D01*
Y210820D01*
D02*
G37*
G36*
X15423Y223130D02*
X12517D01*
X9709Y222378D01*
X7191Y220924D01*
X5136Y218869D01*
X3682Y216351D01*
X2930Y213543D01*
Y210637D01*
X3682Y207829D01*
X5136Y205311D01*
X7191Y203256D01*
X9709Y201802D01*
X12517Y201050D01*
X15423D01*
X18231Y201802D01*
X20749Y203256D01*
X22804Y205311D01*
X24258Y207829D01*
X25010Y210637D01*
Y213543D01*
X24258Y216351D01*
X22804Y218869D01*
X20749Y220924D01*
X18231Y222378D01*
X15423Y223130D01*
D02*
G37*
G36*
Y197730D02*
X12517D01*
X9709Y196978D01*
X7191Y195524D01*
X5136Y193469D01*
X3682Y190951D01*
X2930Y188143D01*
Y185237D01*
X3682Y182429D01*
X5136Y179911D01*
X7191Y177856D01*
X9709Y176402D01*
X12517Y175650D01*
X15423D01*
X18231Y176402D01*
X20749Y177856D01*
X22804Y179911D01*
X24258Y182429D01*
X25010Y185237D01*
Y188143D01*
X24258Y190951D01*
X22804Y193469D01*
X20749Y195524D01*
X18231Y196978D01*
X15423Y197730D01*
D02*
G37*
G36*
X386263Y172330D02*
X386080D01*
Y162560D01*
X395850D01*
Y162743D01*
X395098Y165551D01*
X393644Y168069D01*
X391589Y170124D01*
X389071Y171578D01*
X386263Y172330D01*
D02*
G37*
G36*
X395850Y160020D02*
X386080D01*
Y150250D01*
X386263D01*
X389071Y151002D01*
X391589Y152456D01*
X393644Y154511D01*
X395098Y157029D01*
X395850Y159837D01*
Y160020D01*
D02*
G37*
G36*
X15423Y172330D02*
X12517D01*
X9709Y171578D01*
X7191Y170124D01*
X5136Y168069D01*
X3682Y165551D01*
X2930Y162743D01*
Y159837D01*
X3682Y157029D01*
X5136Y154511D01*
X7191Y152456D01*
X9709Y151002D01*
X12517Y150250D01*
X15423D01*
X18231Y151002D01*
X20749Y152456D01*
X22804Y154511D01*
X24258Y157029D01*
X25010Y159837D01*
Y162743D01*
X24258Y165551D01*
X22804Y168069D01*
X20749Y170124D01*
X18231Y171578D01*
X15423Y172330D01*
D02*
G37*
G36*
X25010Y146930D02*
X2930D01*
Y124850D01*
X25010D01*
Y146930D01*
D02*
G37*
G36*
X62230Y121920D02*
X54637D01*
X55216Y119759D01*
X56386Y117731D01*
X58041Y116076D01*
X60069Y114906D01*
X62230Y114327D01*
Y121920D01*
D02*
G37*
G36*
X334128Y75310D02*
X334010D01*
Y66040D01*
X343280D01*
Y66158D01*
X342562Y68838D01*
X341174Y71242D01*
X339212Y73204D01*
X336808Y74592D01*
X334128Y75310D01*
D02*
G37*
G36*
X331470D02*
X331352D01*
X328672Y74592D01*
X326268Y73204D01*
X324306Y71242D01*
X322918Y68838D01*
X322200Y66158D01*
Y66040D01*
X331470D01*
Y75310D01*
D02*
G37*
G36*
X382650Y81660D02*
X361570D01*
Y60580D01*
X382650D01*
Y81660D01*
D02*
G37*
G36*
X343280Y63500D02*
X334010D01*
Y54230D01*
X334128D01*
X336808Y54948D01*
X339212Y56336D01*
X341174Y58298D01*
X342562Y60702D01*
X343280Y63382D01*
Y63500D01*
D02*
G37*
G36*
X331470D02*
X322200D01*
Y63382D01*
X322918Y60702D01*
X324306Y58298D01*
X326268Y56336D01*
X328672Y54948D01*
X331352Y54230D01*
X331470D01*
Y63500D01*
D02*
G37*
G36*
X373498Y56260D02*
X373380D01*
Y46990D01*
X382650D01*
Y47108D01*
X381932Y49788D01*
X380544Y52192D01*
X378582Y54154D01*
X376178Y55542D01*
X373498Y56260D01*
D02*
G37*
G36*
X370840D02*
X370722D01*
X368042Y55542D01*
X365638Y54154D01*
X363676Y52192D01*
X362288Y49788D01*
X361570Y47108D01*
Y46990D01*
X370840D01*
Y56260D01*
D02*
G37*
G36*
X194362Y36710D02*
X194310D01*
Y27940D01*
X203080D01*
Y27992D01*
X202396Y30545D01*
X201074Y32835D01*
X199205Y34704D01*
X196915Y36026D01*
X194362Y36710D01*
D02*
G37*
G36*
X191770D02*
X191718D01*
X189165Y36026D01*
X186875Y34704D01*
X185006Y32835D01*
X183684Y30545D01*
X183000Y27992D01*
Y27940D01*
X191770D01*
Y36710D01*
D02*
G37*
G36*
X385910Y26320D02*
X379140D01*
Y19050D01*
X385910D01*
Y26320D01*
D02*
G37*
G36*
X382650Y44450D02*
X372110D01*
X361570D01*
Y44332D01*
X362288Y41652D01*
X363676Y39248D01*
X365638Y37286D01*
X368042Y35898D01*
X368225Y35849D01*
Y24040D01*
X368521Y22553D01*
X369363Y21293D01*
X369830Y20826D01*
Y19050D01*
X376600D01*
Y26320D01*
X375995D01*
Y35849D01*
X376178Y35898D01*
X378582Y37286D01*
X380544Y39248D01*
X381932Y41652D01*
X382650Y44332D01*
Y44450D01*
D02*
G37*
G36*
X203080Y25400D02*
X194310D01*
Y16630D01*
X194362D01*
X196915Y17314D01*
X199205Y18636D01*
X201074Y20505D01*
X202396Y22795D01*
X203080Y25348D01*
Y25400D01*
D02*
G37*
G36*
X191770D02*
X183000D01*
Y25348D01*
X183684Y22795D01*
X185006Y20505D01*
X186875Y18636D01*
X189165Y17314D01*
X191718Y16630D01*
X191770D01*
Y25400D01*
D02*
G37*
G36*
X168962Y36710D02*
X166318D01*
X163765Y36026D01*
X161475Y34704D01*
X159606Y32835D01*
X158284Y30545D01*
X157600Y27992D01*
Y25348D01*
X158284Y22795D01*
X159606Y20505D01*
X161475Y18636D01*
X163765Y17314D01*
X166318Y16630D01*
X168962D01*
X171515Y17314D01*
X173805Y18636D01*
X175674Y20505D01*
X176996Y22795D01*
X177680Y25348D01*
Y27992D01*
X176996Y30545D01*
X175674Y32835D01*
X173805Y34704D01*
X171515Y36026D01*
X168962Y36710D01*
D02*
G37*
G36*
X143562D02*
X140918D01*
X138365Y36026D01*
X136075Y34704D01*
X134206Y32835D01*
X132884Y30545D01*
X132200Y27992D01*
Y25348D01*
X132884Y22795D01*
X134206Y20505D01*
X136075Y18636D01*
X138365Y17314D01*
X140918Y16630D01*
X143562D01*
X146115Y17314D01*
X148405Y18636D01*
X150274Y20505D01*
X151596Y22795D01*
X152280Y25348D01*
Y27992D01*
X151596Y30545D01*
X150274Y32835D01*
X148405Y34704D01*
X146115Y36026D01*
X143562Y36710D01*
D02*
G37*
G36*
X118162D02*
X115518D01*
X112965Y36026D01*
X110675Y34704D01*
X108806Y32835D01*
X107484Y30545D01*
X106800Y27992D01*
Y25348D01*
X107484Y22795D01*
X108806Y20505D01*
X110675Y18636D01*
X112965Y17314D01*
X115518Y16630D01*
X118162D01*
X120715Y17314D01*
X123005Y18636D01*
X124874Y20505D01*
X126196Y22795D01*
X126880Y25348D01*
Y27992D01*
X126196Y30545D01*
X124874Y32835D01*
X123005Y34704D01*
X120715Y36026D01*
X118162Y36710D01*
D02*
G37*
G36*
X92762D02*
X90118D01*
X87565Y36026D01*
X85275Y34704D01*
X83406Y32835D01*
X82084Y30545D01*
X81400Y27992D01*
Y25348D01*
X82084Y22795D01*
X83406Y20505D01*
X85275Y18636D01*
X87565Y17314D01*
X90118Y16630D01*
X92762D01*
X95315Y17314D01*
X97605Y18636D01*
X99474Y20505D01*
X100796Y22795D01*
X101480Y25348D01*
Y27992D01*
X100796Y30545D01*
X99474Y32835D01*
X97605Y34704D01*
X95315Y36026D01*
X92762Y36710D01*
D02*
G37*
G36*
X67362D02*
X64718D01*
X62165Y36026D01*
X59875Y34704D01*
X58006Y32835D01*
X56684Y30545D01*
X56000Y27992D01*
Y25348D01*
X56684Y22795D01*
X58006Y20505D01*
X59875Y18636D01*
X62165Y17314D01*
X64718Y16630D01*
X67362D01*
X69915Y17314D01*
X72205Y18636D01*
X74074Y20505D01*
X75396Y22795D01*
X76080Y25348D01*
Y27992D01*
X75396Y30545D01*
X74074Y32835D01*
X72205Y34704D01*
X69915Y36026D01*
X67362Y36710D01*
D02*
G37*
G36*
X385910Y16510D02*
X379140D01*
Y9240D01*
X385910D01*
Y16510D01*
D02*
G37*
G36*
X376600D02*
X369830D01*
Y9240D01*
X376600D01*
Y16510D01*
D02*
G37*
G36*
X341760Y26570D02*
X321180D01*
Y8990D01*
X341760D01*
Y13895D01*
X348830D01*
Y9240D01*
X364910D01*
Y26320D01*
X348830D01*
Y21665D01*
X341760D01*
Y26570D01*
D02*
G37*
G36*
X28161Y47625D02*
X23909D01*
X19737Y46795D01*
X15808Y45168D01*
X12272Y42805D01*
X9265Y39798D01*
X6902Y36262D01*
X5275Y32333D01*
X4445Y28161D01*
Y23909D01*
X5275Y19737D01*
X6902Y15808D01*
X9265Y12272D01*
X12272Y9265D01*
X15808Y6902D01*
X19737Y5275D01*
X23909Y4445D01*
X28161D01*
X32332Y5275D01*
X36262Y6902D01*
X39798Y9265D01*
X42805Y12272D01*
X45168Y15808D01*
X46795Y19737D01*
X47625Y23909D01*
Y28161D01*
X46795Y32333D01*
X45168Y36262D01*
X42805Y39798D01*
X39798Y42805D01*
X36262Y45168D01*
X32332Y46795D01*
X28161Y47625D01*
D02*
G37*
%LPD*%
G36*
X42316Y355989D02*
X43739Y354566D01*
X45481Y353561D01*
X47424Y353040D01*
X49436D01*
X51379Y353561D01*
X53121Y354566D01*
X53362Y354808D01*
X54535Y354322D01*
Y315838D01*
X53362Y315352D01*
X40695Y328019D01*
Y356258D01*
X41965Y356598D01*
X42316Y355989D01*
D02*
G37*
G36*
X126588Y298368D02*
Y296826D01*
X127194Y294566D01*
X128364Y292538D01*
X130020Y290883D01*
X132047Y289713D01*
X134308Y289107D01*
X136091D01*
X136979Y288345D01*
X137160Y287929D01*
Y285850D01*
X137766Y283589D01*
X137976Y283224D01*
X137046Y282295D01*
X136560Y282575D01*
X134299Y283181D01*
X131959D01*
X129698Y282575D01*
X127670Y281405D01*
X126015Y279750D01*
X124845Y277722D01*
X124239Y275462D01*
Y273121D01*
X124845Y270860D01*
X126015Y268832D01*
X127670Y267177D01*
X129698Y266007D01*
X130164Y265882D01*
X130493Y264655D01*
X120173Y254335D01*
X119000Y254821D01*
Y283460D01*
X111680D01*
X111154Y284730D01*
X125318Y298894D01*
X126588Y298368D01*
D02*
G37*
G36*
X326613Y360813D02*
X326127Y359640D01*
X325812D01*
X323170Y358932D01*
X320800Y357564D01*
X318866Y355630D01*
X317498Y353260D01*
X316790Y350618D01*
Y350520D01*
X327180D01*
Y349250D01*
X328450D01*
Y338860D01*
X328548D01*
X331190Y339568D01*
X333560Y340936D01*
X335494Y342870D01*
X336862Y345240D01*
X337570Y347882D01*
Y348197D01*
X338743Y348683D01*
X340285Y347141D01*
Y278130D01*
X340581Y276643D01*
X341423Y275383D01*
X353530Y263276D01*
X353060Y261520D01*
Y259180D01*
X353666Y256919D01*
X354836Y254891D01*
X356491Y253236D01*
X358519Y252066D01*
X360780Y251460D01*
X363120D01*
X364876Y251930D01*
X368225Y248581D01*
Y119937D01*
X362663Y114375D01*
X361037D01*
X360435Y115645D01*
X361344Y117219D01*
X361923Y119380D01*
X353060D01*
Y121920D01*
X361923D01*
X361344Y124081D01*
X360174Y126109D01*
X358519Y127764D01*
X356945Y128673D01*
Y141290D01*
X364600D01*
Y147560D01*
X353060D01*
X341520D01*
Y146687D01*
X340250Y145712D01*
X338990Y146050D01*
X337173D01*
X336545Y146678D01*
Y155020D01*
X336470Y155395D01*
Y167240D01*
Y172645D01*
X341520D01*
Y171290D01*
X364600D01*
Y186370D01*
X341520D01*
Y180415D01*
X336470D01*
Y185820D01*
X321390D01*
Y167240D01*
Y149460D01*
X328775D01*
Y145069D01*
X329071Y143583D01*
X329913Y142322D01*
X330308Y141928D01*
X329536Y140591D01*
X328930Y138330D01*
Y137701D01*
X327660Y137175D01*
X316549Y148287D01*
X317035Y149460D01*
X318470D01*
Y167240D01*
Y185820D01*
X303390D01*
Y180387D01*
X302043Y180119D01*
X300783Y179277D01*
X285996Y164490D01*
X285154Y163230D01*
X284858Y161743D01*
Y151070D01*
X262988Y129200D01*
X261815Y129686D01*
Y138211D01*
X263774Y140170D01*
X265530Y139700D01*
X267870D01*
X270131Y140306D01*
X272159Y141476D01*
X273814Y143131D01*
X274984Y145159D01*
X275590Y147420D01*
Y149760D01*
X274984Y152021D01*
X273814Y154049D01*
X272159Y155704D01*
X270131Y156874D01*
X267870Y157480D01*
X265530D01*
X263269Y156874D01*
X261241Y155704D01*
X259586Y154049D01*
X258416Y152021D01*
X257930Y150208D01*
X256660Y150375D01*
Y156500D01*
X249503D01*
X249017Y157673D01*
X257960Y166616D01*
X258462Y167367D01*
Y177800D01*
Y187143D01*
X234859D01*
Y184574D01*
X233589Y184048D01*
X232724Y184914D01*
X230697Y186084D01*
X228436Y186690D01*
X226095D01*
X223834Y186084D01*
X222260Y185175D01*
X220990Y185777D01*
Y201526D01*
X288267Y268803D01*
X289109Y270063D01*
X289405Y271550D01*
Y308860D01*
X302076D01*
X313787Y297149D01*
X312926Y296289D01*
X311756Y294261D01*
X311150Y292000D01*
Y289660D01*
X311756Y287399D01*
X312926Y285371D01*
X314581Y283716D01*
X316609Y282546D01*
X318870Y281940D01*
X321210D01*
X323471Y282546D01*
X325499Y283716D01*
X327154Y285371D01*
X328324Y287399D01*
X328930Y289660D01*
Y292000D01*
X328324Y294261D01*
X327154Y296289D01*
X325499Y297944D01*
X323471Y299114D01*
X321733Y299580D01*
X321685Y299821D01*
X320843Y301081D01*
X307570Y314354D01*
Y329640D01*
X286790D01*
Y326153D01*
X285617Y325667D01*
X268770Y342514D01*
X269240Y344270D01*
Y346610D01*
X268634Y348871D01*
X268133Y349740D01*
X268142Y349970D01*
X268775Y351168D01*
X270129Y351531D01*
X271871Y352537D01*
X273293Y353959D01*
X274299Y355701D01*
X274820Y357644D01*
Y359656D01*
X274299Y361599D01*
X273293Y363341D01*
X271871Y364763D01*
X271317Y365083D01*
X270938Y366768D01*
X271068Y366955D01*
X320471D01*
X326613Y360813D01*
D02*
G37*
G36*
X164970Y278245D02*
Y156500D01*
X153890D01*
Y146960D01*
Y137420D01*
X165660D01*
Y143280D01*
X166930Y143806D01*
X174460Y136276D01*
X173990Y134520D01*
Y132180D01*
X174596Y129919D01*
X175766Y127891D01*
X177421Y126236D01*
X179449Y125066D01*
X181710Y124460D01*
X184050D01*
X185420Y124827D01*
X186690Y123877D01*
Y123290D01*
X187296Y121029D01*
X188466Y119001D01*
X190121Y117346D01*
X192149Y116176D01*
X194310Y115597D01*
Y124460D01*
Y133323D01*
X193040Y132983D01*
X191770Y133933D01*
Y134520D01*
X191164Y136781D01*
X190895Y137248D01*
X191508Y138727D01*
X192661Y139036D01*
X194689Y140206D01*
X196344Y141861D01*
X197514Y143889D01*
X198120Y146150D01*
Y148490D01*
X197650Y150246D01*
X206317Y158913D01*
X207490Y158427D01*
Y117157D01*
X207786Y115670D01*
X208628Y114410D01*
X218095Y104943D01*
X219355Y104101D01*
X220842Y103805D01*
X230580D01*
Y92420D01*
X234859D01*
X235345Y91247D01*
X235140Y91042D01*
X233970Y89015D01*
X233968Y89010D01*
X232552Y88631D01*
X231519Y89664D01*
X229491Y90834D01*
X227230Y91440D01*
X224890D01*
X222629Y90834D01*
X220601Y89664D01*
X218946Y88009D01*
X217776Y85981D01*
X217170Y83720D01*
Y81380D01*
X217601Y79771D01*
X216462Y79113D01*
X216022Y79554D01*
X213618Y80942D01*
X210938Y81660D01*
X210820D01*
Y71120D01*
X209550D01*
Y69850D01*
X199010D01*
Y69732D01*
X199728Y67052D01*
X201116Y64648D01*
X201396Y64368D01*
X200910Y63195D01*
X197569D01*
X193877Y66887D01*
X193972Y67052D01*
X194690Y69732D01*
Y72508D01*
X193972Y75188D01*
X192584Y77592D01*
X190622Y79554D01*
X188218Y80942D01*
X185538Y81660D01*
X182762D01*
X180082Y80942D01*
X177678Y79554D01*
X175716Y77592D01*
X174328Y75188D01*
X173610Y72508D01*
Y69732D01*
X174328Y67052D01*
X175716Y64648D01*
X177678Y62686D01*
X180082Y61298D01*
X182762Y60580D01*
X185538D01*
X188218Y61298D01*
X188383Y61393D01*
X193213Y56563D01*
X194473Y55721D01*
X195960Y55425D01*
X205820D01*
Y50875D01*
X159089D01*
X143890Y66074D01*
Y81660D01*
X140264D01*
Y92420D01*
X143723D01*
X144189Y91613D01*
X144301Y91150D01*
X143730Y89020D01*
Y86680D01*
X144336Y84419D01*
X145506Y82391D01*
X147161Y80736D01*
X149189Y79566D01*
X150218Y79290D01*
X150598Y77874D01*
X150316Y77592D01*
X148928Y75188D01*
X148210Y72508D01*
Y69732D01*
X148928Y67052D01*
X150316Y64648D01*
X152278Y62686D01*
X154682Y61298D01*
X157362Y60580D01*
X160138D01*
X162818Y61298D01*
X165222Y62686D01*
X167184Y64648D01*
X168572Y67052D01*
X169290Y69732D01*
Y72508D01*
X168572Y75188D01*
X167184Y77592D01*
X165222Y79554D01*
X162818Y80942D01*
X160645Y81524D01*
X160515Y81648D01*
X160066Y82640D01*
X160045Y82930D01*
X160904Y84419D01*
X161510Y86680D01*
Y89020D01*
X160939Y91150D01*
X161051Y91613D01*
X161517Y92420D01*
X165660D01*
Y111500D01*
X140264D01*
Y137420D01*
X151350D01*
Y146960D01*
Y156500D01*
X147275D01*
Y175380D01*
X146979Y176867D01*
X146137Y178127D01*
X136097Y188167D01*
X134837Y189009D01*
X133350Y189305D01*
X119050D01*
Y192587D01*
X120150Y193222D01*
X120611Y192956D01*
X122872Y192350D01*
X125212D01*
X127473Y192956D01*
X129501Y194126D01*
X131156Y195781D01*
X132326Y197809D01*
X132932Y200070D01*
Y202410D01*
X132326Y204671D01*
X131156Y206699D01*
X129501Y208354D01*
X127473Y209524D01*
X125212Y210130D01*
X122872D01*
X120611Y209524D01*
X118583Y208354D01*
X116928Y206699D01*
X115758Y204671D01*
X115152Y202410D01*
Y200070D01*
X115313Y199468D01*
X114540Y198460D01*
X113030D01*
Y185420D01*
Y172380D01*
X115522D01*
X115656Y172192D01*
X115003Y170923D01*
X104957D01*
Y170858D01*
X103784Y170372D01*
X93334Y180822D01*
Y194774D01*
X94604Y195507D01*
X95629Y194916D01*
X97890Y194310D01*
X100230D01*
X102491Y194916D01*
X103370Y195423D01*
X104470Y194788D01*
Y186690D01*
X110490D01*
Y198460D01*
X107859D01*
X107224Y199560D01*
X107344Y199769D01*
X107950Y202030D01*
Y204370D01*
X107344Y206631D01*
X106174Y208659D01*
X104519Y210314D01*
X102945Y211222D01*
Y213380D01*
X119000D01*
Y244535D01*
X119752D01*
X121238Y244831D01*
X122499Y245673D01*
X125812Y248987D01*
X127135Y248514D01*
X127606Y246759D01*
X128776Y244731D01*
X129620Y243888D01*
X129411Y242301D01*
X129001Y242064D01*
X127346Y240409D01*
X126175Y238381D01*
X125569Y236120D01*
Y233780D01*
X126175Y231519D01*
X127346Y229491D01*
X129001Y227836D01*
X131028Y226666D01*
X133289Y226060D01*
X135630D01*
X137891Y226666D01*
X139918Y227836D01*
X141573Y229491D01*
X142743Y231519D01*
X143349Y233780D01*
Y236120D01*
X142743Y238381D01*
X141573Y240409D01*
X140729Y241252D01*
X140938Y242839D01*
X141349Y243076D01*
X143004Y244731D01*
X144174Y246759D01*
X144780Y249020D01*
Y251360D01*
X144174Y253621D01*
X143004Y255649D01*
X141349Y257304D01*
X140601Y257735D01*
X140941Y259005D01*
X143510D01*
X144997Y259301D01*
X146257Y260143D01*
X162767Y276653D01*
X163609Y277913D01*
X163700Y278370D01*
X164970Y278245D01*
D02*
G37*
G36*
X281635Y275247D02*
Y273159D01*
X214358Y205882D01*
X213516Y204622D01*
X213221Y203135D01*
Y176804D01*
X192156Y155740D01*
X190400Y156210D01*
X188060D01*
X185799Y155604D01*
X183771Y154434D01*
X182116Y152779D01*
X180946Y150751D01*
X180340Y148490D01*
Y146150D01*
X180946Y143889D01*
X181011Y143775D01*
X180466Y142518D01*
X179429Y142295D01*
X172739Y148985D01*
Y167933D01*
X174009Y168534D01*
X175583Y167625D01*
X177844Y167020D01*
X180185D01*
X182446Y167625D01*
X184473Y168796D01*
X186128Y170451D01*
X187299Y172478D01*
X187904Y174739D01*
Y176368D01*
X189163Y177108D01*
X189609Y176851D01*
X191770Y176272D01*
Y185135D01*
Y193998D01*
X189609Y193419D01*
X187581Y192249D01*
X186600Y193063D01*
X187354Y194370D01*
X187960Y196631D01*
Y198972D01*
X187396Y201077D01*
X187698Y201474D01*
X188398Y201965D01*
X189609Y201266D01*
X191870Y200660D01*
X194210D01*
X196471Y201266D01*
X198499Y202436D01*
X200154Y204091D01*
X201063Y205665D01*
X208678D01*
X210165Y205961D01*
X211425Y206803D01*
X279607Y274985D01*
X279693Y275113D01*
X281418Y275409D01*
X281635Y275247D01*
D02*
G37*
G36*
X84586Y194843D02*
Y179010D01*
X84919Y177336D01*
X85867Y175917D01*
X91392Y170392D01*
X90612Y169376D01*
X89140Y170226D01*
X86878Y170832D01*
X84538D01*
X82277Y170226D01*
X80250Y169056D01*
X78594Y167400D01*
X78115Y166571D01*
X72843D01*
Y170271D01*
X70045D01*
Y172380D01*
X73450D01*
Y194719D01*
X74550Y195354D01*
X75309Y194916D01*
X77570Y194310D01*
X79910D01*
X82171Y194916D01*
X83316Y195577D01*
X84586Y194843D01*
D02*
G37*
G36*
X234859Y171026D02*
Y168457D01*
X247154D01*
X247640Y167284D01*
X240873Y160517D01*
X240031Y159257D01*
X239735Y157770D01*
Y156500D01*
X230580D01*
Y153212D01*
X229556Y152847D01*
X229310Y152832D01*
X227709Y154434D01*
X225681Y155604D01*
X223520Y156183D01*
Y147320D01*
Y138457D01*
X225681Y139036D01*
X227709Y140206D01*
X229310Y141808D01*
X229556Y141793D01*
X230580Y141428D01*
Y137420D01*
X242350D01*
Y146960D01*
X244890D01*
Y137420D01*
X254045D01*
Y111500D01*
X238265D01*
X237890Y111575D01*
X226236D01*
X226069Y112845D01*
X226951Y113081D01*
X228979Y114252D01*
X230634Y115907D01*
X231804Y117934D01*
X232410Y120195D01*
Y122536D01*
X231804Y124797D01*
X230634Y126824D01*
X228979Y128479D01*
X226951Y129649D01*
X224690Y130255D01*
X222350D01*
X220089Y129649D01*
X218061Y128479D01*
X216529Y126947D01*
X215338Y127110D01*
X215259Y127131D01*
Y140079D01*
X216433Y140565D01*
X216791Y140206D01*
X218819Y139036D01*
X220980Y138457D01*
Y147320D01*
Y156183D01*
X218819Y155604D01*
X216791Y154434D01*
X216433Y154075D01*
X215259Y154561D01*
Y160300D01*
X224339Y169380D01*
X226095Y168910D01*
X228436D01*
X230697Y169516D01*
X232724Y170686D01*
X233589Y171552D01*
X234859Y171026D01*
D02*
G37*
G36*
X101204Y160580D02*
X102623Y159632D01*
X104297Y159299D01*
X104957D01*
Y149283D01*
X72843D01*
Y157313D01*
X78115D01*
X78594Y156483D01*
X80250Y154828D01*
X82277Y153658D01*
X84538Y153052D01*
X86878D01*
X89140Y153658D01*
X91167Y154828D01*
X92822Y156483D01*
X93992Y158510D01*
X94598Y160772D01*
Y163112D01*
X93992Y165373D01*
X93142Y166846D01*
X94158Y167626D01*
X101204Y160580D01*
D02*
G37*
G36*
X303390Y169237D02*
Y149460D01*
X307045D01*
Y148412D01*
X307341Y146925D01*
X308183Y145665D01*
X344967Y108881D01*
Y107891D01*
X311573Y74497D01*
X311408Y74592D01*
X308728Y75310D01*
X305952D01*
X303272Y74592D01*
X300868Y73204D01*
X298906Y71242D01*
X297518Y68838D01*
X296800Y66158D01*
Y63382D01*
X297518Y60702D01*
X298906Y58298D01*
X300868Y56336D01*
X301788Y55805D01*
X301448Y54535D01*
X287832D01*
X287492Y55805D01*
X288412Y56336D01*
X290374Y58298D01*
X291762Y60702D01*
X292480Y63382D01*
Y66158D01*
X291762Y68838D01*
X290374Y71242D01*
X288412Y73204D01*
X286008Y74592D01*
X284459Y75007D01*
Y75026D01*
X284163Y76512D01*
X283321Y77773D01*
X266895Y94199D01*
Y122119D01*
X291490Y146714D01*
X292332Y147975D01*
X292628Y149461D01*
Y160134D01*
X302217Y169723D01*
X303390Y169237D01*
D02*
G37*
G36*
X275640Y74467D02*
X275474Y73207D01*
X275468Y73204D01*
X273506Y71242D01*
X272118Y68838D01*
X271400Y66158D01*
Y63382D01*
X272118Y60702D01*
X273506Y58298D01*
X275468Y56336D01*
X276388Y55805D01*
X276048Y54535D01*
X272269D01*
X267080Y59724D01*
Y75310D01*
X258993D01*
X258507Y76483D01*
X260677Y78653D01*
X261519Y79913D01*
X261815Y81400D01*
Y86632D01*
X262988Y87118D01*
X275640Y74467D01*
D02*
G37*
%LPC*%
G36*
X325910Y347980D02*
X316790D01*
Y347882D01*
X317498Y345240D01*
X318866Y342870D01*
X320800Y340936D01*
X323170Y339568D01*
X325812Y338860D01*
X325910D01*
Y347980D01*
D02*
G37*
G36*
X298548Y359640D02*
X295812D01*
X293170Y358932D01*
X290800Y357564D01*
X288866Y355630D01*
X287498Y353260D01*
X286790Y350618D01*
Y347882D01*
X287498Y345240D01*
X288866Y342870D01*
X290800Y340936D01*
X293170Y339568D01*
X295812Y338860D01*
X298548D01*
X301190Y339568D01*
X303560Y340936D01*
X305494Y342870D01*
X306862Y345240D01*
X307570Y347882D01*
Y350618D01*
X306862Y353260D01*
X305494Y355630D01*
X303560Y357564D01*
X301190Y358932D01*
X298548Y359640D01*
D02*
G37*
G36*
X328548Y329640D02*
X325812D01*
X323170Y328932D01*
X320800Y327564D01*
X318866Y325630D01*
X317498Y323260D01*
X316790Y320618D01*
Y317882D01*
X317498Y315240D01*
X318866Y312870D01*
X320800Y310936D01*
X323170Y309568D01*
X325812Y308860D01*
X328548D01*
X331190Y309568D01*
X333560Y310936D01*
X335494Y312870D01*
X336862Y315240D01*
X337570Y317882D01*
Y320618D01*
X336862Y323260D01*
X335494Y325630D01*
X333560Y327564D01*
X331190Y328932D01*
X328548Y329640D01*
D02*
G37*
G36*
X308510Y275590D02*
X306170D01*
X303909Y274984D01*
X301881Y273814D01*
X300226Y272159D01*
X299056Y270131D01*
X298450Y267870D01*
Y265530D01*
X299056Y263269D01*
X300226Y261241D01*
X301881Y259586D01*
X303909Y258416D01*
X306170Y257810D01*
X308510D01*
X310771Y258416D01*
X312799Y259586D01*
X314454Y261241D01*
X315624Y263269D01*
X316230Y265530D01*
Y267870D01*
X315624Y270131D01*
X314454Y272159D01*
X312799Y273814D01*
X310771Y274984D01*
X308510Y275590D01*
D02*
G37*
G36*
X325020Y252730D02*
X322680D01*
X320419Y252124D01*
X318391Y250954D01*
X316736Y249299D01*
X316230Y248422D01*
X314960D01*
X314454Y249299D01*
X312799Y250954D01*
X310771Y252124D01*
X308510Y252730D01*
X306170D01*
X303909Y252124D01*
X301881Y250954D01*
X300226Y249299D01*
X299056Y247271D01*
X298450Y245010D01*
Y242670D01*
X299056Y240409D01*
X300226Y238381D01*
X301881Y236726D01*
X303909Y235556D01*
X306170Y234950D01*
X308510D01*
X310771Y235556D01*
X312799Y236726D01*
X314454Y238381D01*
X314960Y239258D01*
X316230D01*
X316736Y238381D01*
X318391Y236726D01*
X320419Y235556D01*
X322680Y234950D01*
X325020D01*
X327281Y235556D01*
X329309Y236726D01*
X330964Y238381D01*
X332134Y240409D01*
X332740Y242670D01*
Y245010D01*
X332134Y247271D01*
X330964Y249299D01*
X329309Y250954D01*
X327281Y252124D01*
X325020Y252730D01*
D02*
G37*
G36*
X268061Y187143D02*
X261002D01*
Y177800D01*
Y168457D01*
X266076D01*
X266126Y168270D01*
X267297Y166243D01*
X268952Y164588D01*
X270979Y163417D01*
X273240Y162811D01*
X275581D01*
X277842Y163417D01*
X279869Y164588D01*
X281524Y166243D01*
X282695Y168270D01*
X283301Y170531D01*
Y172872D01*
X282695Y175133D01*
X281524Y177160D01*
X279869Y178815D01*
X277842Y179986D01*
X275581Y180591D01*
X273240D01*
X270979Y179986D01*
X269331Y179034D01*
X268061Y179581D01*
Y187143D01*
D02*
G37*
G36*
X364600Y156370D02*
X354330D01*
Y150100D01*
X364600D01*
Y156370D01*
D02*
G37*
G36*
X351790D02*
X341520D01*
Y150100D01*
X351790D01*
Y156370D01*
D02*
G37*
G36*
X110490Y184150D02*
X104470D01*
Y172380D01*
X110490D01*
Y184150D01*
D02*
G37*
G36*
X196850Y133323D02*
Y125730D01*
X204443D01*
X203864Y127891D01*
X202694Y129919D01*
X201039Y131574D01*
X199011Y132744D01*
X196850Y133323D01*
D02*
G37*
G36*
X204443Y123190D02*
X196850D01*
Y115597D01*
X199011Y116176D01*
X201039Y117346D01*
X202694Y119001D01*
X203864Y121029D01*
X204443Y123190D01*
D02*
G37*
G36*
X182780Y116840D02*
X180440D01*
X178179Y116234D01*
X176151Y115064D01*
X174496Y113409D01*
X173326Y111381D01*
X172720Y109120D01*
Y106780D01*
X173326Y104519D01*
X174496Y102491D01*
X176151Y100836D01*
X178179Y99666D01*
X180440Y99060D01*
X182780D01*
X185041Y99666D01*
X187069Y100836D01*
X188724Y102491D01*
X189894Y104519D01*
X190500Y106780D01*
Y109120D01*
X189894Y111381D01*
X188724Y113409D01*
X187069Y115064D01*
X185041Y116234D01*
X182780Y116840D01*
D02*
G37*
G36*
X208280Y81660D02*
X208162D01*
X205482Y80942D01*
X203078Y79554D01*
X201116Y77592D01*
X199728Y75188D01*
X199010Y72508D01*
Y72390D01*
X208280D01*
Y81660D01*
D02*
G37*
G36*
X194310Y193998D02*
Y186405D01*
X201903D01*
X201324Y188566D01*
X200154Y190593D01*
X198499Y192249D01*
X196471Y193419D01*
X194310Y193998D01*
D02*
G37*
G36*
X201903Y183865D02*
X194310D01*
Y176272D01*
X196471Y176851D01*
X198499Y178021D01*
X200154Y179676D01*
X201324Y181703D01*
X201903Y183865D01*
D02*
G37*
G36*
X300000Y139628D02*
X295522Y139276D01*
X291153Y138227D01*
X287003Y136508D01*
X283173Y134161D01*
X279757Y131243D01*
X276839Y127827D01*
X274492Y123997D01*
X272773Y119847D01*
X271724Y115478D01*
X271372Y111000D01*
Y109000D01*
X271724Y104522D01*
X272773Y100153D01*
X274492Y96003D01*
X276839Y92173D01*
X279757Y88757D01*
X283173Y85839D01*
X287003Y83492D01*
X291153Y81773D01*
X295522Y80724D01*
X300000Y80372D01*
X304478Y80724D01*
X308847Y81773D01*
X312997Y83492D01*
X316827Y85839D01*
X320243Y88757D01*
X323161Y92173D01*
X325508Y96003D01*
X327227Y100153D01*
X328276Y104522D01*
X328628Y109000D01*
Y111000D01*
X328276Y115478D01*
X327227Y119847D01*
X325508Y123997D01*
X323161Y127827D01*
X320243Y131243D01*
X316827Y134161D01*
X312997Y136508D01*
X308847Y138227D01*
X304478Y139276D01*
X300000Y139628D01*
D02*
G37*
%LPD*%
D13*
X318096Y292774D02*
Y298334D01*
Y292774D02*
X320040Y290830D01*
X297180Y319250D02*
X318096Y298334D01*
X168855Y147375D02*
Y300935D01*
Y147375D02*
X182880Y133350D01*
X168855Y300935D02*
X204470Y336550D01*
X143510Y262890D02*
X160020Y279400D01*
X119752Y248420D02*
X134222Y262890D01*
X143510D01*
X276410Y407670D02*
X297970Y429230D01*
X217170Y407670D02*
X276410D01*
X160020Y350520D02*
X217170Y407670D01*
X160020Y279400D02*
Y350520D01*
X88960Y248420D02*
X119752D01*
X189230Y147320D02*
X217105Y175195D01*
X104140Y263600D02*
X106680Y266140D01*
Y285750D02*
X125318Y304388D01*
X106680Y266140D02*
Y285750D01*
X125318Y304388D02*
Y375508D01*
X88960Y248420D02*
X99060Y238320D01*
Y203200D02*
Y238320D01*
X78740Y233200D02*
X88960Y243420D01*
X62730Y217190D02*
X78740Y233200D01*
Y238200D01*
Y203200D02*
Y233200D01*
Y238200D02*
X88960Y248420D01*
X44450Y217170D02*
X44470Y217190D01*
X62730D01*
X102870Y264870D02*
X104140Y263600D01*
X115240Y176773D02*
Y177428D01*
X124042D01*
X243260Y147320D02*
X243620Y146960D01*
X222250Y147320D02*
X243260D01*
X350760Y176530D02*
X353060Y178830D01*
X328930Y176530D02*
X350760D01*
X328930Y158750D02*
Y176530D01*
X332660Y145069D02*
X337820Y139909D01*
Y137160D02*
Y139909D01*
X328930Y158750D02*
X332660Y155020D01*
Y145069D02*
Y155020D01*
X310930Y148412D02*
X348852Y110490D01*
X310930Y148412D02*
Y158750D01*
X307340Y64770D02*
X348852Y106282D01*
Y110490D01*
X364272D01*
X353060Y120650D02*
Y148830D01*
X364272Y110490D02*
X372110Y118328D01*
Y250190D01*
X349250Y56060D02*
Y85090D01*
X331470Y38280D02*
X332970D01*
X337950Y43260D01*
Y44760D01*
X349250Y56060D01*
X96520Y255980D02*
X104140Y263600D01*
X88960Y248420D02*
X96520Y255980D01*
X154940Y405130D02*
X162080D01*
X186690Y429740D01*
X125318Y375508D02*
X154940Y405130D01*
X200660Y520700D02*
X278950D01*
X297970Y539720D01*
X165600Y485640D02*
X200660Y520700D01*
X165600Y431030D02*
Y485640D01*
X154025Y419455D02*
X165600Y431030D01*
X120090Y400760D02*
X138785Y419455D01*
X154025D01*
X120090Y310590D02*
Y400760D01*
X102870Y293370D02*
X120090Y310590D01*
X102870Y264870D02*
Y293370D01*
X88960Y345320D02*
X91440Y347800D01*
Y622300D01*
X104140Y635000D01*
X88960Y248420D02*
Y345320D01*
X96520Y400050D02*
X125318Y428848D01*
X96520Y255980D02*
Y400050D01*
X130780Y539720D02*
X187480D01*
X125318Y534258D02*
X130780Y539720D01*
X125318Y428848D02*
Y534258D01*
X188520Y660600D02*
X200180Y648940D01*
X113590Y660600D02*
X188520D01*
X104140Y651150D02*
X113590Y660600D01*
X104140Y635000D02*
Y651150D01*
X78430Y258950D02*
X88960Y248420D01*
X71120Y266260D02*
X78430Y258950D01*
X58420Y413200D02*
X75720Y430500D01*
X58420Y313690D02*
Y413200D01*
Y313690D02*
X72390Y299720D01*
X36810Y326410D02*
X67810Y295410D01*
X36810Y326410D02*
Y528300D01*
X71120Y266260D02*
X72390Y267530D01*
X67810Y269570D02*
X71120Y266260D01*
X72390Y267530D02*
Y299720D01*
X48740Y540230D02*
X75410D01*
X36810Y528300D02*
X48740Y540230D01*
X29210Y325120D02*
Y589730D01*
Y325120D02*
X62730Y291600D01*
X29210Y589730D02*
X88420Y648940D01*
X62730Y274650D02*
X67810Y269570D01*
Y295410D01*
X62730Y274650D02*
Y291600D01*
X377870Y17780D02*
Y18280D01*
X372110Y24040D02*
Y45720D01*
Y24040D02*
X377870Y18280D01*
X63500Y123190D02*
Y145398D01*
X111760Y180253D02*
X115240Y176773D01*
X111760Y180253D02*
Y185420D01*
X133350D01*
X143390Y175380D01*
X143820Y152260D02*
X147320D01*
X143390Y152690D02*
X143820Y152260D01*
X143390Y152690D02*
Y175380D01*
X147320Y152260D02*
X152620Y146960D01*
X113648Y145398D02*
X114300Y146050D01*
X63500Y145398D02*
X113648D01*
X255213Y173281D02*
X259732Y177800D01*
X243620Y146960D02*
Y157770D01*
X255213Y169363D01*
Y173281D01*
X227286Y69850D02*
X240232D01*
X246962Y76580D01*
X216746Y59310D02*
X227286Y69850D01*
X252730Y60960D02*
X256540Y64770D01*
X218840Y52470D02*
X227330Y60960D01*
X252730D01*
X213360Y48740D02*
X217090Y52470D01*
X213360Y46990D02*
Y48740D01*
X217090Y52470D02*
X218840D01*
X246962Y76580D02*
X253110D01*
X257930Y81400D02*
Y139820D01*
X253110Y76580D02*
X257930Y81400D01*
X242254Y85583D02*
Y100594D01*
X243620Y101960D01*
X195960Y59310D02*
X216746D01*
X257930Y139820D02*
X266700Y148590D01*
X263010Y123728D02*
X288743Y149461D01*
X263010Y92590D02*
X280574Y75026D01*
X184150Y71120D02*
X195960Y59310D01*
X263010Y92590D02*
Y123728D01*
X152620Y87850D02*
Y101960D01*
X193040Y209550D02*
X208678D01*
X276860Y277732D02*
Y310920D01*
X208678Y209550D02*
X276860Y277732D01*
X285520Y271550D02*
Y320270D01*
X217105Y203135D02*
X285520Y271550D01*
X217105Y175195D02*
Y203135D01*
X227265Y177800D02*
X243188D01*
X211375Y161909D02*
X227265Y177800D01*
X211375Y117157D02*
Y161909D01*
Y117157D02*
X220842Y107690D01*
X237890D01*
X243620Y101960D01*
X331470Y17780D02*
X356870D01*
X256540Y64770D02*
X270660Y50650D01*
X317600D01*
X329970Y38280D02*
X331470D01*
X317600Y50650D02*
X329970Y38280D01*
X280574Y66136D02*
Y75026D01*
Y66136D02*
X281940Y64770D01*
X361950Y260350D02*
X372110Y250190D01*
X344170Y278130D02*
X361950Y260350D01*
X344170Y278130D02*
Y348750D01*
X264558Y148590D02*
X266700D01*
X184150Y71120D02*
X187088D01*
X255270Y370840D02*
X322080D01*
X344170Y348750D01*
X288743Y149461D02*
Y161743D01*
X260350Y345440D02*
X285520Y320270D01*
X275360Y312420D02*
X276860Y310920D01*
X66160Y164602D02*
Y185420D01*
X63500Y161942D02*
X66160Y164602D01*
X157480Y46990D02*
X213360D01*
X133350Y71120D02*
X157480Y46990D01*
X288743Y161743D02*
X303530Y176530D01*
X310930D01*
X213360Y45240D02*
Y46990D01*
X218440Y26670D02*
Y40160D01*
X213360Y45240D02*
X218440Y40160D01*
X237610Y32900D02*
X243840Y26670D01*
X237610Y32900D02*
Y38990D01*
X231360Y45240D02*
X237610Y38990D01*
X231360Y45240D02*
Y46990D01*
D18*
X114300Y162594D02*
D03*
Y146050D02*
D03*
X63500Y161942D02*
D03*
Y145398D02*
D03*
D19*
X243188Y177800D02*
D03*
X259732D02*
D03*
D23*
X78430Y321280D02*
D03*
X297180Y319250D02*
D03*
X186690Y429740D02*
D03*
X297970Y429230D02*
D03*
X75720Y430500D02*
D03*
X297970Y539720D02*
D03*
X187480D02*
D03*
X75410Y540230D02*
D03*
X200180Y648940D02*
D03*
X88420D02*
D03*
D24*
X108430Y321280D02*
D03*
X78430Y351280D02*
D03*
X108430D02*
D03*
X327180Y319250D02*
D03*
X297180Y349250D02*
D03*
X327180D02*
D03*
X216690Y429740D02*
D03*
X186690Y459740D02*
D03*
X216690D02*
D03*
X327970Y459230D02*
D03*
X297970D02*
D03*
X327970Y429230D02*
D03*
X105720Y460500D02*
D03*
X75720D02*
D03*
X105720Y430500D02*
D03*
X327970Y569720D02*
D03*
X297970D02*
D03*
X327970Y539720D02*
D03*
X217480Y569720D02*
D03*
X187480D02*
D03*
X217480Y539720D02*
D03*
X105410Y570230D02*
D03*
X75410D02*
D03*
X105410Y540230D02*
D03*
X230180Y678940D02*
D03*
X200180D02*
D03*
X230180Y648940D02*
D03*
X118420Y678940D02*
D03*
X88420D02*
D03*
X118420Y648940D02*
D03*
D25*
X138430Y360680D02*
D03*
X48430D02*
D03*
X357180Y358650D02*
D03*
X267180D02*
D03*
X246690Y469140D02*
D03*
X156690D02*
D03*
X267970Y468630D02*
D03*
X357970D02*
D03*
X45720Y469900D02*
D03*
X135720D02*
D03*
X267970Y579120D02*
D03*
X357970D02*
D03*
X157480D02*
D03*
X247480D02*
D03*
X45410Y579630D02*
D03*
X135410D02*
D03*
X170180Y688340D02*
D03*
X260180D02*
D03*
X58420D02*
D03*
X148420D02*
D03*
D28*
X384810Y567690D02*
D03*
Y542290D02*
D03*
Y516890D02*
D03*
Y491490D02*
D03*
Y466090D02*
D03*
Y440690D02*
D03*
Y415290D02*
D03*
Y389890D02*
D03*
Y364490D02*
D03*
Y339090D02*
D03*
Y313690D02*
D03*
Y288290D02*
D03*
Y262890D02*
D03*
Y237490D02*
D03*
Y212090D02*
D03*
Y186690D02*
D03*
Y161290D02*
D03*
X13970Y567690D02*
D03*
Y542290D02*
D03*
Y516890D02*
D03*
Y491490D02*
D03*
Y466090D02*
D03*
Y440690D02*
D03*
Y415290D02*
D03*
Y389890D02*
D03*
Y364490D02*
D03*
Y339090D02*
D03*
Y313690D02*
D03*
Y288290D02*
D03*
Y262890D02*
D03*
Y237490D02*
D03*
Y212090D02*
D03*
Y186690D02*
D03*
Y161290D02*
D03*
D29*
X384810Y135890D02*
D03*
X13970D02*
D03*
D34*
X372110Y45720D02*
D03*
X332740Y64770D02*
D03*
X307340D02*
D03*
X281940D02*
D03*
X209550Y71120D02*
D03*
X184150D02*
D03*
X158750D02*
D03*
D35*
X372110D02*
D03*
D36*
X66040Y26670D02*
D03*
X91440D02*
D03*
X116840D02*
D03*
X142240D02*
D03*
X167640D02*
D03*
X193040D02*
D03*
X218440D02*
D03*
D37*
X243840D02*
D03*
D38*
X300000Y110000D02*
D03*
X100000D02*
D03*
D39*
X26035Y26035D02*
D03*
X293370D02*
D03*
Y664210D02*
D03*
X26035D02*
D03*
D40*
X256540Y64770D02*
D03*
X133350Y71120D02*
D03*
D41*
X179014Y175910D02*
D03*
X179070Y197801D02*
D03*
X193040Y185135D02*
D03*
X179070Y222250D02*
D03*
X133129Y274291D02*
D03*
X181610Y252730D02*
D03*
X189230Y147320D02*
D03*
X204470Y336550D02*
D03*
X134459Y234950D02*
D03*
X44450Y217170D02*
D03*
X124042Y201240D02*
D03*
X78740Y203200D02*
D03*
X320040Y290830D02*
D03*
X124042Y177428D02*
D03*
X182880Y133350D02*
D03*
X222250Y147320D02*
D03*
X223520Y121365D02*
D03*
X99060Y203200D02*
D03*
X274411Y171701D02*
D03*
X337820Y137160D02*
D03*
X353060Y120650D02*
D03*
X349250Y85090D02*
D03*
X195580Y124460D02*
D03*
X63500Y123190D02*
D03*
X242254Y85583D02*
D03*
X152620Y87850D02*
D03*
X193040Y209550D02*
D03*
X220980Y236220D02*
D03*
X215900Y252730D02*
D03*
X227265Y177800D02*
D03*
X226060Y82550D02*
D03*
X181610Y107950D02*
D03*
X205740Y285750D02*
D03*
X369570Y279400D02*
D03*
X359620Y295910D02*
D03*
X361950Y260350D02*
D03*
X243840Y434340D02*
D03*
X152400Y439420D02*
D03*
X135478Y451262D02*
D03*
X85708Y161942D02*
D03*
X238760Y285750D02*
D03*
X135890Y250190D02*
D03*
X146050Y287020D02*
D03*
X135478Y297997D02*
D03*
X255270Y370840D02*
D03*
X307340Y266700D02*
D03*
X266700Y148590D02*
D03*
X260350Y345440D02*
D03*
X275360Y312420D02*
D03*
X157480Y377190D02*
D03*
X307340Y243840D02*
D03*
X323850D02*
D03*
X40640Y287020D02*
D03*
Y247650D02*
D03*
D42*
X63500Y161942D02*
X85708D01*
D43*
X152620Y146960D02*
D03*
X243620D02*
D03*
X152620Y101960D02*
D03*
X243620D02*
D03*
D44*
X331470Y38280D02*
D03*
Y17780D02*
D03*
D45*
X356870D02*
D03*
X377870D02*
D03*
D46*
X231360Y46990D02*
D03*
X213360D02*
D03*
X310930Y158750D02*
D03*
X328930D02*
D03*
X310930Y176530D02*
D03*
X328930D02*
D03*
D47*
X353060Y178830D02*
D03*
Y148830D02*
D03*
D48*
X88960Y248420D02*
D03*
D49*
X66160Y185420D02*
D03*
X111760D02*
D03*
D50*
X88960Y179010D02*
Y243420D01*
X78430Y258950D02*
Y321280D01*
X88960Y179010D02*
X104297Y163673D01*
X135890Y73660D02*
Y159240D01*
X133840Y161290D02*
X135890Y159240D01*
X115604Y161290D02*
X133840D01*
X133350Y71120D02*
X135890Y73660D01*
X114300Y162594D02*
X115604Y161290D01*
X113221Y163673D02*
X114300Y162594D01*
X104297Y163673D02*
X113221D01*
M02*
