G04*
G04 #@! TF.GenerationSoftware,Altium Limited,Altium Designer,22.7.1 (60)*
G04*
G04 Layer_Color=32896*
%FSLAX44Y44*%
%MOMM*%
G71*
G04*
G04 #@! TF.SameCoordinates,868842FB-CB56-49F4-92B6-46A9E27D1440*
G04*
G04*
G04 #@! TF.FilePolarity,Positive*
G04*
G01*
G75*
%ADD14C,0.2000*%
D14*
X255120Y92210D02*
Y156710D01*
X141120Y92210D02*
X255120D01*
X141120D02*
Y156710D01*
X255120D01*
X234899Y168497D02*
X268021D01*
Y187103D01*
X234899D02*
X268021D01*
X234899Y168497D02*
Y187103D01*
X40430Y387780D02*
X146430D01*
X40430Y293080D02*
Y387780D01*
Y293080D02*
X146430D01*
Y387780D01*
X259180Y385750D02*
X365180D01*
X259180Y291050D02*
Y385750D01*
Y291050D02*
X365180D01*
Y385750D01*
X148690Y496240D02*
X254690D01*
X148690Y401540D02*
Y496240D01*
Y401540D02*
X254690D01*
Y496240D01*
X340560Y141830D02*
Y185830D01*
Y141830D02*
X365560D01*
Y185830D01*
X340560D02*
X365560D01*
X104997Y137761D02*
Y170882D01*
Y137761D02*
X123603D01*
Y170882D01*
X104997D02*
X123603D01*
X54197Y137109D02*
Y170231D01*
Y137109D02*
X72803D01*
Y170231D01*
X54197D02*
X72803D01*
X365970Y401030D02*
Y495730D01*
X259970Y401030D02*
X365970D01*
X259970D02*
Y495730D01*
X365970D01*
X143720Y402300D02*
Y497000D01*
X37720Y402300D02*
X143720D01*
X37720D02*
Y497000D01*
X143720D01*
X365970Y511520D02*
Y606220D01*
X259970Y511520D02*
X365970D01*
X259970D02*
Y606220D01*
X365970D01*
X255480Y511520D02*
Y606220D01*
X149480Y511520D02*
X255480D01*
X149480D02*
Y606220D01*
X255480D01*
X143410Y512030D02*
Y606730D01*
X37410Y512030D02*
X143410D01*
X37410D02*
Y606730D01*
X143410D01*
X268180Y620740D02*
Y715440D01*
X162180Y620740D02*
X268180D01*
X162180D02*
Y715440D01*
X268180D01*
X156420Y620740D02*
Y715440D01*
X50420Y620740D02*
X156420D01*
X50420D02*
Y715440D01*
X156420D01*
M02*
