G04*
G04 #@! TF.GenerationSoftware,Altium Limited,Altium Designer,22.7.1 (60)*
G04*
G04 Layer_Color=16711935*
%FSLAX44Y44*%
%MOMM*%
G71*
G04*
G04 #@! TF.SameCoordinates,868842FB-CB56-49F4-92B6-46A9E27D1440*
G04*
G04*
G04 #@! TF.FilePolarity,Positive*
G04*
G01*
G75*
%ADD14C,0.2000*%
D14*
X141491Y98500D02*
Y282500D01*
Y98500D02*
X259829D01*
Y282500D01*
X141491D02*
X259829D01*
X278987Y182279D02*
X297593D01*
X278987Y149157D02*
Y182279D01*
Y149157D02*
X297593D01*
Y182279D01*
X126949Y304387D02*
Y322993D01*
Y304387D02*
X160071D01*
Y322993D01*
X126949D02*
X160071D01*
X336499Y303117D02*
Y321723D01*
Y303117D02*
X369621D01*
Y321723D01*
X336499D02*
X369621D01*
X228549Y408527D02*
Y427133D01*
Y408527D02*
X261671D01*
Y427133D01*
X228549D02*
X261671D01*
X370360Y120690D02*
X399260D01*
Y582890D01*
X370360D02*
X399260D01*
X370360Y120690D02*
Y582890D01*
X-480Y120690D02*
X28420D01*
Y582890D01*
X-480D02*
X28420D01*
X-480Y120690D02*
Y582890D01*
M02*
